/* XPM */
static const char *checkmark_xpm[] = {
/* columns rows colors chars-per-pixel */
"12 12 25 1",
"  c #008300",
". c #088708",
"X c #0D890D",
"o c #1E921E",
"O c #239423",
"+ c #2A972A",
"@ c #399F39",
"# c #3FA23F",
"$ c #4FA94F",
"% c #5DB05D",
"& c #66B466",
"* c #6CB86C",
"= c #7EC07E",
"- c #9ACE9A",
"; c #A6D4A6",
": c #ABD6AB",
"> c #B5DBB5",
", c #C7E4C7",
"< c #CAE5CA",
"1 c #D3EAD3",
"2 c #DEEFDE",
"3 c #E4F2E4",
"4 c #EDF6ED",
"5 c #F7FBF7",
"6 c gray100",
/* pixels */
"66666666662=",
"666666666>@3",
"66666666-O36",
"6666666-X166",
"666666: :666",
"66666<.*6666",
"3&,64o+56666",
"= o5% ,66666",
"6$ % &666666",
"61  X3666666",
"66# =6666666",
"66;-66666666"
};
