/* XPM */
static char *nextButtonPixmap[] = {
/* columns rows colors chars-per-pixel */
"16 16 30 1",
"  c #FFB83E00",
". c #FEBB4100",
"X c #FFBE4900",
"o c #FFC34700",
"O c #FFC24C00",
"+ c #FFC84E00",
"@ c #FFC25200",
"# c #FFC65C00",
"$ c #FECC5500",
"% c #FECB5B00",
"& c #FFCA6200",
"* c #FFCE6A00",
"= c #FFD26100",
"- c #FFD16D00",
"; c #FFDB6A00",
": c #FFD37300",
"> c #FFE27300",
", c #FEE77C00",
"< c #FFDA8300",
"1 c #FFDC8B00",
"2 c #FFE29400",
"3 c #FFE49B00",
"4 c #FFE5A200",
"5 c #FFE7AC00",
"6 c #FFEBAC00",
"7 c #FFF1BD00",
"8 c #FFF1C500",
"9 c #FFF3CB00",
"0 c gray100",
"q c None",
/* pixels */
"qqqqqqqqqqqqqqqq",
"qqqq7qqqqqqqqqqq",
"qqqq*;2qqqqqqqqq",
"qqq1$X$,6qqqqqqq",
"qqq&.  .%:9qqqqq",
"qqq<@X   X%<qqqq",
"qqqq5*O.. .@4qqq",
"qq14qq<O ...%3qq",
"q2@:qqq#   .$<qq",
"q9<4qq*O   o>6qq",
"qqqq2#.  .$:9qqq",
"qqq3@.  +;1qqqqq",
"qqq9# .=<8qqqqqq",
"qqqq4#-6qqqqqqqq",
"qqqqq7qqqqqqqqqq",
"qqqqqqqqqqqqqqqq"
};
