/* XPM */
static char *classic_blacksquare[] = {
/* columns rows colors chars-per-pixel */
"50 50 236 2",
"   c black",
".  c #010101",
"X  c #020202",
"o  c gray1",
"O  c #040404",
"+  c gray2",
"@  c #060606",
"#  c #070707",
"$  c gray3",
"%  c #090909",
"&  c gray4",
"*  c #0B0B0B",
"=  c #0C0C0C",
"-  c gray5",
";  c #0E0E0E",
":  c gray6",
">  c #101010",
",  c #111111",
"<  c gray7",
"1  c #131313",
"2  c gray8",
"3  c #151515",
"4  c #161616",
"5  c gray9",
"6  c #181818",
"7  c #191919",
"8  c gray10",
"9  c #1B1B1B",
"0  c gray11",
"q  c #1D1D1D",
"w  c #1E1E1E",
"e  c gray12",
"r  c #202020",
"t  c gray13",
"y  c #222222",
"u  c #232323",
"i  c gray14",
"p  c #252525",
"a  c gray15",
"s  c #272727",
"d  c gray16",
"f  c #2A2A2A",
"g  c gray17",
"h  c #2C2C2C",
"j  c #2D2D2D",
"k  c gray18",
"l  c #2F2F2F",
"z  c gray19",
"x  c #313131",
"c  c #323232",
"v  c gray20",
"b  c #343434",
"n  c #353535",
"m  c gray21",
"M  c #373737",
"N  c gray22",
"B  c #393939",
"V  c #3A3A3A",
"C  c gray23",
"Z  c #3C3C3C",
"A  c gray24",
"S  c #3E3E3E",
"D  c #3F3F3F",
"F  c gray25",
"G  c #414141",
"H  c gray26",
"J  c #434343",
"K  c #444444",
"L  c gray27",
"P  c #464646",
"I  c gray28",
"U  c #484848",
"Y  c #494949",
"T  c gray29",
"R  c #4B4B4B",
"E  c #4C4C4C",
"W  c gray30",
"Q  c #4E4E4E",
"!  c gray31",
"~  c #505050",
"^  c #515151",
"/  c gray32",
"(  c gray33",
")  c #555555",
"_  c #565656",
"`  c gray34",
"'  c #585858",
"]  c gray35",
"[  c #5B5B5B",
"{  c gray36",
"}  c #5D5D5D",
"|  c gray37",
" . c #5F5F5F",
".. c #606060",
"X. c #626262",
"o. c #646464",
"O. c #656565",
"+. c gray40",
"@. c #686868",
"#. c DimGray",
"$. c #6A6A6A",
"%. c gray42",
"&. c #6C6C6C",
"*. c #6D6D6D",
"=. c gray43",
"-. c gray44",
";. c #717171",
":. c gray45",
">. c #747474",
",. c gray46",
"<. c #767676",
"1. c #777777",
"2. c gray47",
"3. c #797979",
"4. c gray48",
"5. c #7B7B7B",
"6. c #7C7C7C",
"7. c gray49",
"8. c #7E7E7E",
"9. c gray50",
"0. c #808080",
"q. c #818181",
"w. c gray51",
"e. c #848484",
"r. c gray52",
"t. c gray53",
"y. c #888888",
"u. c gray54",
"i. c #8B8B8B",
"p. c #8D8D8D",
"a. c gray56",
"s. c #909090",
"d. c gray57",
"f. c #929292",
"g. c #939393",
"h. c gray58",
"j. c gray59",
"k. c #979797",
"l. c #989898",
"z. c gray60",
"x. c #9A9A9A",
"c. c #9B9B9B",
"v. c gray61",
"b. c #9D9D9D",
"n. c gray62",
"m. c #9F9F9F",
"M. c #A0A0A0",
"N. c gray63",
"B. c #A2A2A2",
"V. c gray64",
"C. c #A4A4A4",
"Z. c #A5A5A5",
"A. c gray65",
"S. c #A7A7A7",
"D. c gray66",
"F. c #A9A9A9",
"G. c #AAAAAA",
"H. c #ACACAC",
"J. c gray68",
"K. c #AEAEAE",
"L. c #AFAFAF",
"P. c gray69",
"I. c #B1B1B1",
"U. c #B2B2B2",
"Y. c gray70",
"T. c gray71",
"R. c #B6B6B6",
"E. c #B7B7B7",
"W. c gray72",
"Q. c #B9B9B9",
"!. c gray73",
"~. c #BBBBBB",
"^. c #BCBCBC",
"/. c gray74",
"(. c gray75",
"). c #C0C0C0",
"_. c #C1C1C1",
"`. c gray76",
"'. c #C3C3C3",
"]. c gray77",
"[. c #C5C5C5",
"{. c #C6C6C6",
"}. c gray78",
"|. c #C8C8C8",
" X c gray79",
".X c #CACACA",
"XX c gray80",
"oX c #CDCDCD",
"OX c #CECECE",
"+X c gray81",
"@X c #D0D0D0",
"#X c gray82",
"$X c #D2D2D2",
"%X c LightGray",
"&X c gray83",
"*X c #D5D5D5",
"=X c gray84",
"-X c #D7D7D7",
";X c #D8D8D8",
":X c gray85",
">X c #DADADA",
",X c gray86",
"<X c gainsboro",
"1X c #DDDDDD",
"2X c gray87",
"3X c #DFDFDF",
"4X c gray88",
"5X c #E1E1E1",
"6X c gray89",
"7X c #E4E4E4",
"8X c gray90",
"9X c #E6E6E6",
"0X c #E7E7E7",
"qX c gray91",
"wX c #EAEAEA",
"eX c gray92",
"rX c #ECECEC",
"tX c gray93",
"yX c #EEEEEE",
"uX c #EFEFEF",
"iX c gray94",
"pX c #F1F1F1",
"aX c gray95",
"sX c #F3F3F3",
"dX c #F4F4F4",
"fX c gray96",
"gX c #F6F6F6",
"hX c gray97",
"jX c #F8F8F8",
"kX c #F9F9F9",
"lX c gray98",
"zX c #FBFBFB",
"xX c gray99",
"cX c #FDFDFD",
"vX c #FEFEFE",
"bX c gray100",
/* pixels */
"bXbXbXbXbXbXbXbXbXbXbXbXbXbXbXbXbXbXbXbXbXbXbXbXbXbXbXbXbXbXbXbXbXbXbXbXbXbXbXbXbXbXbXbXbXbXbXbXbXbX",
"bXbXbXbXbXbXbXbXbXbXbXbXbXbXbXbXbXbXbXbXbXbXbXbXbXbXbXbXbXbXbXbXbXbXbXbXbXbXbXbXbXbXbXbXbXbXbXbXbXbX",
"bXbXbXbXbXbXbXbXbXbXbXbXbXbXbXbXbXbXbXbXbXbXbXbXbXbXbXbXbXbXbXbXbXbXbXbXbXbXbXbXbXbXbXbXbXbXbXbXbXbX",
"bXbXbXbXbXbXbXbXbXbXbXbXbXbXbXbXbXbXbXbXbXbXbXbXbXbXbXbXbXbXbXbXbXbXbXbXbXbXbXbXbXbXbXbXbXbXbXbXbXbX",
"bXbXbXbXbXbXbXbXbXbXzX6X%X+X+X,XwXeXwX1X1XwXgXgX}.A.A.J.f.w.2.v.D./.%XwXsXgXgXsXeXgXzXbXbXzXzXbXbXbX",
"bXbXbXbXbXbXbXbXbXzX+Xv.h.p.+.[ 9.#XeXsXsXgXgX1Xh.1.#.J * X X X * a f K 2.}.eXzXzXbXbXbXzXbXbXbXbXbX",
"bXbXbXbXbXbXbXwX}.f.X.J M 3 ; X @ ` Y.1X1X.XD.u.` h X X X * @ ; 1 * X X X ; r.,XzXbXbXzXbXbXbXbXbXbX",
"bXbXbXbXbXzXwXD.! u ; X X X X X ; ! 2.w.2.} J u X X @ 8 h C M C M u @ X X ; =.J.eXbXzXgXzXbXzXbXbXbX",
"bXbXbXbXbX1Xh.} u * X X X X X X u S C e * X X X X @ f S U ! ! ! K x * X X f 2.B.1XzXzXzXzXbXzXbXbXbX",
"bXbXbXbXsXJ.` f 8 X X X X X X X ; * X X X X X X @ u S ! ^ ^ ^ ^ ! h * @ 1 J 9.E.%XeXgXbXzXbXbXbXbXbX",
"bXbXbXzX1Xh.J @ * ; X X X ; 3 X X X X X X X X X 8 M U ^ ^ ^ ^ ! J 8 X f 9.J./..X.X#X#X6XzXzXbXbXbXbX",
"bXbXbX6X`.v.` ; X X X X X X X X X X X X X X @ 3 a S U ^ ^ ^ ^ U C e ; ` B.D.A.l.w.f.A.%XgXbXbXbXbXbX",
"bXbXbX,X.X!.r.8 X X X X X X X X X X X X X X 1 e f x J ! ^ ^ ! ! U S 8 1 1 x ! M x =.D.#XeXbXbXbXbXbX",
"bXbXbX#X%X!.2.1 X X X X X X X X X X X X X X 1 e u e f J ! ! ! ! ! S e X X X X X f 2./.3XgXbXzXbXbXbX",
"bXbXbX,X,Xl.C X X X X X X X X X X X X X X X * ; @ * u S ! ! ! ! U M 3 X X X X ; U B.,XsXgXgXbXbXbXbX",
"bXbXbX3X3XJ.! * X X X X X X X X X X X X 3 X X X X 1 h S U U K S M 3 3 X X X @ a -.D.`.wXsXeXbXbXbXbX",
"bXbXbX3XwXE.#.u X X X X X X X X X ; M f X X X * 1 e f x C x u 1 @ X X X X X 1 e J [ v.%XeXbXbXbXbXbX",
"bXbXbXeXsX,Xp.K X X X X X X X X a M e X X X X u C K S M h a f u u X X X X X X X * C [ f..XgXsXbXbXbX",
"bXbXbXzXzXsX/.X.f * X X X * 8 u 3 X X X X 3 u S K U U K K J S M 3 X X X X X X X @ ; S +.A.3XsXbXbXbX",
"bXbXbXzXbXgX}.r.S 3 X X * 3 ; X @ ; u u a f h M U K U J J M M 3 X X X X X X X X X X h [ l.6XzXbXbXbX",
"bXbXbXbXzXzX#Xf.! ; X X X X u S ! ^ ` J f a x S J S C x f u 3 @ X @ X @ * X X X X X u =.!.sXbXbXbXbX",
"bXbXbXbXbXbX,Xp.! ; X X X ^ [ ` ` ^ K h u h M h x f e e 8 8 3 u u 1 u a e @ X X X 3 K w.+XgXzXbXbXbX",
"bXbXbXzXgX6X`.9.K * X 3 K } ` ^ ^ ! S f 8 8 u 8 8 a u 8 u C S a 8 h x e * X X X X u ! 9./.gXbXbXbXbX",
"bXbXbXwX}.l.=.` h X e J ^ ^ ^ ! ! K h 8 X X @ 3 M J J C x C h e 3 1 * X X X X X ; h K -.J.sXbXbXbXbX",
"bXbXbXY.=.^ S f 3 u J ! ! ! ^ ! J f * X X * 8 M K K K S S M h ; X X X X X X X X X 3 h X.v.eXbXbXbXbX",
"bXbXbX} M C M f f x K ! ^ U U S f X X X X 3 h S J S M M h h 3 X X X X X X * X X X u } 9.J.eXgXbXbXbX",
"bXbXbXf h U ` J h h K U ! K M ; X X X X 1 u f f f 8 3 u e 8 * X X X X X u 3 X X X K u.B.}.3XeXbXbXbX",
"bXbXbXa J X.-.^ C u x S S h 3 X X * 1 1 3 3 * 1 X X * u f M f ; X X X X X X X X 1 =.E.J.!.,XeXbXbXbX",
"bXbXbX+.2.=.[ C 8 * * ; X X X X * a M h 8 1 X X X X u K U ! ! J M ; X X X X X X f w.Y.B.J.,XeXbXbXbX",
"bXbXbXA.9.! u @ X X X X X X X @ 8 x S x 8 X X X X ; J ^ ^ ` ^ ^ ! h X X X X X X 3 =.h.A.E.,XgXbXbXbX",
"bXbXbX3XE.2.f @ X X X X X X X X 8 e u 3 X X X X * S ^ ^ ^ ^ ^ ^ ^ S 3 X X X X X * X.h.Y./.1XsXbXbXbX",
"bXbXbXeX.Xl.^ ; * 3 X X X X X X X @ X X X X * f K ! ^ ^ ^ ` ^ ^ ^ U 3 X X X X X X ! l.Y.%XeXgXbXbXbX",
"bXbXbXgX3X!.X.x U S 8 X X X X X X X X X X f S ! ^ ^ ^ ^ ^ ^ ^ ^ ! J u e h f * X X ! B.}.6X1X3XbXbXbX",
"bXbXbXzXzX,X` S K h 3 X X X @ 3 * X X * M U ! ^ ^ ^ ^ ` ^ ` ^ ` ! K K U K M * X X ^ E.%X.XY..XbXbXbX",
"bXbXbXgXzX+X^ ; @ X X X X X * e X X 3 C K ! ^ ^ ^ ^ ^ ^ ^ ^ ^ ! ! ! ! ! U M X X * #.D.l.w.v.1XbXbXbX",
"bXbXbXsX#X-.x * X X X X X * u e u @ h U ^ ^ ^ ` ^ ` ^ ^ ^ ! ! ! ! ! ! ! U a X X 3 [ w.=.=.f.+XbXbXbX",
"bXbXbX1Xl.` h * X X X X X 3 J K 3 3 S U ! ! ^ ^ ^ ^ ^ ! ! ! U ! U ! U K M X X X h } +.#.1.r./.bXbXbX",
"bXbXbX9.} C 1 X X X X X X f S C f M S U ! ! ! ! U K K U K ! ! ! U K h 3 X X x ! [ } =.=.#.=.h.bXbXbX",
"bXbXbX[ U C M u X X X X 3 f f C S S K J J K U J x f h C C S K S f ; X X 3 } -.-.#.+.! f 3 ! u.bXbXbX",
"bXbXbX` r.l.f.} h 3 f J M S J J J S J C M h u 8 8 3 8 3 8 e f 8 X X X * X.9.1.[ J f u * 1 ^ A.bXbXbX",
"bXbXbXv.,X3X+Xp.#.+.^ M M J J S S C S u ; 3 ; ; 1 ; X X X X X X X X ; [ 1.1.9.` u u a M X.`.zXbXbXbX",
"bXbXbX6XzXgX,Xv.#.K S S S S S J h u 3 * X ; ; @ x ^ h X X X X X X 1 ^ 1.#.+.K M C J } Y.gXbXbXbXbXbX",
"bXbXbXbXzX3XE.h.r.} J S S C M x f 3 * X X X * h +.B.2.S 1 X X e [ X.[ #.^ J 8 S +.v.eXbXbXbXbXbXbXbX",
"bXbXbXbXbXsX1X1X1Xl.S M C h x J U U M a 3 1 C 9.`.%X/.r.C e C +.+.! ` ! x M ! h.1XbXbXbXbXbXbXbXbXbX",
"bXbXbXbXzXsX1XwXgX#X! C K } 1.h.f.p.u.} a C 9.E.1XeXsX%Xl.[ J ^ ` M f e C =.}.bXbXbXbXbXbXbXbXbXbXbX",
"bXbXbXbXzXbXgXgXzX6Xf.9.f.B.}.,X+X+X!.u.} 2.`.+X,XsXgXeX`.2.K h u h x } Y.gXbXbXbXbXbXbXbXbXbXbXbXbX",
"bXbXbXbXbXbXbXbXbXbXbXbXbXbXbXbXbXbXbXbXbXbXbXbXbXbXbXbXbXbXbXbXbXbXbXbXbXbXbXbXbXbXbXbXbXbXbXbXbXbX",
"bXbXbXbXbXbXbXbXbXbXbXbXbXbXbXbXbXbXbXbXbXbXbXbXbXbXbXbXbXbXbXbXbXbXbXbXbXbXbXbXbXbXbXbXbXbXbXbXbXbX",
"bXbXbXbXbXbXbXbXbXbXbXbXbXbXbXbXbXbXbXbXbXbXbXbXbXbXbXbXbXbXbXbXbXbXbXbXbXbXbXbXbXbXbXbXbXbXbXbXbXbX",
"bXbXbXbXbXbXbXbXbXbXbXbXbXbXbXbXbXbXbXbXbXbXbXbXbXbXbXbXbXbXbXbXbXbXbXbXbXbXbXbXbXbXbXbXbXbXbXbXbXbX"
};
