/* XPM */
static char *classic_bordersquare[] = {
/* columns rows colors chars-per-pixel */
"48 48 211 2",
"   c #7B9C6E",
".  c #779A70",
"X  c #7A9C73",
"o  c #7DBB5C",
"O  c #77A26C",
"+  c #79A56C",
"@  c #7CA374",
"#  c #7DAA74",
"$  c #7DBF6B",
"%  c #75C45B",
"&  c #7CC356",
"*  c #7AC05F",
"=  c #7FC863",
"-  c #7DCA6B",
";  c #82BE5A",
":  c #89B95D",
">  c #93B65F",
",  c #94B95C",
"<  c #9DBD5B",
"1  c #83A26C",
"2  c #84A967",
"3  c #83AC6D",
"4  c #8CA56A",
"5  c #89AC65",
"6  c #89AB69",
"7  c #82A272",
"8  c #82A47B",
"9  c #82AB77",
"0  c #84AD7C",
"q  c #8EAD71",
"w  c #89A97F",
"e  c #87B568",
"r  c #85B966",
"t  c #8ABE64",
"y  c #8ABB6B",
"u  c #83B57A",
"i  c #8EBC74",
"p  c #96AA65",
"a  c #99AA65",
"s  c #99AC6D",
"d  c #90A975",
"f  c #93B361",
"g  c #96B468",
"h  c #9DBB63",
"j  c #93B171",
"k  c #91B57F",
"l  c #9BB17E",
"z  c #9CBB72",
"x  c #99BF7C",
"c  c #A0BE5B",
"v  c #AEB55F",
"b  c #ABBB5B",
"n  c #B0B65F",
"m  c #B3B95D",
"M  c #BCBC5B",
"N  c #A0AE63",
"B  c #A4B062",
"V  c #A0BD61",
"C  c #ABB361",
"Z  c #A1B37B",
"A  c #85C357",
"S  c #82C459",
"D  c #8CC356",
"F  c #8CC45C",
"G  c #93C456",
"H  c #93C45A",
"J  c #9BC356",
"K  c #9CC55A",
"L  c #87C365",
"P  c #82C06A",
"I  c #85CA67",
"U  c #8DC461",
"Y  c #8EC368",
"T  c #8AC862",
"R  c #8BCF75",
"E  c #87D076",
"W  c #94C761",
"Q  c #92C26E",
"!  c #93C863",
"~  c #9CC763",
"^  c #99C96C",
"/  c #96C376",
"(  c #A4C356",
")  c #A3C359",
"_  c #AAC456",
"`  c #ABC55A",
"'  c #B2C456",
"]  c #BAC456",
"[  c #BAC559",
"{  c #A3C064",
"}  c #A2C56D",
"|  c #A2C864",
" . c #A9C660",
".. c #ADC863",
"X. c #AFCA68",
"o. c #A7C274",
"O. c #ADC679",
"+. c #ADCD73",
"@. c #BDC964",
"#. c #B3CC71",
"$. c #B0CF7B",
"%. c #C3BF59",
"&. c #C0C456",
"*. c #C4C258",
"=. c #CCC965",
"-. c #87A580",
";. c #88A782",
":. c #8BAB83",
">. c #8FAC89",
",. c #8DB583",
"<. c #8CBC80",
"1. c #91AD8B",
"2. c #93B281",
"3. c #93B48C",
"4. c #93BA8C",
"5. c #9AB084",
"6. c #9AB68B",
"7. c #9BBB8E",
"8. c #99B492",
"9. c #9BBB96",
"0. c #A6BD97",
"q. c #A3BB9D",
"w. c #A4BCA0",
"e. c #8ED081",
"r. c #95D586",
"t. c #9AD585",
"y. c #9AD78C",
"u. c #A3CC85",
"i. c #A5C98C",
"p. c #A4C290",
"a. c #A3C49C",
"s. c #A6CD9F",
"d. c #ACC39C",
"f. c #ABCE94",
"g. c #B1C988",
"h. c #B8CD9D",
"j. c #BCD280",
"k. c #BBD68E",
"l. c #BEDB9D",
"z. c #ABC4A5",
"x. c #AEC3AA",
"c. c #ABCBA2",
"v. c #AEDFA3",
"b. c #B1C6AA",
"n. c #B1CBA1",
"m. c #B5C9AF",
"M. c #BACFA5",
"N. c #B9CCA9",
"B. c #B5CBB1",
"V. c #BBCDB5",
"C. c #BCCDB8",
"Z. c #B2D1A1",
"A. c #BCD5A5",
"S. c #BBD6AC",
"D. c #B6D0B1",
"F. c #BBD6B5",
"G. c #BDD4B8",
"H. c #BCDFB6",
"J. c #AEE0A5",
"K. c #BAE4B1",
"L. c #C2D585",
"P. c #C2D78C",
"I. c #C3D796",
"U. c #C3D798",
"Y. c #C5D992",
"T. c #C5DD9D",
"R. c #D4D688",
"E. c #C1D2A3",
"W. c #C1D6BC",
"Q. c #C4DDB1",
"!. c #C2D9BF",
"~. c #DBDFA4",
"^. c #D0DEBD",
"/. c #C1E7B9",
"(. c #D6E4B3",
"). c #D9E3BE",
"_. c #E7E7BB",
"`. c #C4D4C1",
"'. c #CAD7C7",
"]. c #C9DBC5",
"[. c #CEDBC9",
"{. c #C5E1C0",
"}. c #CBE4C2",
"|. c #D7E5C7",
" X c #D2E2CB",
".X c #D7E8CC",
"XX c #D8E9CC",
"oX c #D5E2D2",
"OX c #DAE4D6",
"+X c #DBE5D9",
"@X c #DFEAD6",
"#X c #DCE8DB",
"$X c #E5EDCD",
"%X c #EAEECF",
"&X c #E3ECD6",
"*X c #E0EADC",
"=X c #E8EFDA",
"-X c #E4F1DC",
";X c #E9F1D6",
":X c #E4ECE2",
">X c #E8EFE6",
",X c #E7F0E6",
"<X c #EAF2E4",
"1X c #ECF2EB",
"2X c #F2F5E5",
"3X c #F1F5ED",
"4X c #F5F8EC",
"5X c #F2F6F1",
"6X c #F5F9F3",
"7X c #F9FAF5",
"8X c #FEFEFE",
/* pixels */
"8X8X8X8X8X8X8X8X8X8X8X8X8X8X8X8X8X8X8X8X8X8X8X8X8X8X8X8X8X8X8X8X8X8X8X8X8X8X8X8X8X8X8X8X8X8X8X8X",
"8X8X8X8X8X8X8X8X8X8X8X8X8X8X8X8X8X8X8X8X8X8X8X8X8X8X8X8X8X8X8X8X8X8X8X8X8X8X8X8X8X8X8X8X8X8X8X8X",
"8X8X8X8X8X8X8X8X8X8X8X8X8X8X8X8X8X8X8X8X8X8X8X8X8X8X8X8X8X8X8X8X8X8X8X8X8X8X8X8X8X8X8X8X8X8X8X8X",
"8X8X8X8X8X8X8X8X8X8X8X8X8X8X8X8X8X8X8X8X8X8X8X8X8X8X8X8X8X8X8X8X8X8X8X8X8X8X8X8X8X8X8X8X8X8X8X8X",
"8X8X8X8X8X8X8X8X8X8X8X8X8X8X8X8X8X8X8X8X8X8X8X8X8X8X8X8X8X8X8X8X8X8X8X8X8X8X8X8X8X8X8X8X8X8X8X8X",
"8X8X8X8X8X8X8X8X8X8X8X8X8X8X8X8X8X8X8X8X8X8X8X8X8X8X8X8X8X8X8X8X8X8X8X8X8X8X8X8X8X8X8X8X8X8X8X8X",
"8X8X8X8X8X8X8X8X8X8X8X8X8X8X8X8X8X8X7X7X8X8X8X8X8X8X8X8X8X8X8X8X8X8X8X8X8X8X8X8X8X8X8X8X8X8X8X8X",
"8X8X8X8X8X8X8X8X8X8X8X8X8X8X8X8X5X[.G.G.B.].#X5X8X8X8X8X8X8X8X7X8X8X8X8X8X8X8X8X8X8X8X8X8X8X8X8X",
"8X8X8X8X8X8X8X8X8X8X8X8X7X7X5X+XB.-.X X X ;.[.7X8X8X8X8X8X8X8X7X7X8X8X8X8X8X8X8X8X8X8X8X8X8X8X8X",
"8X8X8X8X8X8X8X8X8X8X8X#XOXoXV.8.@ X X . ;.`.7X8X8X8X8X6X7X8X8X8X8X8X8X8X8X8X8X8X8X8X8X8X8X8X8X8X",
"8X8X8X8X8X8X8X8X8X7X#Xb.5.l d 1 7 . . X B.1X8X8X8X8X+X9.z.1X8X8X8X8X8X8X8X8X8X8X8X8X8X8X8X8X8X8X",
"8X8X8X8X8X8X8X8X,X].b.Z C n B a 4 X X 8.OX5X7X7X+Xx.X ;.B.>X7X8X8X8X8X8X8X8X8X8X8X8X8X8X8X8X8X8X",
"8X8X8X8X8X8X8X>Xa.w s m M %.m a 4 7 8.`.+X+X+XC.;.X 8 m.>X7X8X8X8X8X8X8X8X8X8X8X8X8X8X8X8X8X8X8X",
"8X8X8X8X8X8X:X4.1 4 v %.%.M b > 6 <.H.}./.s.4.9 7 6.].1X7X8X7X8X8X8X8X8X8X8X8X8X8X8X8X8X8X8X8X8X",
"8X8X8X8X8X6Xc.4 a C m M M b , * e.J.K.J.y.- % F o.).4X7X8X7X6X1X1X8X8X8X8X8X8X8X8X8X8X8X8X8X8X8X",
"8X8X8X8X8X[.k p C m b b ) J S R J.K.J.E % % G ) L.%X4X7X5X,XF.z.W.5X8X8X8X8X8X8X8X8X8X8X8X8X8X8X",
"8X8X8X8X7Xa.1 p v p , < J K T y.J.y.= & D J ( @.R._.2X2X@XF.u # c.>X8X8X8X8X8X8X8X8X8X8X8X8X8X8X",
"8X8X8X8X*X,.. 1 O 2 : H J J T t.r.I D J ( _ ] &.=.R.~.l.d.@ O :.G.6X8X8X8X8X8X8X8X8X8X8X8X8X8X8X",
"8X8X8X8X:X0 . X ;.7./ H H G S T S D J ( _ ] &.&.&.] _ 5 . . 9.>X6X8X8X8X8X6X8X8X8X8X8X8X8X8X8X8X",
"8X8X8X8XoX8.q.x.'.oXS.T G D D D H J _ _ ] [ [ ` _ ( S + . 1.+X8X8X8X8X8X8X8X8X8X8X8X8X8X8X8X8X8X",
"8X8X8X8X#X+X1X1X1X*XA.~ H H H H ( ' ] ] ] _ ` K H A o O 1.C.5X8X8X8X8X8X8X8X8X8X8X8X8X8X8X8X8X8X",
"8X8X8X8X6X6X8X8X6X[./ : H H H K ` [ ] ] ( K | H A A r 6.'.:X6X8X8X8X8X8X8X8X8X8X8X8X8X8X8X8X8X8X",
"8X8X8X8X8X7X8X4X|.9.e ! F U F K ` [ ] _ ( K H & S L 0. X1X5X7X8X7X8X8X8X8X8X8X8X8X8X8X8X8X8X8X8X",
"8X8X8X8X8X8X5X.Xi.y e t U U ! K ` _ _ ' _ ( G % $ c.+X5X5X1X+X:X1X8X8X8X8X8X8X8X8X8X8X8X8X8X8X8X",
"8X8X8X8X8X7X@Xi.y L t t Y ^ | K ( J _ _ ( J D P n.h.h.E.N.w.8.V.+X7X8X8X8X8X8X8X8X8X8X8X8X8X8X8X",
"8X8X8X8X8X8X}.i r L t Q f.l.+.| ) J ( ( ( J , z o.{ V h g 1 w x.+X6X8X8X8X8X8X8X8X8X8X8X8X8X8X8X",
"8X8X8X8X8X7X-Xf.y y u.Q.<X=XT.k.$.} < J c < c c ) ) c c f 4 8.W.1X8X8X8X8X8X8X8X8X8X8X8X8X8X8X8X",
"8X8X8X8X8X8X8X1XZ.h..X5X8X6X=XA.2.6 > ( ( ( ( ( _ ( < > d 0.W.:X8X8X8X8X8X8X8X8X8X8X8X8X8X8X8X8X",
"8X8X8X8X8X8X8X8X6X7X8X8X6X>Xm.8 O 2 , ) _ _ ( _ ( ( < z d.OX:X8X8X8X8X8X8X8X8X8X8X8X8X8X8X8X8X8X",
"8X8X8X8X8X8X8X8X8X8X8X6X+Xq.X . X 3 p < ) ) ( ( ) c g.^.>X8X8X8X8X8X8X8X8X8X8X8X8X8X8X8X8X8X8X8X",
"8X8X8X8X8X8X8X8X8X8X8X8X>XG.4.0 8 ,.p.O...) ` ` X.I.=X8X8X8X8X8X8X8X8X8X8X8X8X8X8X8X8X8X8X8X8X8X",
"8X8X8X8X8X8X8X8X8X8X8X8X8X8X6X>X:X:X|.I.#...#.$.Y.%X7X8X8X8X8X8X8X8X8X8X8X8X8X8X8X8X8X8X8X8X8X8X",
"8X8X8X8X8X8X8X8X8X8X8X8X8X8X8X8X8X8X2X(.P.Y.$X=X4X7X8X8X8X8X8X8X8X8X8X8X8X8X8X8X8X8X8X8X8X8X8X8X",
"8X8X8X8X8X8X8X8X8X8X8X8X8X8X8X8X8X8X8X2X;X4X8X8X8X8X8X8X8X8X8X8X8X8X8X8X8X8X8X8X8X8X8X8X8X8X8X8X",
"8X8X8X8X8X8X8X8X8X8X8X8X8X8X8X8X8X8X8X8X8X8X8X8X8X8X8X8X8X8X8X8X8X8X8X8X8X8X8X8X8X8X8X8X8X8X8X8X",
"8X8X8X8X8X8X8X8X8X8X8X8X8X8X8X8X8X8X8X8X8X8X8X8X8X8X8X8X8X8X8X8X8X8X8X8X8X8X8X8X8X8X8X8X8X8X8X8X",
"8X8X8X8X8X8X8X8X8X8X8X8X8X8X8X8X8X8X8X8X8X8X8X8X8X8X8X8X8X8X8X8X8X8X8X8X8X8X8X8X8X8X8X8X8X8X8X8X",
"8X8X8X8X8X8X8X8X8X8X8X8X8X8X8X8X8X8X8X8X8X8X8X8X8X8X8X8X8X8X8X8X8X8X8X8X8X8X8X8X8X8X8X8X8X8X8X8X",
"8X8X8X8X8X8X8X8X8X8X8X8X8X8X8X8X8X8X8X8X8X8X8X8X8X8X8X8X8X8X8X8X8X8X8X8X8X8X8X8X8X8X8X8X8X8X8X8X",
"8X8X8X8X8X8X8X8X8X8X8X8X8X8X8X8X8X8X8X8X8X8X8X8X8X8X8X8X8X8X8X8X8X8X8X8X8X8X8X8X8X8X8X8X8X8X8X8X",
"8X8X8X8X8X8X8X8X8X8X8X8X8X8X8X8X8X8X8X8X8X8X8X8X8X8X8X8X8X8X8X8X8X8X8X8X8X8X8X8X8X8X8X8X8X8X8X8X",
"8X8X8X8X8X8X8X8X8X8X8X8X8X8X8X8X8X8X8X8X8X8X8X8X8X8X8X8X8X8X8X8X8X8X8X8X8X8X8X8X8X8X8X8X8X8X8X8X",
"8X8X8X8X8X8X8X8X8X8X8X8X8X8X8X8X8X8X8X8X8X8X8X8X8X8X8X8X8X8X8X8X8X8X8X8X8X8X8X8X8X8X8X8X8X8X8X8X",
"8X8X8X8X8X8X8X8X8X8X8X8X8X8X8X8X8X8X8X8X8X8X8X8X8X8X8X8X8X8X8X8X8X8X8X8X8X8X8X8X8X8X8X8X8X8X8X8X",
"8X8X8X8X8X8X8X8X8X8X8X8X8X8X8X8X8X8X8X8X8X8X8X8X8X8X8X8X8X8X8X8X8X8X8X8X8X8X8X8X8X8X8X8X8X8X8X8X",
"8X8X8X8X8X8X8X8X8X8X8X8X8X8X8X8X8X8X8X8X8X8X8X8X8X8X8X8X8X8X8X8X8X8X8X8X8X8X8X8X8X8X8X8X8X8X8X8X",
"8X8X8X8X8X8X8X8X8X8X8X8X8X8X8X8X8X8X8X8X8X8X8X8X8X8X8X8X8X8X8X8X8X8X8X8X8X8X8X8X8X8X8X8X8X8X8X8X",
"8X8X8X8X8X8X8X8X8X8X8X8X8X8X8X8X8X8X8X8X8X8X8X8X8X8X8X8X8X8X8X8X8X8X8X8X8X8X8X8X8X8X8X8X8X8X8X8X"
};
