/* XPM */
static char *classic_icon[] = {
/* columns rows colors chars-per-pixel */
"12 12 70 1",
"  c #D3B283",
". c #D4B384",
"X c #D4B385",
"o c #D5B486",
"O c #D5B587",
"+ c #D6B588",
"@ c #D6B689",
"# c #D7B78A",
"$ c #D7B78B",
"% c #D8B88C",
"& c #D8B98D",
"* c #D8B98E",
"= c #D9BB91",
"- c #DABA90",
"; c #DABB91",
": c #DABC94",
"> c #DABD94",
", c #DBBD94",
"< c #DABE95",
"1 c #DCBF95",
"2 c #DCBF97",
"3 c #DDC097",
"4 c #DCC19A",
"5 c #DDC19A",
"6 c #DEC198",
"7 c #DEC199",
"8 c #DFC29B",
"9 c #DDC39E",
"0 c #DEC39D",
"q c #E0C49D",
"w c #E1C59E",
"e c #E1C59F",
"r c #E1C9A8",
"t c #E3CBAA",
"y c #E4CAA8",
"u c #E7D1B4",
"i c #E8D3B5",
"p c #E8D4B9",
"a c #EAD5B9",
"s c #EAD7BD",
"d c #E9D8C0",
"f c #ECDBC5",
"g c #EDDCC5",
"h c #EDDECA",
"j c #EEE0CD",
"k c #EFE1CE",
"l c #F1E3D1",
"z c #F1E5D4",
"x c #F2E6D6",
"c c #F2E6D7",
"v c #F4EADD",
"b c #F5EDE1",
"n c #F7F0E7",
"m c #F8F2EA",
"M c #F9F3EC",
"N c #F9F4EE",
"B c #F9F5EE",
"V c #FAF6F0",
"C c #FAF6F1",
"Z c #FBF7F2",
"A c #FBF8F5",
"S c #FCF9F6",
"D c #FCFAF7",
"F c #FCFAF8",
"G c #FDFCFB",
"H c #FDFDFC",
"J c #FEFDFC",
"K c #FEFDFD",
"L c #FEFEFD",
"P c #FEFEFE",
/* pixels */
"PPPPPPPPPPPP",
"PPDlzMDPCBPP",
"PPz;O$9gdfDP",
"Pv$O66X;,pPP",
"Pu.%0w%OX6PP",
"Pk%.0w%.O2DP",
"Ph.Xq6*q%%ZP",
"PMq+3q00%9PP",
"Pu12;%1;$hPP",
"Pzpsyr,%rpmP",
"PPPnbBANDcDP",
"PPPPPPPPPPPP"
};
