/* XPM */
static char *classic_whitesquare[] = {
/* columns rows colors chars-per-pixel */
"50 50 37 1",
"  c #D3B283",
". c #D6B589",
"X c #D7B88D",
"o c #D8B78A",
"O c #D8B98D",
"+ c #DBBC93",
"@ c #DBBE98",
"# c #DDC096",
"$ c #DDC199",
"% c #DEC4A1",
"& c #E0C49D",
"* c #E2C6A0",
"= c #E3C8A4",
"- c #E5CCAB",
"; c #E4CEB0",
": c #E7D0AF",
"> c #E6D1B3",
", c #E6D3B8",
"< c #E8D2B4",
"1 c #E9D5BA",
"2 c #EBD8BD",
"3 c #ECDBC3",
"4 c #EEDEC9",
"5 c #EEE0CE",
"6 c #EFE2D1",
"7 c #F0E1CC",
"8 c #F2E5D3",
"9 c #F2E7D8",
"0 c #F4EADC",
"q c #F6EDE2",
"w c #F7F0E5",
"e c #F7F0E8",
"r c #F8F0E6",
"t c #F9F3EB",
"y c #FAF6F1",
"u c #FBF8F4",
"i c #FEFEFE",
/* pixels */
"iiiiiiiiiiiiiiiiiiiiiiiiiiiiiiiiiiiiiiiiiiiiiiiiii",
"iiiiiiiiiiiiiiiiiiiiiiiiiiiiiiiiiiiiiiiiiiiiiiiiii",
"iiiiiiiiiiiiiiiiiiiiiiiiiiiiiiiiiiiiiiiiiiiiiiiiii",
"iiiiiiiiiiiiiiiiiiiiiiiiiiiiiiiiiiiiiiiiiiiiiiiiii",
"iiiiiiiiiiiiiiiiiiiiiiiiiiiiiiiiiiiiiiiiiiiiiiiiii",
"iiiiiiiiiiiit44qtruuuiiiiiiiiiiiiiiiiiiiiiiiiiiiii",
"iiiiiiiiiiiu8<209480ruiiuiiiiiiiiiiittyiiiiiiiiiii",
"iiiiiiiiiiir2-<51-::<7eqq5riiiiiiiit,,30uiiiiiiiii",
"iiiiiiiiiiu8-=-:&O+OOO*&$%5yiiyquiu5@O%3uiiiiiiiii",
"iiiiiiiiiiy4=@$$O .      X@35923qiu,X.@6iiiiiiiiii",
"iiiiiiiiiiu3@oo..          .$=-:5uy,XX+3tyuiiiiiii",
"iiiiiiiuye0=X ..    .Oo.    .+*-4ie%+X$490tiiiiiii",
"iiiiiiiq42%O.     .+&&&&     +&-5q6>$$,89ruiiiiiii",
"iiiiiii8-+       O&*=&&&     +&$+O++%:388tiiiiiiii",
"iiiiiir<$.     .+&&*&=&&.   .O@O.  .@--,4tiiiiiiii",
"iiiiii4*O      O&***&&&+O   .O.. . .X+O+;yiiiiiiii",
"iiiiit<+      o$&&&&&&&&#Oo    o  . oo  &yiiiiiiii",
"iiiiiq=o      +$&&&&&&&&&&+o o  .  .o.  &tiiiiiiii",
"iiiiu7&o      .X+#&&&==&&&O  oo  .  .   *quiiiiiii",
"iiiiy<&o        .+&*==&=&#O   o         =0uiiiiiii",
"iiiiy<*+    .    O&&&&&&&&+. . .        %tiiiiiiii",
"iiiiu4-* .@%X   .+#&&&&&&&#o   o        %uiiiiiiii",
"iiiiu8:=--%O    O#&&&&*=&&+.   .        $quiiiiiii",
"iiiiit73<%      O&&&&*&&&+.             +4tiiiiiii",
"iiiiiuq9*       +&&=&=&&&+o     ...OOO  o1riiiiiii",
"iiiiiie1.       o&&&&=&&+. .  O+#++##+  .<yiiiiiii",
"iiiiiy4@        #&=&=&&+o.oO.o&&&#&+Oo  .:0uiiiiii",
"iiiiiq%+        &&&&=&&+o++++&&&&&+O.   .1qiiiiiii",
"iiiiu93%#.     #&&&&&&&++#&#&&&&&&+.    O3tiiiiiii",
"iiiiiyqq3&.    ++#&&&&&&&&&&&&&&&&+.    O7uiiiiiii",
"iiiiiiiu0&+o o   o#&&&&&&&&&&&&&*&O     +9iiiiiiii",
"iiiiiiiu7&++o+   +#&&&&&&&&&&&&&&&+    X*qiiiiiiii",
"iiiiiuy8:&+O++. .O$&*&&&&&#&&&&&&&#O  .&3tiiiiiiii",
"iiiiit4:&@OO#O   +$&&*&##&&&&&&&&&&o  .-0uiiiiiiii",
"iiiit4:=&++##+o. .O@&@OO+&&&&&&###+.  .=tiiiiiiiii",
"iiii9:=&&O++O##o   X.. .+##&&&#O...   O7uiiiiiiiii",
"iiii3==&@+++O+=:=O      .O.o++       O1yiiiiiiiiii",
"iiii2-=&$$+XO$3r94==@              o+:yurtuiiiiiii",
"iiii51-=%=@++,94<-=;3;+            o=0t3<20uiiiiii",
"iiii099311$$104-=&=%-46$           #<0<==-4yiiiiii",
"iiiiiuureq33e9,=&=*=:40-XX$-*+OOO+&<02-**=2yiiiiii",
"iiiiiiiiiueyu6:==&*=<8q>@$4y82;*<49yt1-**-3yiiiiii",
"iiiiiiiiiiiiit4-==-18ruq,6yiuq88ruiit3---<8uiiiiii",
"iiiiiiiiiiiiiiq00qtuuuiiiuiiiuuuuiiiu04379riiiiiii",
"iiiiiiiiiiiiiiiuiiiiiiiiiiiiiiiiiiiiiiuuuiiiiiiiii",
"iiiiiiiiiiiiiiiiiiiiiiiiiiiiiiiiiiiiiiiiiiiiiiiiii",
"iiiiiiiiiiiiiiiiiiiiiiiiiiiiiiiiiiiiiiiiiiiiiiiiii",
"iiiiiiiiiiiiiiiiiiiiiiiiiiiiiiiiiiiiiiiiiiiiiiiiii",
"iiiiiiiiiiiiiiiiiiiiiiiiiiiiiiiiiiiiiiiiiiiiiiiiii",
"iiiiiiiiiiiiiiiiiiiiiiiiiiiiiiiiiiiiiiiiiiiiiiiiii"
};
