/* XPM */
static char *oceanbarbeq_blacksquare[] = {
/* columns rows colors chars-per-pixel */
"50 50 229 2",
"   c #5F2D14",
".  c #612C12",
"X  c #6A3D1E",
"o  c #713E1E",
"O  c #7C3F15",
"+  c #6A3922",
"@  c #71401F",
"#  c #744121",
"$  c #7B4321",
"%  c #774932",
"&  c #7C503A",
"*  c #7E5747",
"=  c #814719",
"-  c #824A1A",
";  c #894E19",
":  c #8B521F",
">  c #975B1F",
",  c #995416",
"<  c #824523",
"1  c #824822",
"2  c #8A5120",
"3  c #934E28",
"4  c #925226",
"5  c #995126",
"6  c #985329",
"7  c #A45C18",
"8  c #B75D2C",
"9  c #BF5E2D",
"0  c #AB621C",
"q  c #AE701B",
"w  c #A76820",
"e  c #A7682E",
"r  c #AF7228",
"t  c #A6713F",
"y  c #B76E21",
"u  c #BD602E",
"i  c #B77B28",
"p  c #BD7F2C",
"a  c #87624D",
"s  c #8C644F",
"d  c #8F7067",
"f  c #F61C1D",
"g  c #EC2416",
"h  c #EE2218",
"j  c #EE2819",
"k  c #EF3217",
"l  c #EC3718",
"z  c #EC3918",
"x  c #F6211E",
"c  c #F12B1A",
"v  c #F82C1F",
"b  c #F0311A",
"n  c #F13E1A",
"m  c #F62520",
"M  c #F62C21",
"N  c #F82A20",
"B  c #F63021",
"V  c #F83323",
"C  c #F83B23",
"Z  c #CE791E",
"A  c #D67A10",
"S  c #C46230",
"D  c #C96B32",
"F  c #DB6A32",
"G  c #DB7636",
"H  c #DC7836",
"J  c #EF4719",
"K  c #F0521C",
"L  c #F94426",
"P  c #F65324",
"I  c #FA5327",
"U  c #FA5729",
"Y  c #FA5C2A",
"T  c #EE751A",
"R  c #EE791B",
"E  c #F5651C",
"W  c #F36C1C",
"Q  c #F1771C",
"!  c #F07B1C",
"~  c #EF7E24",
"^  c #E17036",
"/  c #EC7234",
"(  c #FA612B",
")  c #FC682C",
"_  c #F77620",
"`  c #F07E24",
"'  c #FB742E",
"]  c #FF7A26",
"[  c #FE7B2B",
"{  c #FB7730",
"}  c #FB7B30",
"|  c #BF8026",
" . c #B9813D",
".. c #A28476",
"X. c #A3887B",
"o. c #DF8219",
"O. c #C78A3F",
"+. c #CB8A32",
"@. c #D48729",
"#. c #D08F29",
"$. c #DB8623",
"%. c #D3952E",
"&. c #D9972E",
"*. c #DB9731",
"=. c #DB9A34",
"-. c #E68513",
";. c #F1821C",
":. c #F58B1E",
">. c #FA891F",
",. c #F6911F",
"<. c #F9951E",
"1. c #FA991E",
"2. c #E18921",
"3. c #EF8127",
"4. c #E59B2E",
"5. c #E29F32",
"6. c #F18124",
"7. c #F08228",
"8. c #F58C22",
"9. c #FC8221",
"0. c #FE8921",
"q. c #F18934",
"w. c #FC8131",
"e. c #FF833C",
"r. c #FD8C33",
"t. c #FE8D3E",
"y. c #F69223",
"u. c #F7932B",
"i. c #F89321",
"p. c #FB9B22",
"a. c #FB9D29",
"s. c #FD9335",
"d. c #FE933C",
"f. c #FE9C37",
"g. c #FE9D39",
"h. c #EEA82E",
"j. c #E5A436",
"k. c #EBA737",
"l. c #E8A438",
"z. c #ECAB3A",
"x. c #FBA126",
"c. c #FCA32A",
"v. c #FDA82E",
"b. c #F3AD32",
"n. c #FBA232",
"m. c #FBA33A",
"M. c #FDAC32",
"N. c #FEAB3B",
"B. c #F5B13B",
"V. c #FEB135",
"C. c #FEB53B",
"Z. c #FFBA37",
"A. c #FEB83E",
"S. c #C99653",
"D. c #FF8740",
"F. c #F69A43",
"G. c #FAA648",
"H. c #FEAE43",
"J. c #FBAF4D",
"K. c #F8AB5A",
"L. c #FEB540",
"P. c #FEBA41",
"I. c #FFBC4B",
"U. c #FBB256",
"Y. c #FBB55C",
"T. c #FFBE51",
"R. c #F4A565",
"E. c #F5AC6E",
"W. c #F9AD60",
"Q. c #F4AA70",
"!. c #FAB160",
"~. c #FBBC6F",
"^. c #F9B97A",
"/. c #FFC03F",
"(. c #FEC240",
"). c #FFC943",
"_. c #FFC053",
"`. c #FFC35D",
"'. c #FFC563",
"]. c #FEC36C",
"[. c #FFC96C",
"{. c #FEC677",
"}. c #FEC77A",
"|. c #FFCB72",
" X c #FFCD78",
".X c #B59986",
"XX c #BAA7A2",
"oX c #BEABA3",
"OX c #C7B6AE",
"+X c #C8B8AF",
"@X c #C4B5B0",
"#X c #F6B583",
"$X c #F7BD8F",
"%X c #CEC1BA",
"&X c #D2C3BB",
"*X c #F9C48F",
"=X c #FECB81",
"-X c #FCCC8C",
";X c #FCCF92",
":X c #FFD182",
">X c #FED38C",
",X c #FDD192",
"<X c #FED79A",
"1X c #FFDB9D",
"2X c #FDD6A4",
"3X c #FAD3AC",
"4X c #FEDAA0",
"5X c #FEDDAA",
"6X c #FAD3B3",
"7X c #FAD7BE",
"8X c #FDDCB2",
"9X c #FDDEB8",
"0X c #FFE0AB",
"qX c #FFE2B2",
"wX c #FEE3BC",
"eX c #FFE9BF",
"rX c #DDD6D1",
"tX c #E0D7D4",
"yX c #FEE5C1",
"uX c #FFE8C3",
"iX c #FEE9CA",
"pX c #FFECD1",
"aX c #FEF2E3",
"sX c #FEF5EA",
"dX c #FFF8EC",
"fX c #F7F4F2",
"gX c #FEF7F0",
"hX c #FEFAF4",
"jX c #FEFEFE",
/* pixels */
"jXjXjXjXjXjXjXjXjXjXjXjXjXjXjXjXjXjXjXjXjXjXjXjXjXjXjXjXjXjXjXjXjXjXjXjXjXjXjXjXjXjXjXjXjXjXjXjXjXjX",
"jXjXjXjXjXjXjXjXjXjXjXjXjXjXjXjXjXjXjXjXjXjXjXjXjXjXjXjXjXjXjXjXjXjXjXjXjXjXjXjXjXjXjXjXjXjXjXjXjXjX",
"jXjXjXjXjXjXjXjXjXjXjXjXjXjXjXjXjXjXjXjXjXjXjXjXjXjXjXjXjXjXjXjXjXjXjXjXjXjXjXjXjXjXjXjXjXjXjXjXjXjX",
"jXjXjXjXjXjXjXjXjXjXjXjXjXjXjXjXjXjXjXjXjXjXjXjXjXjXjXjXjXjXjXjXjXjXjXjXjXjXjXjXjXjXjXjXjXjXjXjXjXjX",
"jXjXjXjXjXjXjXjXjXjXjXjXjXjXjXjXjXjXjXjXjXjXjXjXjXjXjXjXjXjXjXjXjXjXjXjXjXjXjXjXjXjXjXjXjXjXjXjXjXjX",
"jXjXjXjXjXjXjXjX5XF.` 3.~ 3.8.u.n.C.I.P.P.L.P.P.P.I.P.L.L.L.L.P.I.P.P.P.P.I.P.P.'.iXjXjXjXjXjXjXjXjX",
"jXjXjXjXjXjXjXpXY.6.! Q R ! ,.p.v.C.C.M.v.v.M.V.L.L.C.M.v.v.v.M.C.C.C.A.L.C.A.A.A.,XdXjXjXjXjXjXjXjX",
"jXjXjXjXjXjXiXK.6.R R Q ;.,.p.M.A.M.x.p.p.1.p.x.M.C.c.p.1.1.1.i.x.V.P.P.C.P.A.A.A.P.4XhXjXjXjXjXjXjX",
"jXjXjXjXhXpXK.! R R R ! :.p.M.A.V.x.1.1.o.A -.<.v.M.x.p.1.x.p.1.1.v.A.A.A.A.P.C.C.A.T.qXjXjXjXjXjXjX",
"jXjXjXjX5XW.~ Q ! R ! :.p.M.P.P.v.1.p.y 4 t e o.v.C.v.$.0 , 0 Z i.v.A.A.A.C.C.A.P.A.A.'.iXhXjXjXjXjX",
"jXjXjXjXF.6.R R ! R :.<.c.A.P.C.V.V.4.- X.rX+XS.b.(.l.2 . . . O @.Z.A.A.A.C.P.A.C.A.C.A.|.qXjXjXjXjX",
"jXjXjXjX6.! ! R Q ! ,.1.v.C.A.A.A.(.4.@ %XjXfXS.h.(.=.+ a .X..& i ).A.C.A.A.C.A.A.A.P.C.P.`.jXjXjXjX",
"jXjXjXjX! ! R ! Q ;.<.p.c.A.P.A.A.(.=.- %XjXjXS.k.).%.# oXhXfX..q ).P.A.A.A.P.C.A.C.A.A.A.P.jXjXjXjX",
"jXjXjXjX! ! ! R R :.<.p.V.(.(.(.A./.*.= X.rXOX .b.).=.# d OXXXs | (.A.A.A.A.C.A.C.P.A.A.A.L.jXjXjXjX",
"jXjXjXjX~ R ! R R :.p.x.c.f.g.C./.(.k.: + * % | A.A.B.| > @ 2 r z.(.A.A.C.L.A.A.A.A.C.P.A.P.jXjXjXjX",
"jXjXjXjX! ! R ! R i.1.Q P L L Y f././.+.> ; w z.A.A.A.B.j.#.&.B.A.A.C.A.P.(.A.L.C.A.A.C.C.P.jXjXjXjX",
"jXjXjXjX! ! ! R R 8.E k m v m m C r.A.A.z.j.B.A.A.A.A.A.(.(.(.P.A.A./.(.(.(.(.(.P.C.P.C.C.P.jXjXjXjX",
"jXjXjXjX! ! R R ;.W k h M B M M x L m.(.(.(.P././.A.A.A.A.A.A.A.A./.A.f.w.} s.C.(.A.C.A.C.P.jXjXjXjX",
"jXjXjXjX3.;.R ;.R J g j M B B B v x ' A.A.A.A.P.P.N.L.A./.A.A.A.A.C.' C B B C ( n./.P.A.A.P.jXjXjXjX",
"jXjXjXjX! R R ;.R z g j B B B B M x ( C.A.A.L.d.H D G t.N.A.A.P.P.' M x N v m m ( A.P.C.C.P.jXjXjXjX",
"jXjXjXjX! ! ! ;.T l h j B B B M B m U N.A.C.d.S < o $ S e.H.A.A.A.( f M B B M f L C.(.A.A.P.jXjXjXjX",
"jXjXjXjX! R ! ;.R z g j B B B B M x ) C.P.g.^ 1 X X X 1 F D.C.A./.w.v f N N m v ) P.P.C.C.P.jXjXjXjX",
"jXjXjXjX` R R ;.` K j j B M B B v m w.P.P.t.9 @ @ @ @ @ 8 e.H.A.A.C.w.L N N C ' N./.A.A.A.P.jXjXjXjX",
"jXjXjXjX! R R Q :.! z h v B B M x U N.(.A.t.S # @ @ @ @ u e.m.C.A.A.P.m.s.s.g.A.A.A.A.A.C.P.jXjXjXjX",
"jXjXjXjX! R R Q ;.p.! n M M M M I m.(.A.A.d./ 3 X X X 3 / [ a.A.A.C.A.P.(./.P.A.A.A.A.A.C.P.jXjXjXjX",
"jXjXjXjX~ Q R R ! <.p.i.' Y Y w.N.A.A.A.A.a.' F 5 1 5 F ' >.v.A.P.A.A.A.A.A.P.C.A.C.A.A.P.P.jXjXjXjX",
"jXjXjXjX! ! R ! ! i.1.c.C.A.A.A.A.A.A.A.C.x.>.] ' / } [ >.i.v.C.P.C.P.C.A.C.A.A.A.A.C.C.C.C.jXjXjXjX",
"jXjXjXjX! R ! R ! ,.1.x.C.(.(.A.A.A.C.A.Z.x.<.<.0.0.0.i.<.p.M.P.A.A.C.A.A.A.A.A.C.M.c.x.a.a.jXjXjXjX",
"jXjXjXjX` R ! R ! i.1.p.C.A.C.A.A.A.A.A.A.M.p.p.1.1.1.p.p.M.C.C.A.B.C.A.A.A.A.A.v.p.<.<.<.p.jXjXjXjX",
"jXjXjXjXq.6.q.q.q.u.<.p.C.P.A.A.A.I.T.T._.P.p.i.p.1.a.m.H.T.T.I.A.A.P.C.A.A.A.V.M.m.g.m.a.m.jXjXjXjX",
"jXjXjXjX6X3X6XyX6XG.i.p.M.A.C.A.A.:XuXuXuX=Xa.<.p.p.J.9XyXuXuX=XA.A.A.A.A.A.A.I.-XwX9X9X8X8XjXjXjXjX",
"jXjXjXjXjXjXjXjXhXY.p.p.M.P.A.A.A.5XjXjXjX2Xc.<.p.b.[.jXjXjXjX5XA.A.A.A.A.A.A.I.eXjXjXjXjXjXjXjXjXjX",
"jXjXjXjXjXjXjXjXsXU.i.p.V.P.A.A.A.1XhXjXhX-Xc.<.c.C.|.hXjXjXhX4XA.A.A.A.C.A.A.T.qXjXjXjXjXjXjXjXjXjX",
"jXjXjXjXjXjXjXjXsXU.<.p.M.A.A.C.A.1XhXjXhX=Xp.<.p.C.[.hXjXjXhX4XA.A.A.A.P.C.A.I.qXjXjXjXjXjXjXjXjXjX",
"jXjXjXjXjXjXjXjXgXU.i.p.V.A.A.A.A.1XjXjXjX=Xc.<.x.C.|.hXjXjXhX1XP.C.C.A.A.A.C.I.qXjXjXjXjXjXjXjXjXjX",
"jXjXjXjXsXsXsXgXaXU.<.p.M.P.C.A.A.1XfXjXhX=Xa.<.c.C. XhXjXjXhX1XC.A.A.A.A.C.P.T.wXjXjXjXjXjXjXjXjXjX",
"jXjXjXjXE.R.Q.^.~.m.i.p.C.A.C.A.A.1XjXjXjX=Xa.<.c.C.[.hXhXjXjX1XP.C.A.A.A.C.P.I.5XsXsXsXsXsXjXjXjXjX",
"jXjXjXjXR R R :.1.p.<.p.C.A.C.A.A.1XhXjXhX}.p.<.c.C._.<XuXdXhX1XA.A.C.A.C.P.C.P.`. X X X[.[.jXjXjXjX",
"jXjXjXjX~ R R 8.<.<.i.v.C.P.A.A.A.4XhXjXjX=Xa.<.c.C.A.A.`.iXjX4XA.P.C.A.A.A.C.A.A.A.C.A.A.C.jXjXjXjX",
"jXjXjXjXR R R 8.p.x.M.C.A.A.A.A.P.4XhXjXhX=Xa.1.v.C.A.A.I.uXhX4XA.C.P.A.P.A.P.A.A.A.A.A.A.P.jXjXjXjX",
"jXjXjXjX! R R :.c.C.P.P.A.P.P.P.P.1XhXjXjX}.a.<.v.P.A.P.`.iXhX2XA.A.A.A.A.A.A.A.A.A.A.A.P.P.jXjXjXjX",
"jXjXjXjX~ ! R >.v.C.V.C.V.V.V.V.V.<XhXjXjX=Xa.<.c.V.C.C.T.uXjX1XC.V.M.M.M.M.M.M.M.Z.M.Z.Z.C.jXjXjXjX",
"jXjXjXjX! R R ;.i.y.y.y.8.8.8.8.8.*XhXjXjX{.p.<.p.c.c.x.N.0XjX-Xx.p.i.<.<.<.<.i.y.i.u.i.y.8.jXjXjXjX",
"jXjXjXjXR ! ! R T R T T R R T T T #XhXjXgX].a.1.<.p.<.,.a.>XjX-Xi.:.;.;.;.! ! ! R R R R R T jXjXjXjX",
"jXjXjXjX7.! 3.~ ~ ~ ~ ~ 3.R 3.3.R $XhXjXfX{.n.a.a.a.a.p.n.,XjX2Xu.3.~ ~ ~ ~ ~ ~ ~ ~ ~ ~ ` ~ jXjXjXjX",
"jXjXjXjXjXjXjXjXjXjXjXjXjXjXjXjXjXjXjXjXjXjXjXjXjXjXjXjXjXjXjXjXjXjXjXjXjXjXjXjXjXjXjXjXjXjXjXjXjXjX",
"jXjXjXjXjXjXjXjXjXjXjXjXjXjXjXjXjXjXjXjXjXjXjXjXjXjXjXjXjXjXjXjXjXjXjXjXjXjXjXjXjXjXjXjXjXjXjXjXjXjX",
"jXjXjXjXjXjXjXjXjXjXjXjXjXjXjXjXjXjXjXjXjXjXjXjXjXjXjXjXjXjXjXjXjXjXjXjXjXjXjXjXjXjXjXjXjXjXjXjXjXjX",
"jXjXjXjXjXjXjXjXjXjXjXjXjXjXjXjXjXjXjXjXjXjXjXjXjXjXjXjXjXjXjXjXjXjXjXjXjXjXjXjXjXjXjXjXjXjXjXjXjXjX",
"jXjXjXjXjXjXjXjXjXjXjXjXjXjXjXjXjXjXjXjXjXjXjXjXjXjXjXjXjXjXjXjXjXjXjXjXjXjXjXjXjXjXjXjXjXjXjXjXjXjX"
};
