/* XPM */
static char *oceanbarbeq_bordersquare[] = {
/* columns rows colors chars-per-pixel */
"48 48 60 1",
"  c #3CCFF5",
". c #3ED0F6",
"X c #44A6D7",
"o c #44A6D9",
"O c #46A8D5",
"+ c #46A8DB",
"@ c #48A7D4",
"# c #4BA9D6",
"$ c #49ADDD",
"% c #4CB1DE",
"& c #52ADD8",
"* c #51B3DE",
"= c #5AB3DB",
"- c #5EB8DD",
"; c #55B6E1",
": c #58B7E2",
"> c #5BBAE2",
", c #61BDE3",
"< c #6BBFE2",
"1 c #42CDF4",
"2 c #4CCDF2",
"3 c #44D0F5",
"4 c #4AD1F5",
"5 c #50CAEF",
"6 c #5CCBEE",
"7 c #53CEF1",
"8 c #5ECEF1",
"9 c #53D4F6",
"0 c #5AD4F5",
"q c #59D8F7",
"w c #65C0E5",
"e c #65CAEB",
"r c #6AC3E6",
"t c #6BC5E8",
"y c #6BCAEA",
"u c #62D5F5",
"i c #61DAF7",
"p c #67DDF8",
"a c #6BDBF8",
"s c #71C6E6",
"d c #70C7E8",
"f c #77CAE7",
"g c #72C8E8",
"h c #7ACDE9",
"j c #72DEF8",
"k c #7BE2F8",
"l c #86D4EE",
"z c #88D6EF",
"x c #88D7F0",
"c c #89D8F1",
"v c #91DCF4",
"b c #83E4F9",
"n c #8BE4F9",
"m c #97E3F7",
"M c #96E8FA",
"N c #9AE6F8",
"B c #9CE9FA",
"V c #A5EBFA",
"C c #AAEEFB",
"Z c gray100",
/* pixels */
"ZZZZZZZZZZZZZZZZZZZZZZZZZZZZZZZZZZZZZZZZZZZZZZZZ",
"ZZZZZZZZZZZZZZZZZZZZZZZZZZZZZZZZZZZZZZZZZZZZZZZZ",
"ZZZZZZZZZZZZZZZZZZZZZZZZZZZZZZZZZZZZZZZZZZZZZZZZ",
"ZZZZZZZZZZZZZZZZZZZZZ+Z$ooZZZZZZZZZZZZZZZZZZZZZZ",
"ZZZZZZZZZZZZZZZZ+$%%%%%%%%+ZZZZZZZZZZZZZZZZZZZZZ",
"ZZZZZZZZZZZZZ+$;%%**:>;;**%$++ZZZZZZZZZZZZZZZZZZ",
"ZZZZZZZZZZZZ$%**:->>w>,>->*:%%+ZZZZZZZZZZZZZZZZZ",
"ZZZZZZZZZZ$%*::>,wrttrttww,6>;%$+ZZZZZZZZZZZZZZZ",
"ZZZZZZZZZ$%;*>wrtyeey7617trww-:;%$ZZZZZZZZZZZZZZ",
"ZZZZZZZZ$%;:wrte82..1322376ytww*;%+ZZZZZZZZZZZZZ",
"ZZZZZZZ$%;>wtte3149qajjji411ttw,>*%+ZZZZZZZZZZZZ",
"ZZZZZZZ%;:wwt1.3qavBVVCCBbp432ttw**$ZZZZZZZZZZZZ",
"ZZZZZZ$*>6tt1.4pvVBhf=&@cCMj932tw,:%+ZZZZZZZZZZZ",
"ZZZZZ+%:-<t2.9jNVt#+o+++O=BVkq17tw:;%oZZZZZZZZZZ",
"ZZZZZ$*>,re14jVm&+++++++++osCkq4ytw*%$ZZZZZZZZZZ",
"ZZZZZ%;>re 1pNMO+++++++++++osCk91yw>%$ZZZZZZZZZZ",
"ZZZZ$%>,te.9vC&+++++++++++++ovCh4yt>;%oZZZZZZZZZ",
"ZZZZ$;>,y43pV<o++++++++++++++&vvq5dw*%$ZZZZZZZZZ",
"ZZZZ$;>,y.9vB&++oo++++++++++oo<Va4dw>*%ZZZZZZZZZ",
"ZZZZ%;>ty1uBh++o++++++++++++oooCk9dw>*$ZZZZZZZZZ",
"ZZZZ%;,re3pCho+++++++++++o#+oooCkqgw:%$ZZZZZZZZZ",
"ZZZo%;,t14jC&o+++++++++++&o++&oCbqtw>;$ZZZZZZZZZ",
"ZZZ+%:,t14jC@+++++++++&++++++ooCkqdw>;$ZZZZZZZZZ",
"ZZZo%;>,y4pVfo++++++++oo+++++ooCk9tw>*$ZZZZZZZZZ",
"ZZZZ$;>we1qnN$+++++++++++++++o=Ck4y,:*+ZZZZZZZZZ",
"ZZZZ$%>wte4jC<+++++++o+++++++olViet,:%+ZZZZZZZZZ",
"ZZZZ+%;6te 0vB$+++++++++++++olVl9tw,:%+ZZZZZZZZZ",
"ZZZZZ%*-,y74aBcX+++++++++++o-Cv88t,:*$ZZZZZZZZZZ",
"ZZZZZ$%*,tg39jCxo++o++++++o,Cnq0se,:%+ZZZZZZZZZZ",
"ZZZZZo%>>,t810jCv=o++++oo#cCvq4eew:*$oZZZZZZZZZZ",
"ZZZZZZ$%:>rg819jVv<#oo##<cVkq4etw>*%+ZZZZZZZZZZZ",
"ZZZZZZZ%;:>,t617avCCCCCCCna98et,>>%+ZZZZZZZZZZZZ",
"ZZZZZZZo%%>6wre74qajbkkka046yrww*%$+ZZZZZZZZZZZZ",
"ZZZZZZZZ+%*;-wwrd70399u00ygtww>*;%+ZZZZZZZZZZZZZ",
"ZZZZZZZZZ+$%*>wwrtttdggdrr,,>>;%$oZZZZZZZZZZZZZZ",
"ZZZZZZZZZZo$**:*>>ww,w,www>>;*%+oZZZZZZZZZZZZZZZ",
"ZZZZZZZZZZZo$$%%%;5->>>>-;;%%%+ZZZZZZZZZZZZZZZZZ",
"ZZZZZZZZZZZZZ++%%%%***%%%%$$+oZZZZZZZZZZZZZZZZZZ",
"ZZZZZZZZZZZZZZZoo+$$%$+$$+oZZZZZZZZZZZZZZZZZZZZZ",
"ZZZZZZZZZZZZZZZZZZooo+ZZZZZZZZZZZZZZZZZZZZZZZZZZ",
"ZZZZZZZZZZZZZZZZZZZZZZZZZZZZZZZZZZZZZZZZZZZZZZZZ",
"ZZZZZZZZZZZZZZZZZZZZZZZZZZZZZZZZZZZZZZZZZZZZZZZZ",
"ZZZZZZZZZZZZZZZZZZZZZZZZZZZZZZZZZZZZZZZZZZZZZZZZ",
"ZZZZZZZZZZZZZZZZZZZZZZZZZZZZZZZZZZZZZZZZZZZZZZZZ",
"ZZZZZZZZZZZZZZZZZZZZZZZZZZZZZZZZZZZZZZZZZZZZZZZZ",
"ZZZZZZZZZZZZZZZZZZZZZZZZZZZZZZZZZZZZZZZZZZZZZZZZ",
"ZZZZZZZZZZZZZZZZZZZZZZZZZZZZZZZZZZZZZZZZZZZZZZZZ",
"ZZZZZZZZZZZZZZZZZZZZZZZZZZZZZZZZZZZZZZZZZZZZZZZZ"
};
