/* XPM */
static char *oceanbarbeq_bordersquare[] = {
/* columns rows colors chars-per-pixel */
"50 50 243 2",
"   c #876647",
".  c #87614A",
"X  c #876349",
"o  c #87634B",
"O  c #866448",
"+  c #876448",
"@  c #876549",
"#  c #886547",
"$  c #886348",
"%  c #886349",
"&  c #88624B",
"*  c #8A614B",
"=  c #8B634A",
"-  c #88624D",
";  c #89634C",
":  c #89634E",
">  c #8B624C",
",  c #8B624E",
"<  c #886549",
"1  c #896449",
"2  c #88644A",
"3  c #89644A",
"4  c #88664A",
"5  c #88664B",
"6  c #89664A",
"7  c #8A654B",
"8  c #88644C",
"9  c #88644E",
"0  c #89654F",
"q  c #8A644D",
"w  c #8A644F",
"e  c #8B654E",
"r  c #8C634D",
"t  c #8C634F",
"y  c #8D624F",
"u  c #8D644E",
"i  c #806550",
"p  c #816550",
"a  c #816452",
"s  c #816653",
"d  c #826553",
"f  c #816655",
"g  c #826555",
"h  c #836654",
"j  c #836656",
"k  c #836658",
"l  c #856558",
"z  c #8B6550",
"x  c #8C6351",
"c  c #8D6452",
"v  c #B4926F",
"b  c #B6966F",
"n  c #B49171",
"m  c #B49372",
"M  c #B79570",
"N  c #B69670",
"B  c #B79770",
"V  c #B79771",
"C  c #B79673",
"Z  c #B59870",
"A  c #B69872",
"S  c #B89671",
"D  c #B99771",
"F  c #BA9672",
"G  c #B89575",
"H  c #B99477",
"J  c #B99676",
"K  c #BA9777",
"L  c #B89871",
"P  c #B89872",
"I  c #B99973",
"U  c #BA9A73",
"Y  c #BA9A74",
"T  c #BB9B74",
"R  c #BB9B75",
"E  c #BA9D75",
"W  c #BA9C76",
"Q  c #BB9E76",
"!  c #BC9A74",
"~  c #BD9B75",
"^  c #BC9A77",
"/  c #BC9C73",
"(  c #BC9C75",
")  c #BD9D74",
"_  c #BC9C76",
"`  c #BD9D76",
"'  c #BD9D77",
"]  c #BC9F77",
"[  c #BE9C76",
"{  c #BE9C77",
"}  c #BF9D77",
"|  c #BE9E77",
" . c #BB9878",
".. c #BC997B",
"X. c #BC9B78",
"o. c #BE9B7B",
"O. c #BD9C79",
"+. c #BD9C7B",
"@. c #BC9E78",
"#. c #BD9F79",
"$. c #BF9D78",
"%. c #BE9D7A",
"&. c #BE9E78",
"*. c #BF9F78",
"=. c #BF9F79",
"-. c #BF9E7B",
";. c #BD9E7F",
":. c #BE9D7C",
">. c #BF9C7C",
",. c #BF9E7F",
"<. c #BDA078",
"1. c #BDA179",
"2. c #BDA17A",
"3. c #BEA179",
"4. c #BEA07A",
"5. c #BFA17B",
"6. c #BEA27A",
"7. c #BEA27B",
"8. c #BFA27A",
"9. c #BFA17D",
"0. c #BFA17F",
"q. c #BFA37C",
"w. c #C09E78",
"e. c #C09E79",
"r. c #C19F7A",
"t. c #C09F7C",
"y. c #C0A079",
"u. c #C0A07A",
"i. c #C1A17B",
"p. c #C0A37B",
"a. c #C2A27B",
"s. c #C1A07D",
"d. c #C0A27C",
"f. c #C1A37D",
"g. c #C0A27E",
"h. c #C1A37F",
"j. c #C2A07D",
"k. c #C3A17C",
"l. c #C2A17E",
"z. c #C2A27C",
"x. c #C3A37C",
"c. c #C3A37D",
"v. c #C3A27F",
"b. c #C0A47D",
"n. c #C0A47F",
"m. c #C1A57E",
"M. c #C2A47E",
"N. c #C2A67F",
"B. c #C4A47E",
"V. c #C09F80",
"C. c #C19E82",
"Z. c #C29F81",
"A. c #C49F82",
"S. c #C1A081",
"D. c #C0A280",
"F. c #C0A381",
"G. c #C1A381",
"H. c #C2A182",
"J. c #C3A283",
"K. c #C3A185",
"L. c #C2A384",
"P. c #C1A580",
"I. c #C1A782",
"U. c #C2A480",
"Y. c #C3A581",
"T. c #C2A482",
"R. c #C2A583",
"E. c #C3A583",
"W. c #C2A681",
"Q. c #C3A780",
"!. c #C3A782",
"~. c #C3A487",
"^. c #C3A684",
"/. c #C4A380",
"(. c #C4A384",
"). c #C4A286",
"_. c #C5A481",
"`. c #C5A483",
"'. c #C4A682",
"]. c #C5A783",
"[. c #C4A586",
"{. c #C4A684",
"}. c #C4A785",
"|. c #C5A785",
" X c #C5A687",
".X c #C6A584",
"XX c #C6A788",
"oX c #C2A885",
"OX c #C3A986",
"+X c #C4A881",
"@X c #C4A883",
"#X c #C5A982",
"$X c #C5A984",
"%X c #C5A886",
"&X c #C4AA87",
"*X c #C6A886",
"=X c #C6A987",
"-X c #C5A888",
";X c #C5AB88",
":X c #C5AB8A",
">X c #C6A989",
",X c #C7AA88",
"<X c #C7AA8A",
"1X c #C6AC89",
"2X c #C6AC8B",
"3X c #C7AD8A",
"4X c #C6AE8A",
"5X c #C7AD8C",
"6X c #C7AC8E",
"7X c #C8AA88",
"8X c #C8AB89",
"9X c #C8AB8B",
"0X c #C9AA8B",
"qX c #C8AB8D",
"wX c #C9AC8A",
"eX c #C8AE8B",
"rX c #C9AC8C",
"tX c #C8AD8F",
"yX c #C8AE8D",
"uX c #C9AF8C",
"iX c #C9AF8E",
"pX c #CAAD8D",
"aX c #CAAD8F",
"sX c #CBAE8E",
"dX c #C9AE90",
"fX c #CAAF91",
"gX c #C8B08E",
"hX c #CAB08F",
"jX c #CBB18E",
"kX c #FFFBF7",
"lX c #FFFDF6",
"zX c #FFFEF6",
"xX c #FFFCF8",
"cX c #FFFDF8",
"vX c #FDFFFC",
"bX c #FDFFFE",
"nX c #FEFEFC",
"mX c #FEFFFD",
"MX c #FFFFFD",
"NX c #FEFEFE",
"BX c #FEFFFF",
"VX c #FFFEFF",
"CX c gray100",
/* pixels */
"CXCXCXCXCXCXCXCXCXCXCXCXCXCXCXCXCXCXCXCXCXCXCXCXCXCXCXCXCXCXCXCXCXCXCXCXCXCXCXxXCXCXCXCXCXCXCXCXCXxX",
"CXCXCXCXCXCXCXCXCXCXCXCXCXCXCXCXCXCXCXCXCXCXCXCXCXCXCXCXCXCXCXCXCXCXCXCXxXCXCXCXCXCXvXCXCXCXCXCXCXCX",
"CXlXs X * - X * $ * 0 * o $ $ * - * X X o e * * $ $ * $ X * $ * * 0 0 * - $ * 0 - z $ $ * 0 $ s lXCX",
"CXkXk x z x z * e e o * o 0 y $ z * 0 * 0 0 0 0 * 0 0 0 0 0 0 * * $ 0 * o 0 * * e * z * y x x h xXCX",
"CXxX9 $ X o o o * 8 - $ o o X 8 X o 0 X X * $ * * 0 0 * X * * - $ * 0 $ 0 o $ $ * - X $ X X X s lXCX",
"CXxXf y 0 * e 0 * 0 0 0 0 * 0 - 0 0 * 0 * 0 * 0 0 * $ 0 * 0 0 0 * 0 0 0 = y y y 0 0 0 z y x x f xXCX",
"CXlXs $ o o * 0 $ * * * $ * * z * * * X 0 $ * 0 $ * $ * 0 * $ * X 0 * 8 * 0 * 0 $ * * * X $ $ a lXCX",
"CXxXh 7 7 o o H +.+.Y Y | W X.| | W W W Y W Y Y Y Y ! A A A A V V V V V V V b V V V m o o 0 x f lXCX",
"CXxXs o y o o %.t.t.| y.y.8.t.%.y.y.1.6.8.y.%.%.%.%.! | | A | | ! | A | ! A A | A Y ~ # 8 z * h lXCX",
"CXxXs 0 $ = # %.t.%.8.8.,.8.8.8.8.y.8.,.y.y.y.8.| | | | | | / ! | / | / ! | | / w.| H 7 o * * f lXCX",
"CXxXs $ 7 o O %.l.y.8.8.8.l.l.l.y.B.l.y.y.l.y.%.8.| | | | | Y | A | W W / | A ! | | A 7 o 0 * h lXCX",
"CXlXf $ o o o t.,.7.,.l.v./.W.W.W.W.!.q.q.l.t.t.y.t.%.3.| | w.A | | / / | / | | | Y H o o $ $ f lXCX",
"CXxXf * 0 o o ,.q.q.l.q.W.W.W.^.G.!.y.l.l.l.8.8.8.8.%.| | | | | ! | / | A | | | A ~ V $ $ y * f lXCX",
"CXxXf * o 0 o C.G.W.^.^.~.].~.~.!.!.$XW.!.!.l.G.t.t.y.8.%.| | | | | | A | / ! A | | H o 7 $ 0 f lXCX",
"CXxXf 0 o $ o l.W.W.W.W.].$X$X].#X$X!.!.W.G.q.q.8.8.8.| | | U | | A | | | ! / | A | H # o 0 * h lXCX",
"CXxXs * 7 7 o v.q.].].].].~.-X$X-X~.].].!.!.$Xq.l.%.%.8.%.| | | | / ! A | / ! | | | A o o 0 * f lXCX",
"CXlXf $ $ 0 X .X].!.].=X-X-XqX5X-X-X-X$X-X].W.W.q.W.y.y.8.%.8.| A | / / | / | A | Y H # o 7 = h lXCX",
"CXxXs 0 * * o G.].$X].=X1X1X1X1XyXqX,X-X-X].W.q.l.l.q.q.y.%.W | | | W W A | / ! | ~ V o 7 o * f lXCX",
"CXxXs * * 0 o !.^.~.-XqX1X5XsXsXeX5X1X$X-X].#XW.q.l.8.y.8.| | | | ~ / ! | / | | / W H o o e * f lXCX",
"CXxXs * 0 * 8 K.-X].=X=XyXyXeXeXyXsX5X5X$X-X#XOXW.W.,.8.t.t.| | | ~ | | | ! A | | | H # o * 0 f lXCX",
"CXxXs o * 0 o ~.].-X-X,XgXeXfXsXeXsX5X:X:XOX].^.W.P.q.,.w.1.w.| | | / A | | / ! U | V o o 7 * f lXCX",
"CXxXs 0 0 *   .X-X-X,XeX5XgXsXhXhXsXtX5X,X-X-X~.W.P.P.q.y.%.3.| / | | | ! A | | / W H # 7 o * h lXCX",
"CXxXs $ = $ * ).].$X,XyX5X5XgXsXsXgXgX1X1X$X].^.W.F.l.,.8.1.w.| W W A | / | A | | W H o 7 $ y f lXCX",
"CXxXf * 0 o o .X].XX=XyXgXgXsXsXgXgX5X5X=X$X].].G.G.y.y.t.w.| | | | | ~ | A | / U | V o o = o h lXCX",
"CXxXh $ * $ o ^.~.-X-XqX5X5XeXeX1XyX,X-X-X^.].W.q.W.y.,.7.1.| | | / | | A | | ! ~ | A o o * * f lXCX",
"CXxXf $ * 0 o K.].].].-X-XqX1XgXyXyX,X-X-X].^.W.W.G.8.,.y.1.W | | | ! / ! | | A ~ | F 7 o 0 * f lXCX",
"CXxXs 0 0 * o G.G.].~.].-X1X-X-X$X=X$X-X].^.!.W.l.l.,.8.| 1.| | | A | ! / | | | | Y F o o e * f lXCX",
"CXxXs * * * $ /.].W.$X].-X-X$X-X=X~.-X^.$X$X!.q.q.q.8.q.w.%.| | | | ! | | A ! / Y | A o 7 o * h lXCX",
"CXxXf * 0 o o l.W.l.W.!.!.^.$X].-X].~.].!.l.G.l.8.8.%.%.W | | | | A | / ! | A | | Y H o 7 o 7 f lXCX",
"CXxXh * * 0 O G.W.#XW.W.]..X!.!.].].!.]./.!.q.l.l.l.8.| 1.| | / / | A | | / | ! Y | H # o 0 = h lXCX",
"CXlXh $ o o $ ,.q.q.W.q.q.W.W.W.W.W.G.G.W.l.,.8.y.t.w.| | | | | ! | A | A | / | ! | V o o o * f lXCX",
"CXxXh = 7 o   %.,.,.l.l.G.l.G.W.W.l.l.G.q.y.y.8.8.%.t.| | | | A | / | ! | / | A | | A o o * - f lXCX",
"CXxXs $ * o o %.8.y.y.l.l.q.v.l.q.q.q.8.y.y.y.y.y.8.| | / | | ! | | A | A | | | A | H o o $ y f lXCX",
"CXxXf * $ y o %.t.%.8.y.y.y.y.8.8.,.8.,.l.y.%.| %.| | ~ | | A | ! / ! | | / ! / ~ | V o # 7 * f lXCX",
"CXxXf 0 7 $ $  .%.%.%.| y.8.l.l.y.y.8.8.8.| | | | | | | | | | ! / ! / | | ! / ! | | V o 0 * 0 f lXCX",
"CXxXf $ o o o +.8.| 1.3.%.%.| | %.%.| %.8.1.| t.| Y | | A | / | | | | A | A | | A | H $ o * $ h lXCX",
"CXxXs * * o # Y +.| ~ | | | 8.%.| | W | W | | | | Y ~ | Y | A | A | | ! / | A | ~ | A o o 7 = h lXCX",
"CXxXf $ o o o ~ | | | | | | | | | | | t.| | | | | | | A | A | / ! | | A | A | / | | F # 7 o * f lXCX",
"CXxXs 0 e 7 # H ~ | U | | | | | Y | Y | | | | U Y | A | | | A ! / | | | | | A ! Y | H o o * * f lXCX",
"CXxXs * o 7 # H ~ W | | U ! | | | | | | | Y U | | Y | ~ ! / | | | A ! / ! / | | | Y Y o o 0 * f lXCX",
"CXxXf * 0 o o G Y %.| W W Y Y %.| | W | U | | U | U | U | / ! | U | U | | ~ ! | Y Y G o o o 7 h lXCX",
"CXxXf $ o o o X.| ~ / U / | W W W / U W | U U | U | U | A ! | / | U | W A | / | ~ | Y o o o * h lXCX",
"CXxXh $ o # o m V V V V V Y V V D D D D b b V b b A V V A D B B b b V V D b A A V V v o o o * f lXCX",
"CXxXh 0 7 7 * * 0 * - - * * z * e e o o 0 * 0 0 0 * 0 * 0 * 0 e * 0 * * 0 0 * $ X 0 * z 7 0 * f xXCX",
"CXlXs * 0 $ $ 0 $ 0 = $ 0 o 0 $ $ o o o o o o 0 o o o 7 o o o o o o o o $ = o o $ 7 o o y e $ h lXCX",
"CXlXf * * y * z $ 0 * 0 * * * 0 y = e y e * 0 * 0 * * e 0 * 0 * 0 0 y 7 0 0 y 0 y $ 0 0 o o * h xXCX",
"CXxXs * 7 $ o o $ 0 * 0 0 * 0 * o 7 7 o o e 0 $ $ 0 0 $ * 0 0 * * $ o o 0 * * 0 $ * o o * 0 * f lXCX",
"CXlXs 0 o e o * y $ 0 * $ 0 * 0 o y $ 0 * $ * 0 * * 0 * 0 * $ $ 0 0 * 7 * $ 0 * $ 0 * 0 8 * x f xXCX",
"CXCXCXCXCXCXCXCXCXCXCXCXCXCXCXCXCXCXCXCXCXCXCXCXCXCXCXCXCXCXCXCXCXCXCXCXCXCXCXCXCXCXCXCXCXCXCXCXCXCX",
"CXCXCXCXCXCXCXCXCXCXCXCXCXCXCXCXCXCXCXCXCXCXCXCXCXCXCXCXCXCXCXCXCXCXCXCXCXCXCXCXCXCXCXCXCXCXCXCXCXCX"
};
