/* XPM */
static char *oceanbarbeq_icon[] = {
/* columns rows colors chars-per-pixel */
"12 12 76 1",
"  c black",
". c #914E25",
"X c #B5652D",
"o c #BD7E39",
"O c #F72F21",
"+ c #F72E22",
"@ c #F0401A",
"# c #F14C1C",
"$ c #F07B1C",
"% c #F07C1C",
"& c #F17D1C",
"* c #F17D1E",
"= c #F17F1F",
"- c #FA612C",
"; c #F27F20",
": c #FB732F",
"> c #FB7E32",
", c #FC7A31",
"< c #CB8933",
"1 c #D59138",
"2 c #D4943A",
"3 c #D89D3E",
"4 c #F2811E",
"5 c #F3841F",
"6 c #F4871E",
"7 c #EC8326",
"8 c #EA9B3A",
"9 c #F28520",
"0 c #F38520",
"q c #F38621",
"w c #F68620",
"e c #F48624",
"r c #F48820",
"t c #F58A20",
"y c #F48E27",
"u c #FC8933",
"i c #FD8934",
"p c #FD8C34",
"a c #F7942C",
"s c #F89524",
"d c #F99524",
"f c #FA9820",
"g c #FA9921",
"h c #FA9B24",
"j c #FB9C24",
"k c #FB9E27",
"l c #FB9F27",
"z c #FA9D2B",
"x c #FB9F28",
"c c #FCA129",
"v c #FCA12D",
"b c #FDA72E",
"n c #FDA82E",
"m c #FEA92F",
"M c #F3A83C",
"N c #FDA930",
"B c #FDAA30",
"V c #FDAA31",
"C c #FDAB31",
"Z c #FEAC33",
"A c #FEAF37",
"S c #FEA93B",
"D c #FFAA3C",
"F c #FEB339",
"G c #FFB53B",
"H c #FFB73C",
"J c #FFB73D",
"K c #FFB73E",
"L c #FFB83D",
"P c #FFB83E",
"I c #FFB93E",
"U c #FFBB3F",
"Y c #CE9A52",
"T c #D19C4D",
"R c #DEAA67",
"E c None",
/* pixels */
"EEEEEEEEEEEE",
"Ea=sCCZmHPPE",
"e;6F1R<oPPPP",
"$$wu2Y3TUPPP",
"$%@O>M8K-:PP",
"$$#OpX.S:uPP",
"$$dSPy7AKHmm",
"$$hKPkmPKHfh",
"==jHPlPPPPPP",
"$=ZHPcPPHKPP",
"%%55wklztt55",
"EEEEEEEEEEEE"
};
