/* XPM */
static char *oceanbarbeq_whitesquare[] = {
/* columns rows colors chars-per-pixel */
"50 50 232 2",
"   c #000000",
".  c #0F0C00",
"X  c #1F0F00",
"o  c #141200",
"O  c #171E00",
"+  c #1C1700",
"@  c #181F00",
"#  c #1B2300",
"$  c #231300",
"%  c #221E00",
"&  c #281400",
"*  c #2C1A00",
"=  c #331B00",
"-  c #381E01",
";  c #202600",
":  c #232800",
">  c #2D2300",
",  c #2A2A00",
"<  c #263000",
"1  c #2B3700",
"2  c #342200",
"3  c #312D00",
"4  c #3A2103",
"5  c #3B260B",
"6  c #3B2B00",
"7  c #353200",
"8  c #3B3500",
"9  c #3C3900",
"0  c #314300",
"q  c #3A4F00",
"w  c #412A06",
"e  c #432909",
"r  c #482E0D",
"t  c #433300",
"y  c #45310A",
"u  c #443B00",
"i  c #4A3101",
"p  c #4B3D00",
"a  c #4D380C",
"s  c #4B3310",
"d  c #49391B",
"f  c #533710",
"g  c #573812",
"h  c #5A3C16",
"j  c #424300",
"k  c #434C00",
"l  c #4E4100",
"z  c #4C4B00",
"x  c #455100",
"c  c #4F5400",
"v  c #4F5C00",
"b  c #514300",
"n  c #554900",
"m  c #594600",
"M  c #5C4C00",
"N  c #55401B",
"B  c #5D4610",
"V  c #5D411D",
"C  c #594A1B",
"Z  c #515200",
"A  c #595300",
"S  c #5E500A",
"D  c #526100",
"F  c #5A6600",
"G  c #5E6800",
"H  c #614700",
"J  c #614C00",
"K  c #6B4F04",
"L  c #62431E",
"P  c #674C1A",
"I  c #635200",
"U  c #61520D",
"Y  c #6A5302",
"T  c #685208",
"R  c #6C5800",
"E  c #6A5819",
"W  c #71560B",
"Q  c #745C00",
"!  c #74590E",
"~  c #7C5D00",
"^  c #765C13",
"/  c #654925",
"(  c #725B2D",
")  c #715534",
"_  c #715834",
"`  c #626700",
"'  c #6A6600",
"]  c #6A6C00",
"[  c #6A611A",
"{  c #6B7100",
"}  c #766100",
"|  c #7B6300",
" . c #7E600A",
".. c #7F6900",
"X. c #7A6014",
"o. c #7E6518",
"O. c #7C7400",
"+. c #6A6028",
"@. c #736222",
"#. c #746B24",
"$. c #726829",
"%. c #786621",
"&. c #7A602A",
"*. c #786D26",
"=. c #796E2A",
"-. c #7C633A",
";. c #7B7326",
":. c #7C722A",
">. c #7F782A",
",. c #836B00",
"<. c #896E00",
"1. c #846717",
"2. c #8B6C1F",
"3. c #847200",
"4. c #877C00",
"5. c #8C7300",
"6. c #8B720E",
"7. c #8F7800",
"8. c #8D7611",
"9. c #8E751B",
"0. c #917700",
"q. c #947C00",
"w. c #987E00",
"e. c #947D11",
"r. c #987E13",
"t. c #987E1B",
"y. c #84722C",
"u. c #8A7C2E",
"i. c #997D30",
"p. c #8B9800",
"a. c #968101",
"s. c #978109",
"d. c #968E00",
"f. c #998300",
"g. c #99830A",
"h. c #9C8800",
"j. c #98821A",
"k. c #9A9200",
"l. c #9B9B00",
"z. c #8A8030",
"x. c #9B8423",
"c. c #968135",
"v. c #97853B",
"b. c #9C853A",
"n. c #84A700",
"m. c #86A800",
"M. c #88AA00",
"N. c #8BB100",
"B. c #8EB900",
"V. c #9CA100",
"C. c #9EAA00",
"Z. c #94B400",
"A. c #91B900",
"S. c #99B200",
"D. c #A08600",
"F. c #A18B00",
"G. c #A59100",
"H. c #AA9A00",
"J. c #A28727",
"K. c #A0892A",
"L. c #A18439",
"P. c #A78F35",
"I. c #A1982C",
"U. c #A39830",
"Y. c #A79B3A",
"T. c #A2AF00",
"R. c #A0B000",
"E. c #AEA633",
"W. c #9D9350",
"Q. c #968663",
"!. c #998765",
"~. c #9D8B6D",
"^. c #A48B42",
"/. c #A3885B",
"(. c #AA924A",
"). c #AB9843",
"_. c #AD9B49",
"`. c #A09754",
"'. c #AD9958",
"]. c #B0924C",
"[. c #B09946",
"{. c #B29D51",
"}. c #B19F5D",
"|. c #A7917A",
" X c #AB997E",
".X c #B19B76",
"XX c #B6A15F",
"oX c #AEA263",
"OX c #BCA669",
"+X c #BDA86A",
"@X c #BEAD74",
"#X c #C1AE72",
"$X c #C1B06D",
"%X c #C6B078",
"&X c #AEA285",
"*X c #BFB7A4",
"=X c #C9B782",
"-X c #C9BD87",
";X c #CDBF89",
":X c #C2B6A0",
">X c #C4BBA4",
",X c #CCBEB0",
"<X c #D4C89B",
"1X c #D4D098",
"2X c #D8D49F",
"3X c #D7CCA0",
"4X c #D8CBA0",
"5X c #D2C7B0",
"6X c #DAD0A7",
"7X c #DCD3AC",
"8X c #E0D6B2",
"9X c #E3DBBF",
"0X c #DBD2C1",
"qX c #DCD4CA",
"wX c #E6DDC3",
"eX c #E2DACA",
"rX c #E5DED5",
"tX c #E6E0D6",
"yX c #EAE6D1",
"uX c #E8E3D8",
"iX c #EBE8D2",
"pX c #EDEAD9",
"aX c #F1ECDD",
"sX c #ECE8E2",
"dX c #F3EFE1",
"fX c #F0F0E4",
"gX c #F5F3EB",
"hX c #F8F6EF",
"jX c #F6F5F2",
"kX c #F8F6F2",
"lX c #FBFBF7",
"zX c #FEFEFE",
/* pixels */
"zXzXzXzXzXzXzXzXzXzXzXzXzXzXzXzXzXzXzXzXzXzXzXzXzXzXzXzXzXzXzXzXzXzXzXzXzXzXzXzXzXzXzXzXzXzXzXzXzXzX",
"zXzXzXzXzXzXzXzXzXzXzXzXzXzXzXzXzXzXzXzXzXzXzXzXzXzXzXzXzXzXzXzXzXzXzXzXzXzXzXzXzXzXzXzXzXzXzXzXzXzX",
"zXzXzXzXzXzXzXzXzXzXzXzXzXzXzXzXzXzXzXzXzXzXzXzXzXzXzXzXzXzXzXzXzXzXzXzXzXzXzXzXzXzXzXzXzXzXzXzXzXzX",
"zXzXzXzXzXzXzXzXzXzXzXzXzXzXzXzXzXzXzXzXzXzXzXzXzXzXzXzXzXzXzXzXzXzXzXzXzXzXzXzXzXzXzXzXzXzXzXzXzXzX",
"zXzXzXzXzXzXzXzXzXzXzXzXzXzXlXL.b l b | h.a.s.1XzXzXzXzXW.b l M 5.h.h.t.yXzXzXzXzXzXzXzXzXzXzXzXzXzX",
"zXzXzXzXzXzXzXzXzXzXzXzXzXzXlXL.b l M <.h.a.g.2XzXzXzXzX`.m l m ,.h.a.j.yXzXzXzXzXzXzXzXzXzXzXzXzXzX",
"zXzXzXzXzXzXzXzXzXzXzXzXzXzXzX^.b l I q.h.a.g.7XzXzXzXzXoXn l b ~ h.h.x.fXzXzXzXzXzXzXzXzXzXzXzXzXzX",
"zXzXzXzXzXzXzXzXzXkX%X^.(.OX#X2.b l R a.a.h.s.$X7X<X4X4Xi.m l n ..h.h.r.<X<X4XdXzXzXzXzXzXzXzXzXzXzX",
"zXzXzXzXzXzXzXzXgXb.T J J K 1.J p m ..f.h.a.a.e.e.e.j.6.Y l p I 0.h.a.w.e.e.e.x.7XzXzXzXzXzXzXzXzXzX",
"zXzXzXzXzXzXzXzX=XT b b l b Y ..} ..w.h.a.h.F.h.a.h.h.G.,.I I ,.w.f.f.h.h.h.h.w.).zXzXzXzXzXzXzXzXzX",
"zXzXzXzXzXzXzXlX(.M b l b b I w.F.h.h.a.D.F.F.F.h.h.f.D.D.7.7.a.f.a.f.a.q.h.a.h.J.aXzXzXzXzXzXzXzXzX",
"zXzXzXzXzXzXzX@XW b l b b p M a.D.a.a.h.5.3 % | h.D.b . 9 F.F.h.f.f.f.f.a.a.a.h.g.x.6XzXzXzXzXzXzXzX",
"zXzXzXzXzXzXzX;.p b b l b p M q.h.f.h.G.u     , D.h.%   o D.h.a.f.f.f.f.f.f.f.f.h.h.Y.zXzXzXzXzXzXzX",
"zXzXzXzXzXzXzX#.b b l b b p M w.f.a.a.D.,.> + R F.F.I % n F.h.a.f.a.a.f.f.a.f.a.a.h.I.zXzXzXzXzXzXzX",
"zXzXzXzXzXzXzX*.l b l b b p M w.f.f.a.h.D.h.w.D.h.a.f.D.f.h.f.f.f.f.f.f.f.a.f.f.f.a.U.zXzXzXzXzXzXzX",
"zXzXzXzXzXzXzX*.b l b p b b J w.w.w.f.a.a.h.F.h.a.a.h.F.f.f.f.a.f.f.a.w.f.f.f.f.a.a.U.zXzXzXzXzXzXzX",
"zXzXzXzXzXzXzX*.l l l b l l A k.H.d.a.w.a.a.a.a.a.f.f.a.f.f.a.w.w.a.a.w.w.w.a.h.a.f.I.zXzXzXzXzXzXzX",
"zXzXzXzXzXzXzX*.b b l l k j D N.A.Z.T.d.q.h.f.D.D.D.f.a.f.w.a.h.V.C.S.T.H.d.q.q.a.f.U.zXzXzXzXzXzXzX",
"zXzXzXzXzXzXzX*.b l l x x q D N.A.B.B.S.k.a.h.3.] O.h.f.a.a.l.A.B.B.B.B.B.Z.l.a.a.a.U.zXzXzXzXzXzXzX",
"zXzXzXzXzXzXzX*.b z k k k k D M.A.A.A.B.C.h.f.` 0 F a.h.w.k.A.A.A.B.A.A.B.B.Z.h.w.a.E.zXzXzXzXzXzXzX",
"zXzXzXzXzXzXzX>.b z k x k k v M.A.A.A.B.Z.h.f.] q F w.h.w.l.B.B.A.A.A.A.A.B.Z.d.w.F.E.zXzXzXzXzXzXzX",
"zXzXzXzX-./.qX+.M m z x x k v m.A.A.A.A.l.a.h.] q G h.h.w.h.C.B.B.B.A.B.B.B.T.F.F.H.u.rX|.) zXzXzXzX",
"zXzXzXzX* = 5 = 2 6 3 9 k k v n.A.B.A.l.h.f.5.z 1 Z a.D.h.q.h.V.Z.Z.A.A.S.l.h.q.~ H w e 4 = zXzXzXzX",
"zXzXzXzXr - $ + $ $ * & $ > Z p.V.l.d.f.h.<.J 8 ; 7 Q q.h.h.q.a.h.k.k.k.G.<.i 4 = & & * 4 h zXzXzXzX",
"zXzXzXzX0X:X*XC t 2 2 * $ 6 n 7.f.w.w.w.,.M m 7 ; 3 m Y 7.h.h.q.w.w.w.w.D.0.4 $ * 2 P :X>XrXzXzXzXzX",
"zXzXzXzXzXzXzX>.n l b l l p M q.D.f.h.| n b p : # , 9 m I 7.f.h.f.a.f.f.h.w.Q b l m y.zXzXzXzXzXzXzX",
"zXzXzXzXrX0XeX@.m l l b b p M 7.h.h.,.J b u : # ; # : 9 b Y 5.a.h.a.a.f.a.h.G.q...,.z.zXzXzXzXzXzXzX",
"zXzXzXzXh f g w 2 2 2 2 2 t M q.F.0.Y p 7 # # 7 l 7 # # 7 b J ,.w.h.f.a.h.q.~ ~ Q | E ~.!.Q.zXzXzXzX",
"zXzXzXzX= * * & $ $ $ $ $ 4 M h.D.} u , @ ; u <.<.M 7 ; # 3 l Y 0.h.a.a.F.<.- $ $ $ $ = = - zXzXzXzX",
"zXzXzXzX_ ( _ a 6 6 t 6 6 t J w.q.z ; @ : n 7.F.D.<.J 8 : # , b <.D.a.h.h.7.i = 2 = 2 d N V zXzXzXzX",
"zXzXzXzXzXzXzX;.M M n A A m M w.4.1 , 9 Y 0.D.h.h.w...J u : @ 9 5.h.h.a.h.h.<.M m A $.kXjXgXzXzXzXzX",
"zXzXzXzXzXzXzX=.n p t 6 4 p I a.h.] ' 7.q.h.h.f.f.a.a.| J j 9 I w.h.a.a.h.q.H t b I :.zXzXzXzXzXzXzX",
"zXzXzXzXuX.X-.y 2 = * + X t J a.h.w.D.D.h.a.a.f.f.f.h.w.7.,.5.q.h.f.a.f.F.5.- $ 2 b &.zXzXzXzXzXzXzX",
"zXzXzXzXs - * $ X $ * 2 6 p J w.h.a.f.f.a.f.a.h.a.f.a.h.h.F.D.h.a.a.f.f.h.,.t * $ & w ) ,XzXzXzXzXzX",
"zXzXzXzX* * e y t t p b b b I a.h.w.h.a.f.f.a.a.f.a.a.f.a.f.f.a.f.a.a.f.f.<.m p t * & = e / zXzXzXzX",
"zXzXzXzX~.&X5Xo.M n b b b b I a.h.h.h.h.h.h.D.h.h.h.h.h.h.h.h.h.f.h.f.f.h.q.n b m p B L - - zXzXzXzX",
"zXzXzXzXzXzXzX=.m l b p b b M <.7.7.q.q.q.7.q.7.q.0.q.q.a.w.q.a.a.f.h.a.h.h.,.m p n *.kX Xh zXzXzXzX",
"zXzXzXzXzXzXzX*.l b b b b p l m n m M M M M M M M J J Y Y I I Y Q ,.w.f.f.a.w.| M m y.zXzXsXzXzXzXzX",
"zXzXzXzXzXzXzX'.^ M M m b l l l p l l b b p l l p p b b l l l l p m Q q.a.h.f.s.6.9.-XzXzXzXzXzXzXzX",
"zXzXzXzXzXzXzXhXwX%X(.W b b l l b l b p b b l l b b p b l l l b b p b ..w.h.w.P.8XpXzXzXzXzXzXzXzXzX",
"zXzXzXzXzXzXzXzXzXzXpXX.b b p b b m S [ [ [ [ [ [ [ [ [ [ [ [ [ S b b R q.h.s.'.zXzXzXzXzXzXzXzXzXzX",
"zXzXzXzXzXzXzXzXzXzXpX^ b b b b b K }.fXfXfXfXfXsXfXfXfXfXfXfXfXv.M l R q.h.a._.lXzXzXzXzXzXzXzXzXzX",
"zXzXzXzXzXzXzXzXzXzXyX^ b b b p b T +XzXzXzXzXzXzXzXzXzXzXzXzXzXb.m l Q a.h.w._.zXzXzXzXzXzXzXzXzXzX",
"zXzXzXzXzXzXzXzXzXzXuX^ b b b b b T XXzXzXzXzXzXzXzXzXzXzXzXzXlXc.m l Q q.h.w._.lXzXzXzXzXzXzXzXzXzX",
"zXzXzXzXzXzXzXzXzXzXaXo.b b p p b T +XzXzXzXzXzXzXzXzXzXzXzXzXlXc.m b Q w.h.q.).lXzXzXzXzXzXzXzXzXzX",
"zXzXzXzXzXzXzXzXzXzXlX(.J b b b b 1.wXzXzXzXzXzXzXzXzXzXzXzXzXzXb.m b } a.h.q._.zXzXzXzXzXzXzXzXzXzX",
"zXzXzXzXzXzXzXzXzXzXzXzXzXzXzXzXzXzXzXzXzXzXzXzXzXzXzXzXzXzXzXzXzXzXzXzXzXzXzXzXzXzXzXzXzXzXzXzXzXzX",
"zXzXzXzXzXzXzXzXzXzXzXzXzXzXzXzXzXzXzXzXzXzXzXzXzXzXzXzXzXzXzXzXzXzXzXzXzXzXzXzXzXzXzXzXzXzXzXzXzXzX",
"zXzXzXzXzXzXzXzXzXzXzXzXzXzXzXzXzXzXzXzXzXzXzXzXzXzXzXzXzXzXzXzXzXzXzXzXzXzXzXzXzXzXzXzXzXzXzXzXzXzX",
"zXzXzXzXzXzXzXzXzXzXzXzXzXzXzXzXzXzXzXzXzXzXzXzXzXzXzXzXzXzXzXzXzXzXzXzXzXzXzXzXzXzXzXzXzXzXzXzXzXzX"
};
