/* XPM */
static char * aboutimage_xpm[] = {
"80 80 18 1",
" 	c None",
".	c #FFFFFF",
"+	c #AFAFAF",
"@	c #707070",
"#	c #404040",
"$	c #101010",
"%	c #000000",
"&	c #CFCFCF",
"*	c #EFEFEF",
"=	c #202020",
"-	c #9F9F9F",
";	c #DFDFDF",
">	c #505050",
",	c #808080",
"'	c #BFBFBF",
")	c #8F8F8F",
"!	c #606060",
"~	c #303030",
"................................................................................",
"................................................................................",
"................................................................................",
"................................................................................",
"................................................................................",
"................................................................................",
"................................................................................",
"................................................................................",
"................................................................................",
"................................................................................",
"................................................................................",
"................................................................................",
"................................................................................",
"................................................................................",
"................................................................................",
"................................................................................",
"................................................................................",
".........................................+@#$%%$#@&.............................",
"......................................*@$%%%%%%%%%%=-...;%%>....................",
".....................................,$%%%%%%%%%%%%%%$@'>%%,....................",
"...................................*#%%%%%=@'..&-=%%%%%%%%%+....................",
"..................................&=%%%%%,........,%%%%%%%%&....................",
".................................&$%%%%%-..........@%%%%%%%.....................",
"................................*=%%%%%)............=%%%%%=.....................",
"................................>%%%%%#.............-%%%%%#.....................",
"...............................-%%%%%%'..............=%%%%,.....................",
"..............................*=%%%%%=...............@%%%%-.....................",
"..............................-%%%%%%@...............'%%%%'.....................",
"..............................=%%%%%%,...............*%%%%*.....................",
".............................&%%%%%%%,................=%%$......................",
".............................,%%%%%%%>................#%%#......................",
".............................>%%%%%%%%;...............!%%@......................",
".............................~%%%%%%%%>...............,%%,......................",
".............................%%%%%%%%%%!..............)%%'......................",
".............................%%%%%%%%%%%>*......................................",
".............................=%%%%%%%%%%%=-.....................................",
".............................#%%%%%%%%%%%%%#'...................................",
".............................)%%%%%%%%%%%%%%%#'.................................",
".............................;%%%%%%%%%%%%%%%%%!;...............................",
"..............................!%%%%%%%%%%%%%%%%%%,..............................",
"..............................*$%%%%%%%%%%%%%%%%%%~&............................",
"...............................&$%%%%%%%%%%%%%%%%%%$+...........................",
"................................&=%%%%%%%%%%%%%%%%%%%-..........................",
".................................*>%%%%%%%%%%%%%%%%%%$&.........................",
"...................................+=%%%%%%%%%%%%%%%%%~.........................",
"....................................*,$%%%%%%%%%%%%%%%%-........................",
"......................................;!%%%%%%%%%%%%%%%=........................",
"........................................'=%%%%%%%%%%%%%%&.......................",
"..........................................,%%%%%%%%%%%%%).......................",
"...........................................'$%%%%%%%%%%%,.......................",
"............................................&$%%%%%%%%%%>.......................",
"........................''&..................)%%%%%%%%%%#.......................",
"........................%%#...................$%%%%%%%%%@.......................",
".......................'%%%...................>%%%%%%%%%,.......................",
".......................-%%%...................,%%%%%%%%%+.......................",
".......................@%%%'..................,%%%%%%%%%*.......................",
".......................#%%%-..................,%%%%%%%%~........................",
".......................%%%%@..................,%%%%%%%%)........................",
"......................;%%%%~..................#%%%%%%%$*........................",
"......................+%%%%%;................*%%%%%%%%,.........................",
"......................,%%%%%)................)%%%%%%%=*.........................",
"......................>%%%%%=...............*$%%%%%%%'..........................",
"......................=%%%%%%,..............>%%%%%%%,...........................",
"......................%%%%%%%%&............!%%%%%%%!............................",
".....................'%%%%%%%%$&.........*!%%%%%%%!.............................",
".....................)%%%%%%%%%$,*......-=%%%%%%%,..............................",
".....................!%%$>=%%%%%%$>,,,>$%%%%%%%='...............................",
".....................#%%&..'#%%%%%%%%%%%%%%%%=,.................................",
".....................''&.....;)~%%%%%%%%%%$>-...................................",
".................................'-,,,,,+&......................................",
"................................................................................",
"................................................................................",
"................................................................................",
"................................................................................",
"................................................................................",
"................................................................................",
"................................................................................",
"................................................................................",
"................................................................................",
"................................................................................"};
