/* XPM */
static char *blacksquare[] = {
/* columns rows colors chars-per-pixel */
"48 48 32 1",
"  c #00000000",
". c #0B0B0B00",
"X c #13131300",
"o c #1B1B1B00",
"O c #23232300",
"+ c #2A2A2A00",
"@ c #33333300",
"# c #3B3B3B00",
"$ c #44444400",
"% c #4C4C4C00",
"& c gray32",
"* c #5B5B5B00",
"= c #63636300",
"- c #6A6A6A00",
"; c #72727200",
": c #7B7B7B00",
"> c #83838300",
", c gray55",
"< c #93939300",
"1 c #9B9B9B00",
"2 c #A3A3A300",
"3 c #ABABAB00",
"4 c #B3B3B300",
"5 c #BCBCBC00",
"6 c #C2C2C200",
"7 c #CBCBCB00",
"8 c #D2D2D200",
"9 c #DCDCDC00",
"0 c #E3E3E300",
"q c #EBEBEB00",
"w c #F3F3F300",
"e c #FEFEFE00",
/* pixels */
"eeeeeeeeeeeeeeeeeeeeeeeeeeeeeeeeeeeeeeeeeeeeeeee",
"eeeeeeeeeeeeeeeeeeeeeeeeeeeeeeeeeeeeeeeeeeeeeeee",
"eeeeeeeeeeeeeeeeeeeeeeeeeeeeeeeeeeeeeeeeeeeeeeee",
"eeeeeeeeeeeeweeeeeeweeeewwwwwwwweeeeeeeeeeeeeeee",
"eeeeeeeeeeq765670q09qww611<-*=:,258qwwqwweeeeeee",
"eeeeeeeew81>:*#%<9wwwq7,=%O     Xo#:6qeeeeeweeee",
"eeeeeew7<*@OX   +,674<-#X  .XXOo    @3weeeeeeeee",
"eeeeeq6;O      .#==&#O.  X+#$$$#o   $,8weweeeeee",
"eeeew5=@.      X+OX     X@%%&&%$O  .&<7weeweeeee",
"eeee9,@X.    .         .+$%&&&&$X O&,470qweeeeee",
"eeeq6:@ .    X        .o#%&&&&%@.X;5664447weeeee",
"eee952&              .o+#%%&&%$#oO&;>;*=<6qeeeee",
"eee875-              XO++@%&&&%%@.  oXX%17qeeeee",
"eew87<@              XXXXO$%%&&%@.    o-60wweeee",
"eee99,O            .    .+$%%%%@OX   .%17qwwweee",
"eee991$.         OO.   .X+##@+o.    .X$-19wweeee",
"eeeqq5-O       X+@o   X+#@@+OooX     ..@=<7wweee",
"eeeww01#X    .oOo   .o#$%$$###+X       .@=19weee",
"eeeeew4=O.  XX.  .ooO+#$%$$$#@o         o%,8weee",
"eeewew6:@    .+#$%$+++#%$#@@+o    .     X%20eeee",
"eeeeew7:@   O&&**%@O+@@@+oOoXXOoXOOX   .+-5wweee",
"eeeww04-+  O&=&&&$@oo+ooOOoO#@oo@@X    X#-4qeeee",
"eeeq6<-%o.@%&&%%%@O.  o@$##@#+ooX      O$=1qeeee",
"eew2-%#OX+$%%&%%@X   o@$$$##@+         .O%,9eeee",
"eeq%@#@++#%%%%$@.   X+#$#@#++.      .  X%;20weee",
"eeqo@&&#+@%%%#o    Xo+O+oooOX.    .O.  +:159qeee",
"eeqO%--%+O@#@o  .XXXo..  .O+#+.        %3447qeee",
"eew-:=%O. .    .O@@OX    +%&%%%@.     .=2237qeee",
"eew3:$X        X+@@o    o%&&&&&%O      %,247weee",
"eee03;o        .ooX   .X$%&&&&&%@.     #,359weee",
"eeeq7<$XOo          .X@%&&&&&&&&@....  +>48qweee",
"eeewq3%#&@.   .    .@$&&&&&&&&&%#+@#o  +,6097eee",
"eeewe6#+OX    oX  X#%&&&&&&&&&&%%%&$O  @17436eee",
"eeew0<+      .oX X#&&&&&&&&&&&%%%&&$X  $<,-,7eee",
"eeeq3%O      O@O.+$%&&&&&&&&%%%%&&%+  .$;-=>5eee",
"eew3;#X     .#%+o@%%%&&%%%%%&%&&%#+  o@&=;::2wee",
"eew&$OX     o@@@@$$%%%%###$$%%$@O. X$=---&#&:wee",
"eeq%=-=+..oO@##$$$$##@+OoO++@@O.  X=>;=%#o +:wee",
"eew:674-%%$##$$$$$@OoXXX  . ..   X*>>-#ooXO:7eee",
"eew8ww7,*%###$$#+Oo .X o@X      X&:;-%@+@-5qeeee",
"eeeee94>=$#$##@+o.    X%>*O   o$&--&@O$=30eeeeee",
"eeeew0774=@#@+@##OXX.O=363-oX@=-**%@O&20eeeeeeee",
"eeeeeq9ww<@@$&;>::*OO=39qq6:$$=&@+O#>8weeeeeeeee",
"eeeeewwww5=->27765,%*378ww03=+ooOO=6weeeeeeeeeee",
"eeeeeeeeewqwwweewewqqweweeewq09000qeeeeeeeeeeeee",
"eeeeeeeeeeeeeeeeeeeeeeeeeeeeeeeeeeeeeeeeeeeeeeee",
"eeeeeeeeeeeeeeeeeeeeeeeeeeeeeeeeeeeeeeeeeeeeeeee",
"eeeeeeeeeeeeeeeeeeeeeeeeeeeeeeeeeeeeeeeeeeeeeeee"
};
