/* XPM */
static char *blacksquare[] = {
/* columns rows colors chars-per-pixel */
"50 50 22 1",
"  c #01010100",
". c #0B0B0B00",
"X c #13131300",
"o c #1B1B1B00",
"O c #23232300",
"+ c #2B2B2B00",
"@ c #33333300",
"# c #3B3B3B00",
"$ c #43434300",
"% c #4B4B4B00",
"& c #52525200",
"* c #5B5B5B00",
"= c #64646400",
"- c #6B6B6B00",
"; c #72727200",
": c #7B7B7B00",
"> c #84848400",
", c #8A8A8A00",
"< c #92929200",
"1 c #9B9B9B00",
"2 c #A5A5A500",
"3 c gray66",
/* pixels */
"O#*:>>>:;--;:>>,12331111111<,:---:>,,<<<<<<<111233",
".o#&=-=------==-:,<,,>>,,,,,:-**&==-::>,,>>><<1332",
" ..+$%%&&*==*%##$*=-===-----*%####$$&*=-:>,>,<<1<<",
"   .o+++##$&&#OXXO+###$$$$$$#+oXXXXoO+#$*->>>:>::-",
"    .X...XO+##o. ....XoooXoooX.     ...X+&=--==***",
"       .  ..oOX. ....  ... .X.          .O#$%$$#$$",
"            .oOOoOOo.      ...           .XoO++++#",
"            .o+++#++X.                     ...o++#",
"             XO+OOOOo.                        XO##",
"              ......X.. . .                   .X+#",
"           .    .   ... ..XX... . ..           .O+",
"      ...           ..XXXXXXoX......            Xo",
"      ..            .oOOOoooOOOOooOX.         ...o",
"                  ..o++#+#+######++o.       .X.Xo+",
"                  .XO+###$$$$#$##+++o.    ...oO+++",
"    .......       .XO+##$#$#+O+OOOOOOo... ...XO+#+",
"     .XXOo.        .Xo+++++OX..XXXoo+OX... ..XO+##",
"     ..XoOX         ..XX........XXoO+#+X    ..o++#",
"      ..XX.                 ..XoOOOO#$#O.    .XO+#",
"      ......      . .    .  .oOO++O++$#O.    .XO+#",
"        . .      ..XX....X...XoOO+OOO+#OX     .o+#",
"                 .XXooooOOoX...oOoXXXoO+X.    .XO#",
"                  ..oO+###+o. ...X. .XO+O.     .O$",
"           ..     ..Xo++##+o.   .    XO##Oo....o+$",
"     .     XX.     ..XoO+++OX.      ..+#$$#++++#$$",
"    .....  .X.      ....XXOOOX..     .XO#$%%&&&&%%",
"   ..oooX.  ..         .Xo+++OoX..     .X+#$%&**&%",
"    .XXX..             .o+###+OX.       ..o+#$$%&%",
"    ...X..     ..      .oO++Oo..          ..oO+##$",
"    .X...               .XXX.               ..ooO#",
"    ....                 .           ..        .XO",
"     ...                 ....    . ....         .X",
"     ....   ..           ..XX..   ..X...          ",
"    ......               ..ooX..   ..ooX...       ",
"                          ..XX..   .XO++OoX     . ",
"                            ....   .X++#+OX.   .XX",
"                             .XXX..XXOOOOoo....XO+",
"     ..   .. .               .oooX.....XXoooXXo+#$",
"     . ........               .X... .  .XXoOOO+##$",
"   ..   .......          .... ...       .XoO+#+#$$",
"   .... ....               ..  ..        .Xo+#$%&&",
"    .X... .                        ...    .X+#&*=-",
"   .oOoX.                         ....   .X+#%*;;;",
"   .XoX.                             .  .X+#$&=-:-",
"    ..                                  .o+##%%*==",
"                                        .XXoO++#$%",
"                                           . ..Xo+",
"                                                .X",
"                                                  ",
"                                                  "
};
