/* XPM */
static char *blacksquare[] = {
/* columns rows colors chars-per-pixel */
"50 50 229 2",
"   c #16475F00",
".  c #174A6300",
"X  c #1D476500",
"o  c #1B4B6500",
"O  c #1E4C6C00",
"+  c #144B7100",
"@  c #134B7800",
"#  c #1C4E7100",
"$  c #194F7A00",
"%  c #1C507300",
"&  c #1B547B00",
"*  c #23526A00",
"=  c #20527300",
"-  c #21567C00",
";  c #22597C00",
":  c #2D5D7E00",
">  c #3A647A00",
",  c #1F578700",
"<  c #1E568A00",
"1  c #1D5D9100",
"2  c #1E629900",
"3  c #1B63A800",
"4  c #1F6CBB00",
"5  c #225B8200",
"6  c #225A8B00",
"7  c #255D9100",
"8  c #245E9800",
"9  c #24638A00",
"0  c #26688F00",
"q  c #25609F00",
"w  c #266E9700",
"e  c #28629E00",
"r  c #27719D00",
"t  c #28759D00",
"y  c #3D6B8800",
"u  c #33699900",
"i  c #2366A700",
"p  c #2069AE00",
"a  c #2665B100",
"s  c #2A6AB500",
"d  c #296ABD00",
"f  c #2976A500",
"g  c #2878A100",
"h  c #2A7AAA00",
"j  c #196CC800",
"k  c #1C74D500",
"l  c #1D7DED00",
"z  c #2669C200",
"x  c #2A6BC100",
"c  c #2D6FC800",
"v  c #2170C000",
"b  c #2E70CA00",
"n  c #2A71D400",
"m  c #306FC600",
"M  c #3171C900",
"N  c #3173D300",
"B  c #217DED00",
"V  c #267EF200",
"C  c #207DFA00",
"Z  c #287EF300",
"A  c #3579E200",
"S  c #387EEE00",
"D  c #3777F000",
"F  c #377FFC00",
"G  c #3A7CF300",
"H  c #3D7EFB00",
"J  c #4D738500",
"K  c #4A748E00",
"L  c #5D7F8E00",
"P  c #407EFF00",
"I  c #2C81AC00",
"U  c #2D85B300",
"Y  c #2E89BE00",
"T  c #1D8DEE00",
"R  c #1E85F600",
"E  c #1E81F900",
"W  c #1D8CF200",
"Q  c #1F89F900",
"!  c #1B91EF00",
"~  c #1A9CEE00",
"^  c #1C91F000",
"/  c #1F90F900",
"(  c #1B9AF000",
")  c #1CA6F300",
"_  c #1CAAF400",
"`  c #1CB0F400",
"'  c #1BBAF300",
"]  c #2F90C500",
"[  c #339BD400",
"{  c #339FD900",
"}  c #2086F600",
"|  c #2182FA00",
" . c #2088F600",
".. c #218AF900",
"X. c #2B83FC00",
"o. c #2E89FB00",
"O. c #2393F000",
"+. c #2193FA00",
"@. c #229AFA00",
"#. c #2D97F200",
"$. c #2E90FE00",
"%. c #2B98F100",
"&. c #3383FE00",
"*. c #338AFB00",
"=. c #3D84FE00",
"-. c #3C8BFE00",
";. c #3296F400",
":. c #3491F900",
">. c #319BF100",
",. c #3699FD00",
"<. c #3991FD00",
"1. c #3B9EF400",
"2. c #3D9BFC00",
"3. c #34A3DC00",
"4. c #26A5FE00",
"5. c #24A8FC00",
"6. c #2BA6FC00",
"7. c #29ACFE00",
"8. c #2CB4FC00",
"9. c #2CBAFB00",
"0. c #34A6E600",
"q. c #37ABE300",
"w. c #37AFE800",
"e. c #38A7EA00",
"r. c #38AFEB00",
"t. c #33A4FE00",
"y. c #33AFF200",
"u. c #31AAFC00",
"i. c #3CA1F200",
"p. c #3EA3FF00",
"a. c #3DACFE00",
"s. c #33B1F700",
"d. c #32B4FC00",
"f. c #32B8FA00",
"g. c #39B5F000",
"h. c #3BB3FD00",
"j. c #3EB9FF00",
"k. c #19C1EE00",
"l. c #19C8EF00",
"z. c #1AC1F200",
"x. c #17D6EC00",
"c. c #17DAED00",
"v. c #18D4ED00",
"b. c #18DCED00",
"n. c #1DD9F200",
"m. c #17E0ED00",
"M. c #1DE2F300",
"N. c #1FEFF700",
"B. c #2BC3FA00",
"V. c #29CAFA00",
"C. c #26D5F900",
"Z. c #25DBF800",
"A. c #28D0FA00",
"S. c #22E5F700",
"D. c #22E3F800",
"F. c #21E9F600",
"G. c #20ECF800",
"H. c #20F0F600",
"J. c #6C8A9400",
"K. c #7694A300",
"L. c #7A97A600",
"P. c #799BB800",
"I. c #4083FE00",
"U. c #4388FF00",
"Y. c #4B8DFF00",
"T. c #4695FC00",
"R. c #4D90FF00",
"E. c #508FFF00",
"W. c #5392FF00",
"Q. c #5198FD00",
"!. c #5995FF00",
"~. c #5D99FF00",
"^. c #4BA4F500",
"/. c #4BA4F900",
"(. c #40B6FF00",
"). c #5AA2FC00",
"_. c #5AA9F900",
"`. c #619DFE00",
"'. c #689EFF00",
"]. c #61A6FB00",
"[. c #6AA1FF00",
"{. c #69ABFC00",
"}. c #65B3F500",
"|. c #6CB7F600",
" X c #6EB0FA00",
".X c #75A8FF00",
"XX c #7BABFF00",
"oX c #75B7FA00",
"OX c #72B9F700",
"+X c #7DB5FC00",
"@X c #7ABEF600",
"#X c #7FC1F700",
"$X c #83A3BE00",
"%X c #95ADBE00",
"&X c #83B3FE00",
"*X c #80B8FC00",
"=X c #8BB6FF00",
"-X c #8DB9FE00",
";X c #94BBFF00",
":X c #99BEFF00",
">X c #ABBDC500",
",X c #82C3F700",
"<X c #97C2FE00",
"1X c #9EC4FF00",
"2X c #B0C0C400",
"3X c #BBCAD200",
"4X c #BFCED900",
"5X c #A2C6FE00",
"6X c #A6C8FF00",
"7X c #AACBFF00",
"8X c #BDCFE200",
"9X c #BFD0E300",
"0X c #B5D4FE00",
"qX c #BAD4FF00",
"wX c #C5CDD200",
"eX c #C5D1DB00",
"rX c #CAD7DF00",
"tX c #C4DDFE00",
"yX c #CADEFF00",
"uX c #CDE2FE00",
"iX c #D6E0E600",
"pX c #D9E1E400",
"aX c #D1E1FF00",
"sX c #DCEBFE00",
"dX c #E2EDFE00",
"fX c #E4F0FE00",
"gX c #E8F0FF00",
"hX c #F5F9FF00",
"jX c #FEFEFF00",
/* pixels */
"jXjXjXjXjX0XQ.>.%.%.i.>.;.:.*.U.R.Y.W.Y.R.W.R.W.R.W.R.R.R.E.E.Y.R.W.E.W.E.W.W.R.W.R.W.[.aXjXjXjXjXjX",
"jXjXjXjX0X2.! ! ^ ^ ! W R C X.&.-.=.&.&.&.&.&.=.=.=.=.&.&.X.X.&.&.=.&.I.=.=.=.=.=.=.=.=..XsXjXjXjXjX",
"jXjXjX0X1.O.! ! ! ! W R | X.&.=.&.X.| | | | | &.=.=.&.X.| | C | | | &.=.=.=.=.=.=.=.=.=.U.&XgXjXjXjX",
"jXjX0X1.O.! ! ! ! ! Q C X.&.I.&.X.| | | E E | | X.=.X.R E | | | | | | &.=.=.=.=.=.=.=.=.=.Y.5XhXjXjX",
"jXuX/.O.W ! ! ! ! R } X.=.I.&.| E | V k j k l | X.&.X.| E C C C C E E &.=.U.=.=.=.=.-.I.=.=.!.qXjXjX",
"uX_.O.! W ! ! !  .| X.=.I.I.&.C | Z i & u u 3 V &.=.&.Z v 2 1 2 d B | &.=.I.=.=.-.=.=.=.=.=.=.[.aXjX",
"|.O.! W W ~ ! ..| | &.U.=.=.&.F &.n $ J.eXwXP.n &.P G s ; X . . % p Z &.=.=.=.=.=.I.=.=.=.=.-.I.&XdX",
"1.( ! ! ! ! W  .| | &.I.=.=.=.=.&.M @ >XjXjX8Xz H P P 7 . 5 K y * 6 G =.=.-.=.=.=.=.=.=.=.=.I.=.Y.:X",
"#.^ ^ ^ ! ! W R | | &.I.=.I.=.I.I.b @ >XjXjX8Xz G H H 6 > %XrX4XK.6 D P I.I.-.I.=.=.=.I.=.I.=.=.=.~.",
"#.W ^ ^ ! ! ^ ..C | =.I.=.=.=.=.=.b @ >XjXjXeXz F P G 6 J iXjXjX>X, D P -.=.=.=.-.=.=.=.=.-.=.=.=.Y.",
"%.^ ^ ^ ! W W | | C &.P H =.=.=.H c $ K.iXpX$Xz H P H 8 * L.3X>XL 7 G I.=.=.=.=.I.=.=.=.=.=.=.=.=.Y.",
"%.^ ^ ^ ! ! R | C X.-.-.-.=.P I.=.N 5 o K J 5 N =.H I.M 6 + + + 6 m H H I.=.=.=.=.=.-.I.=.=.=.=.=.Y.",
"%.^ ^ ^ ^ ^ R C C @.9.B.B.u.<.I.I.S i # # # q G P =.=.H S d a d A H =.=.=.=.=.=.=.=.=.=.=.=.=.=.=.Y.",
"%.^ ^ ^ ! W R Q _ Z.F.F.F.S.V.<.H I.S m a c S =.=.=.=.=.I.H I.I.I.=.=.=.=.=.I.I.I.=.=.=.=.I.-.I.=.Y.",
"%.^ ^ ^ ! W Q ' c.M.N.F.F.F.F.C.<.H P I.H =.I.H =.=.=.=.=.I.I.I.=.=.=.=.H I.=.=.=.=.I.=.=.=.=.=.=.Y.",
"%.^ ^ ^ ^ ^ ) x.m.M.S.F.F.S.G.F.B.-.P I.I.I.=.=.=.=.=.=.=.=.=.H =.=.=.=.I.<.u.u.u.<.I.=.=.=.=.=.=.Y.",
"%.^ ^ ^ T ! k.b.b.M.S.F.S.F.F.G.Z.<.H =.=.=.=.&.I.U.=.=.=.I.=.=.=.=.=.=.d.C.Z.S.D.Z.8.-.=.=.=.=.=.Y.",
"%.^ ^ ^ T ~ x.c.b.M.S.S.F.F.F.G.F.u.=.=.=.I.=.T.p.a.a.p.<.I.=.I.=.=.=.u.Z.H.G.F.F.H.F.8.=.I.=.=.=.Y.",
"%.^ ^ ^ W ~ x.c.b.M.S.F.S.F.F.F.S.d.-.I.=.-.p.e.U g I 3.h.2.-.=.=.P -.Z.H.S.F.S.F.F.G.Z.<.=.=.=.=.Y.",
"%.^ ^ ^ T ~ x.c.b.M.S.F.S.S.F.F.S.8.-.H -.p.r.t O o X 9 3.j.T.=.=.H -.D.H.N.S.F.S.F.G.S.<.=.I.=.=.Y.",
"%.^ ^ ^ W ~ v.b.b.M.S.S.F.S.F.F.F.u.=.P <.h.Y O = = = X f g.a.<.=.P =.9.N.H.F.F.F.F.G.V.-.H =.=.=.Y.",
"%.^ ^ ^ W ! l.b.b.M.F.S.F.S.S.F.S.,.H =./.w.t O = = = = 5 3.(.2.=.=.=.-.B.S.F.H.F.S.V.,.=.=.=.I.=.Y.",
"%.W ^ ^ T T _ n.m.M.S.F.F.F.F.F.B.-.P =.p.0.w # = = = = - [ (.2.H =.=.I.-.7.B.V.V.f.<.H =.=.=.=.=.Y.",
"%.^ ^ ^ ! W ..k.m.M.F.S.F.F.N.Z.,.=.=.=.p.g.h O = = % O 0 q.d.,.H =.=.=.I.I.=.=.=.I.=.=.=.=.=.=.=.Y.",
"%.! ^ ^ ^ W R / k.Z.F.F.F.F.C.t.=.I.I.&.2.h.[ ; O O O # Y d.7.$.&.I.I.=.=.I.I.I.H =.=.=.=.=.-.=.=.Y.",
"%.! ^ ^ ^ W C | } 6.V.Z.V.f.<.=.=.=.I.=.o.6.f.] 5 = - U y.8.@.X.=.=.=.=.=.=.=.=.=.=.=.=.=.I.=.=.=.Y.",
"%.^ ^ ^ ^ W | R C &.-.-.<.=.=.=.=.=.=.=.X...5.8.0.{ 0.y.8.@.Q X.=.=.I.=.-.=.=.=.=.=.-.=.=.I.=.I.-.Y.",
"%.! ^ ^ ^ W | | C &.I.P P =.I.=.=.=.I.&.X.E ..@.4.8.7.4./ R C X.=.=.=.-.I.=.=.=.=.=.=.=.=.=.&.&.&.-.",
"%.! ! ! ^ W ..C | &.=.-.-.=.=.=.=.=.I.&.X.C C E Q ..Q Q E E | &.I.=.=.=.=.=.=.=.=.=.-.=.&.| X.| C *.",
"%.! ! ! ^ W | R E &.=.=.=.=.=.=.=.=.I.I.X.X.| R C C C C E | &.I.I.=.=.=.=.I.-.=.=.=.=.&.| R E | R o.",
"! ^ ! ! ^ W | E E &.=.=.=.=.=.=.=.=.I.=.=.X.| | C | C | | &.=.=.=.-.I.=.=.I.=.=.=.=.&.X.| C | R C o.",
"#X#X#X#X,XOXo.C E &.=.=.=.=.=.Y.=X;X-X;X.X<.| | C R ..{.-X=X-X;XXXI.=.=.-.=.=.=.=.=.U.`.+X+X+X+X+X+X",
"jXjXjXjXjXdX<.C | X.=.=.=.=.=.!.gXjXjXjXtXQ.E | | | -.yXjXjXjXjXyXU.=.=.=.-.=.=.=.=.E.6XjXjXjXjXjXjX",
"jXjXjXjXjXsX:.| Z X.=.=.=.-.=.!.dXjXjXjX0XU.E E | &.Y.aXjXjXjXjXyXU.=.=.=.=.=.=.=.=.Y.7XjXjXjXjXjXjX",
"jXjXjXjXjXsX<.E E X.=.=.=.=.=.!.dXjXjXjX0X*.E C X.&.Y.yXjXjXjXjXtX=.=.=.=.=.=.=.=.I.Y.6XhXjXjXjXjXjX",
"jXjXjXjXjXsX:.| C X.=.=.=.=.=.!.dXjXjXjX7Xo.E | X.&.Y.aXjXjXjXjXyXY.=.I.U.=.=.=.=.-.Y.6XjXjXjXjXjXjX",
"jXjXjXjXjXsX<.E E &.=.=.=.-.=.!.dXjXjXjX7XX.R C X.&.Y.aXjXjXjXjXyXY.=.=.=.=.=.=.=.=.Y.6XjXjXjXjXjXjX",
"jXjXjXjXjXsX<.R | X.=.=.=.=.=.!.dXjXjXjX7X*.R C X.=.U.aXjXjXjXjXtXI.-.=.=.=.=.=.I.I.Y.6XhXjXjXjXjXjX",
"jXjXjXjXjXsX<.| R X.=.=.=.=.=.!.dXjXjXjX7X*.E E X.=.Y.aXjXjXjXjXyXI.=.=.=.=.=.I.=.-.Y.6XjXjXjXjXjXjX",
"}.}.}.}.{._.X.C C &.=.=.-.=.=.W.dXjXjXjX6X*.E C X.&.Y.aXjXjXjXjXyXY.=.=.=.=.=.-.=.=.W.6XjXjXjXjXjXjX",
"O.^ ! W | | | C R &.=.=.=.=.=.!.dXjXjXjX7X*.E E X.=.U.:XaXdXhXjXtX-.=.=.=.=.=.=.I.=.Y.'.=X=X=X=X=X=X",
"%.^ ! W  .| | C | &.=.-.=.=.=.!.dXjXjXjX7XX.E | X.=.=.Y.~.=XsXjXyXY.=.=.=.=.=.=.=.=.=.=.=.=.=.=.=.U.",
"%.^ ^ W | R E | &.=.=.=.=.=.=.!.dXjXjXjX7Xo.E C Z =.I.-.I.`.yXjXyXU.=.I.=.=.-.=.=.=.-.=.=.=.=.=.=.Y.",
"%.^ ^ W R X.X.&.=.=.=.=.=.=.=.!.dXjXjXjX7X*.C E X.=.=.I.=.'.aXjXyXU.=.=.-.=.=.=.=.=.I.=.-.=.=.=.=.Y.",
"%.^ ! ^ ..&.=.=.I.=.=.I.=.=.=.!.dXjXjXjX6X*.E | &.=.I.=.=.[.aXjXyXU.I.I.=.=.=.=.I.I.=.=.=.I.I.I.=.Y.",
"%.^ ! W | &.I.=.=.=.=.=.=.=.=.!.dXjXjXjX7X*.E | X.=.I.=.H '.aXjXyXU.=.=.=.&.&.=.=.&.*.=.&.I.=.=.=.Y.",
"O.^ ! ! ..X.*.&.X.o.o.X...o.X.T.sXjXjXjX6X*.E C X.&.&.&.&.~.tXjXyX&.X.X.X.| X.| | | | X.X.o.X.&.*.-.",
"%.^ ! ^ W W W W W W W W W Q ^ >.fXjXjXjX1Xo.| | C | | | | -.7XjXtXX.| | | R R } } } ..R R R W W W %.",
"O.^ W ^ ^ ^ ! ! ^ ^ ^ ! ! ! ^ i.sXjXjXjX<Xo.E C | | } | E X.5XjXuXQ R Q W ^ W W ! T W ! ! ^ W ! ! %.",
"i.>.>.>.i.%.%.%.i.%.%.i.%.%.%.^.fXjXjXjX1X<.*.:.*.<.*.<.:.<.5XjXsX).>.%.%.i.%.%.%.i.>.>.%.>.>.%.%.i."
};
