/* XPM */
static char *bordersquare[] = {
/* columns rows colors chars-per-pixel */
"50 50 136 2",
"   c #5C754600",
".  c #5D754800",
"X  c #5B7B4500",
"o  c #5E7A4900",
"O  c #60764B00",
"+  c #627D4D00",
"@  c #647E5000",
"#  c #4F9E3400",
"$  c #57873F00",
"%  c #568A3D00",
"&  c #51973700",
"*  c #54933A00",
"=  c #509C3600",
"-  c #549A3900",
";  c #599D3E00",
":  c #4BAC2E00",
">  c #4EA33200",
",  c #4EAC3000",
"<  c #4CB32D00",
"1  c #4EB82F00",
"2  c #4EB43000",
"3  c #50A43400",
"4  c #56A43900",
"5  c #53AC3500",
"6  c #55A93800",
"7  c #58A13D00",
"8  c #5AAD3A00",
"9  c #50B52F00",
"0  c #52B82F00",
"q  c #50B23200",
"w  c #55BA3200",
"e  c #58B63700",
"r  c #5CB33C00",
"t  c #58BC3300",
"y  c #5BBB3800",
"u  c #60BE3E00",
"i  c #56864000",
"p  c #5A834300",
"a  c #5F804800",
"s  c #5C8D4500",
"d  c #5E8B4800",
"f  c #5D934400",
"g  c #5B994100",
"h  c #5EA74100",
"j  c #63824D00",
"k  c #608F4700",
"l  c #628A4B00",
"z  c #66805000",
"x  c #668C5000",
"c  c #688B5100",
"v  c #61964700",
"b  c #65924D00",
"n  c #659D4900",
"m  c #66925000",
"M  c #67985000",
"N  c #68935100",
"B  c #699B5100",
"V  c #63A14700",
"C  c #66A24B00",
"Z  c #62AC4400",
"A  c #66AC4B00",
"S  c #69A84E00",
"D  c #6BA35200",
"F  c #6EAA5400",
"G  c #62B44200",
"H  c #67B34800",
"J  c #6CB74D00",
"K  c #69BF4700",
"L  c #6ABB4A00",
"P  c #6EB65300",
"I  c #6EBA5200",
"U  c #70AD5600",
"Y  c #71AA5900",
"T  c #71B45600",
"R  c #73B65900",
"E  c #71B95600",
"W  c #73BA5900",
"Q  c #78BD5E00",
"!  c #7BBF6100",
"~  c #5BC33400",
"^  c #5ECA3400",
"/  c #62C43C00",
"(  c #60CC3500",
")  c #64CA3B00",
"_  c #68CE3C00",
"`  c #61D03500",
"'  c #67D13A00",
"]  c #6CD23D00",
"[  c #66C44100",
"{  c #67C84000",
"}  c #68C34400",
"|  c #6CC34A00",
" . c #6ACB4200",
".. c #70C34E00",
"X. c #73C35300",
"o. c #75C15900",
"O. c #76CC5200",
"+. c #7BCE5800",
"@. c #72D54200",
"#. c #75D34A00",
"$. c #73D84400",
"%. c #78D44C00",
"&. c #7BDA4700",
"*. c #7BDA4A00",
"=. c #7DC26400",
"-. c #82DD4E00",
";. c #84DD5400",
":. c #8ADF5A00",
">. c #80C36400",
",. c #83C56A00",
"<. c #81C96700",
"1. c #84C86A00",
"2. c #88C76F00",
"3. c #88C96E00",
"4. c #8CCD7300",
"5. c #82D16100",
"6. c #89DC6100",
"7. c #8FDB6900",
"8. c #8DD17300",
"9. c #90CF7900",
"0. c #92DD6D00",
"q. c #90D17600",
"w. c #93D27B00",
"e. c #96DE7300",
"r. c #97DD7900",
"t. c #9ADD7D00",
"y. c #85E15100",
"u. c #88E05800",
"i. c #8FE16100",
"p. c #98D58000",
"a. c #9CD98400",
"s. c #9FDB8800",
"d. c #A1DD8A00",
"f. c #A5DF9000",
"g. c #A4E08E00",
"h. c #A6E19200",
/* pixels */
"j j j j j j j j j j j j j j j j l j j j j j j j j j j j j j j j z j z z j j j j j j j j j j j j j j ",
"j j j j j j j j j j j j j j j j j j j j j j j j j j j j j j f g f d d j j j j j j j j j j j j j j j ",
"j j j j j j j @ + j j j j j j j j j j j j j j j j j j j j @ g q q 5 5 7 d j j j + j l a j j j j j j ",
"j j k 7 4 ; ; g k j j j j j j j l j j j j j j j j j l j j j ; 1 q 1 1 5 l j j z B D ! Y m j j j j j ",
"j j f q 1 2 q 6 v + + + j j j j + + j j l l j j j j @ j + j f 6 5 5 2 6 j + a B I <.7.5.E b + j j j ",
"j j g e 2 q q 3 f x B D D B N l v ; ; 4 4 f + j j l f g f f f b d f f f j j m J  .;.i.u.%.A j j j j ",
"j @ g q q q 2 6 C U R W W W T S 6 9 9 9 q ; j j j g q q 5 5 7 l @ @ @ @ j j b | @.*.y.y.%.H j j j a ",
"j j g q 2 q q r E W E E E E R X.u 9 q q < 4 + @ j g q q q q 6 f j j j j j j m | ' #.y.;.%.A j j j j ",
"j j 7 q q 2 w / W E R Q Q R R R { t q 2 2 = o @ j 7 q q q q 4 d j j j j j j l H ~ _ #.$. .C o j l j ",
"@ j 4 q q q ~ / E W ,.q.w.3.Q R } ~ w 5 : # X + j 7 q q q q 4 l j j j j j j j g t ~ ( ^ w f j j j j ",
"j j 4 2 5 q ~ [ W 3.s.g.d.d.9.Q } ) t , : > p + j 7 q q e t r D b x x a j j j s 3 q 5 5 4 s j j j j ",
"j j 6 q q w ^ [ =.a.g.s.d.d.d.1.| ( t : : > i . j 4 q t ^ ( [ I W R B j + j j s & * % p p l j j j j ",
"j j 6 2 q t ( } 2.d.d.d.d.d.g.q.X.) ~ : : , % o j 6 ~ ( ( ( } E W E W F j + j 3 : > # & s j j j j j ",
"j l 6 2 , t ( | 2.g.d.d.s.d.g.w.X.) ~ : : , * . l r ^ ( ^ ( O.=.R R E W B j d 3 : : : : * j j j j j ",
"j d 5 q q w ^ K ,.d.d.d.s.d.d.3.W ) t 3 # & i . l / ` ^ ] &.i.s.t.,.E W T x * 5 : : : : s j j j j j ",
"j f 5 2 q w ~ | W q.d.d.d.d.a.=.E E n p X X   + N ~ ` ' *.-.e.h.g.w.Q W T B ; : : : : # p j j j j j ",
"j f 5 q q q y ..T Q 4.t.a.w.,.R E U c O .     o B L | <.0.0.t.g.d.s.8.E T D 5 , , : : & a j j j z j ",
"j f q q q < r J W R R =.=.Q I E R B + +       + B R R 9.g.s.s.s.s.s.q.E E S q : , : : * + j j j j j ",
"j g q q q 1 6 V T W E E E E R R D j k s p     + b R W 3.s.d.d.d.h.a.=.E T Z 5 , : : > % o j j l j j ",
"j k f g g ; f l N F E W W E T A g - 4 5 -   . + l T W W 8.d.g.g.s.8.! R E 6 2 , : : # i o j j j j j ",
"j j j j j + j j j l B D F B N ; q q 1 1 3 p + + j B R E Q 3.w.q.3.! P W F g 6 , : : - X + j j j j j ",
"j j j j j j j j j j j + + @ + f q q q q 6 f j j j j F R E E W W E E E F l z f g # > % o j j j j j j ",
"j j j j j j j j j j j j j j j d 5 q q q 5 ; + j j j l D T T E E R T F x j z j @ . X X o j j j j j l ",
"j j j j j j j j .   + j j j j l 4 q q q q 7 j j j j j j x D F F D m j a x a j j + o o o j j j j j j ",
"j j j j l j j a     X j j j j j 7 2 q q q 4 j j j j j j j j j j j j j j j j j j z d j j j j j j j j ",
"j j j j j j + p % % p a j j j j ; q q q q 5 d j j j j j j j j j j j j j j j j j j j z z j j j j j j ",
"j j j j j j + p # > > > ; f j @ g q q q q q f j j j j j j j j j a j j j j j z j z a j @ z a j j j j ",
"j j j j j j + i : : < < 2 f j j d 6 q q q q g j j j j j j j j j j j j @ j f 4 4 g g f d z z j j j j ",
"j j j j j j + % : : : : q l j j l 7 2 q q 2 7 j j j j j j j j j j j j j d g q q q q 6 h 7 7 6 ; l z ",
"j j j j j j a * : : : : 5 l @ j j 7 2 q q 2 6 j + j j j j j j j j j j j j g q q 2 2 2 2 2 2 1 5 j a ",
"j j j j j j d # : : : 2 4 j j j j ; 2 q w t r n l + d f v g g l j j j j l h q q q q 2 q q q 2 6 j j ",
"j j j j j + s > : , : , g j j j + f r ~ ^ ^ ) L Y B 6 5 6 5 < ; @ j j @ d 3 2 q 5 q q q q q 2 4 j j ",
"j j l j j @ s : : : : 5 s j j j j C [ ' ^ ^ ^ } o.T y 2 2 5 2 ; j z o o j 5 2 q q q q q q q q 6 j + ",
"j j j j j l h 0 : > : 5 j j j j M E { ^ ^ ' ' ) E W ) t 2 5 2 g z a   o d 5 2 q q q q 2 2 q 2 6 j j ",
"j j j j N F [ ^ 0 2 : 4 j + j l F W } ^ ] *.*.%.! E ) ^ e 2 1 g j o   . s q 2 q q 6 5 q e q 2 7 j j ",
"j j j j F X. .' ^ t q ; j j j N T W | %.6.i.r.a.w.! ) ( w 2 2 g @ X . X s q q q q 6 g g g g g g j j ",
"j a j j F +.y.$.^ ~ 5 f j j j B R P =.t.d.d.d.d.s.3.{ ^ ~ q 1 7 j o X X f , q q 2 6 d j j j j @ j j ",
"j j j j D | $.] ^ t 6 k j j j D W P 1.a.d.d.d.d.d.4. .^ ~ q q 7 j o . X * 2 q q 2 7 l j j j j j l j ",
"j j j j l r ^ / w 2 6 j j j j Z ) ) @.-.0.d.d.d.s.3.{ ^ ~ q 2 g o o . X = q q 5 2 g j j j j j j j j ",
"; 6 f j j d 7 6 q q 7 j @ j j 8 ^ ) ^ ] 6.d.d.s.p.! ) ^ y q 2 7 z o . X > 2 q 2 2 ; j j j j j j a j ",
"q 9 7 j j j j l l f k j j j j 7 ~ ( ( ` #.8.w.4.=.E ) ^ w q 9 7 j o . X > 2 2 t t G D x j j j j j j ",
"q 9 6 l + j j + j + j j j j j ; e ^ ' ^ ) o.Q W T E [ t 5 q q 7 j o . p , q y ^ ] <.=.P b j j j j j ",
"q q q v @ j j j j j j j j j j ; 5 w / ` { I E W W P n f f f f l l + . i q y ^ $.*.r.a.<.F l j j l j ",
"q q q f j j j + @ j l d l j + g q 2 0 t y P T F D x + @ @ + j j j j o s 1 ^ ' *.u.t.h.w.W M j j j j ",
"q q 2 g j j l f g 7 4 6 f j j g 5 q q q 8 n N l j j j j j j j j j j j s 8 ) ' *.u.t.h.w.! B j j j j ",
"q q 2 4 l @ k 4 1 q < q 7 j j f q q q 2 5 f + j j j j j j j j j j j j d f L | 6.e.s.h.q.R b j j j j ",
"q q q q v @ j 7 < q q 1 5 j @ f 5 q 5 5 6 f j j j j j j j j j l j j j j z B E 3.t.s.w.<.F l j j j j ",
"q q 5 5 f z j g q q 5 6 4 j j l f g g f d l j j j j j j j j j j j j j j a z D T =.3.! F b + j j j j ",
"; ; f l j j j d ; f d l j j j j j j j j j j j j j j j j j j j j j j j j l j j b D F B l j j j j j j ",
"j j j j j j j j l j j j j j j j j j j j j j j j j j j j j j j j j j j j j j j l j j j j j j j j j j "
};
