/* XPM */
static char *bordersquare[] = {
/* columns rows colors chars-per-pixel */
"50 50 28 1",
"  c #EC9E24",
". c #ECA026",
"X c #ECA12B",
"o c #EDA533",
"O c #EDA738",
"+ c #EEA83B",
"@ c #EEAC43",
"# c #EFAE49",
"$ c #EFB04C",
"% c #EFB250",
"& c #F0AE49",
"* c #F0B04D",
"= c #F0B353",
"- c #F0B65A",
"; c #F1B85E",
": c #F1BA63",
"> c #F2BD6B",
", c #F2BF70",
"< c #F2C06F",
"1 c #F2C173",
"2 c #F3C47B",
"3 c #F3C680",
"4 c #F4C884",
"5 c #F4CB8B",
"6 c #F5CE91",
"7 c #F5D095",
"8 c #F6D29A",
"9 c #F7D5A1",
/* pixels */
"                      ..XXXoXoooOO+++@@@@@**$$$$==",
"                     .XXXoXoooOO+++++@@@*@@*$$====",
"                    .XX.XXooooOO++@+@@&@#@**$====-",
"                  .  XXXooooo+O++@++@@@*****$====-",
"                  .XXXXooooOOO+++@++@###**$====---",
"                 ..XXooXoooO+++++@*##@#***$====---",
"                XXXXXXoooOOOO+@@+@@@##*$*$====---;",
"               ..XXXooooOoO+++@+@@###***$====---;;",
"              ..XXXXooooOO++++#@@@##***=====----;;",
"             .XXXXooooOoO+++@@@@@##$$**===----;;;:",
"            .X.XXoooooO+++++@@@*##*&**===-=--;;:::",
"            .XXXXoooOO++++@@@@@@*$***====---;;;;::",
"          .XXXXoooooo++++++@###**&*=====---;;;::::",
"          .XXooXoooO++++@@#@#@@*&*=====---;;:::>>>",
"         .XXXXoooo++++++@@@###***====----;;::::::>",
"        .XXXooooOOo+++@@@@@##$*$*====---;;;:;:>>><",
"       XXXXXoooo+O+++@@@#@###*$$==%=-;-;;;::::>>>>",
"    . XXXXooooOOO+++@++#@##$$**=%%----;;;::::>>><<",
"    ..XXooooooO++++@@@@@###$$===----;;;;::::>>>,<1",
"   X.XXXoXooOOO++++@@@##$*$*$===%--;;;;::::>>>,,<1",
"  ..XXXXooooOO++@@@@@###$&$$===-----;::::>:>>,>,11",
" X.XXXoooooOO+++@+@@@###&$=====---;;:::::>>>>11111",
"XXXXXooooOOOO++@@@@@##$*======--;-;;::::>>>,111111",
".XXXXoooOOO++@+@@@###$$$$===-----;;:::>:>>,,>11122",
".XXoooooOO+++@@@@&#####%===----;;;:::>>>>><1111122",
"XooXooOoO++@+@@@&###=%=====---;;::::>:>><><1112222",
"XooooOOOO+++@@@@&&#%%%====---;;:::::>>><1111212224",
"XooooOOO++@@@@#&&##=#====---;;;:::>>>>>>>111222222",
"ooooOO+++@@@#&####=======--;;;::::>>>>>11112222242",
"ooOOO++@@@@@@##&#=#===----;;::::>:>>>>111112222244",
"oOOO@+++@@@###%#%%====--;;;:::::>>>>11111122244244",
"oO+++++@@@##&#&#%===-=--;;:::::>>><>11112222224444",
"OO+++@@#+*@***&*=%==---:;;:::>>>>>1>11112223334445",
"OO+++@#+@*#***====-----;:;:::>:>>11111222222444455",
"+@+@@@@@###*$=*==-=-;;;::::>>>>>>11112222234444555",
"+++@@+*#&****====---;;;;:::>>>1>111112222434444555",
"++@@#*@****======-;;;;:::>>>>>>1111122233344455555",
"@@+@@@*&$**===----;;::::>:>><>11112222223444555566",
"+@@@*@$$$====----;;:::::>>>>>1<1221222344444555566",
"&@*##*$$*=====--;;::::>>>>>11111122223444555555666",
"#@##$*$*===-----;;;::>:>><<11111222233344555556668",
"###$$$=====----;;::>:>>><<111122223344444555666666",
"##$$*$*===---;;::::>>>>>>1111222223344455555666668",
"##$*====----;;;:::>:>>>1<1111222243444545556666888",
"$$$*$=-----;;:;:::>>>>1>11122222334445555666868688",
"$$*====---;;;:::>:>>>>1111122224444445556666688889",
"**==%----;;;::<:>>>>111112224224444555556666688888",
"=*=------;:;:::<>><>112111222244444555666686888899",
"====---;;;:::>>>>><<111222222442455555666868888999",
"==----;;;;>::>>><<<1111222224445455566666888888999"
};
