/* XPM */
static char *bordersquare[] = {
/* columns rows colors chars-per-pixel */
"50 50 4 1",
"  c #EBAA41",
". c #FFB241",
"X c #FFBA59",
"o c #FFC365",
/* pixels */
"Xo ...Xo ..Xoo ...X ..XXXoo .....Xo ..XXoo ...XXo ",
"Xoo ..Xo ..Xoo ...X ..XXXoo ..X..Xo XXXXoo ..XXXo ",
"XooXXXXo ..Xoo ...X ..XXXo .X.XX.Xo ..XXoo ...XXo ",
"Xoo XXXo ..Xoo ...X ..XXXo ..XX..Xo ..XXoo ...XXo ",
"Xoo .XXo ..Xoo ...X ...XXX .XX.X.Xo ..XXoo ..XXXo ",
"Xoo XXXo XXXoo ...X ...XXo ...X..X ...XXoo ...XXo ",
"Xoo .XXo ..Xoo ..XX ..XXXX ..X..XX ...XXoo ...XXo ",
"Xoo .Xoo .XXoo ..XX ...XXo ..XX.XX .XX.Xoo ...XXX ",
"Xoo .Xoo XXXX  ..XX ...XXo ..X..XX ....Xoo ..XXXo ",
"Xoo .Xoo .XXo ..XXo ...XXo .....XX ..XXXoo ...XXX ",
"Xoo .Xo  .XXo ..XX ....XXo ..XXXXX ..XXXoo ...XXX ",
"Xoo .Xo ..XXo .XXX ....XXo ..XXXXX .XXXXoo ....XX ",
"Xoo .Xo ..XXo ..XXX...XXXo ...X.XX .XXXXoo ...XXX ",
"Xoo .Xo ...Xo ...X ..X.XXo ...XXXo ...Xooo ...XXo ",
"Xoo .Xo ...Xo ..XX ..X.XXo ..X.XXo ...Xooo ..XXXo ",
"Xoo .Xo ...Xo .X.o .XX.XXo ..XXXXo ...Xooo ...XXo ",
"Xoo .Xo ...Xo ...oo.XXXXXo ..XXXXo ..XXooo ...XXo ",
"Xoo .Xo ...Xo ...ooXXX.XXo .XX.XXo ..XXooo ...XXo ",
"Xoo .Xo ...Xo ...o .XX.XXo ..XXXXo ..XXooo .XXXXo ",
"Xoo .Xo ...Xo ...X ..X.XXo ..X.XXo ..XXooo ...XXo ",
"XooX.Xo ...Xo ..oX XXXXXXo ..XXXXo .XXXooo ...XXo ",
"XoXX.Xo ...X  ..oo .XX.XXo ....Xoo .X.Xooo ..XXXo ",
"Xoo XXo ...X ...oX ..XXXoo ..XXXoo ...Xooo ...XXo ",
"XooX.Xo ...X ...oX .X.XXoo ..X.Xoo ..XXoo  ...XXo ",
"Xoo XXo ...X .oXoX ...XXoo ..XXXoo ..XXoo ...XXXo ",
"Xoo .Xo ...X ..oXo ...XXoo ...XXoo ...Xoo ..X.XXo ",
"Xoo .Xo ...X ..Xoo ...XXoo ...XXoo .X.Xoo ...XXXo ",
"Xoo .Xo ..XX ...oo ...XXoo ...XXoo ..XXoo ..X.XXo ",
"Xoo .XoX.XXX ..oo ....XXo ....XXoo ..XXoo ..X.Xoo ",
"Xo ..Xo X.XX ...o .XXXXXo ....XXoo ..Xooo ..X.Xoo ",
"Xo ..Xo XXXo .o.o ..XXXX .....XXo X..Xooo .XX.Xoo ",
"Xo ..Xo XXXo ...oo..XXXX ..XXXXoo .XXXooo ..X.Xoo ",
"Xo ..Xo X.Xo ...X ...XXo o..X.Xoo ...Xooo .XX.Xoo ",
"Xo ..Xo XXXo ...X ..XXoo ...XXXoo ..XXooo .XX.Xoo ",
"oo ..Xo ..Xo ...X ....XX ...X.Xoo ..XXooo ....Xoo ",
"oo ..Xo X.Xo ...X ..XXXX ..XX.Xoo .XXXooo .XX.Xoo ",
"oo ..Xo XXXo ..XX ...XXX ...X.Xoo .X.Xooo ..X.Xoo ",
"oo ..Xo X.Xo ..XX ...XXX ...XXXoo .XXXooo ..XXXoo ",
"ooo .XoXX.Xo ..Xo ....Xo ...X.Xo  ...Xooo ..X.XXo ",
"ooo .X  X.Xo .XXo ...ooo ..XX.Xo ..XXXooo ...XXoo ",
"ooo .X ...Xo XXXo ....Xo ...X.Xo ..X.Xooo ..XXXoo ",
"ooo .X ...Xo XXXo ....Xo ...XXXo ..XXXooo ...XXoo ",
"ooo .X ...Xo ..Xo ....Xo ...XXXo ..XXXooo ..X.Xoo ",
"ooo .X ...Xo .XXo ....Xo ...XXXo ...XXXoo ....Xo .",
"oo ..X ...Xo ..Xo .XX.Xo ....Xoo ..X.Xooo .XXXXo .",
"oo ..X ...Xo ..Xo .XXXXo ....Xoo ...XXooo ..X.Xo .",
"oo XXX ...Xo ..Xo X.XXXo ....Xoo ..XXXooo ..X.Xo .",
"Xo XXX ...Xo ..Xo ..XXXo ....Xoo .XXXXooo ..X.Xo .",
"X .X.X ...Xo ..Xo ..XXXo .XX.Xoo ..XXXooo ..XXXo .",
"X XX.X ..XXo ..Xo ...XXo ..X.Xoo ...Xoooo ..XXXo ."
};
