/* XPM */
static char *checkmark[] = {
/* columns rows colors chars-per-pixel */
"12 12 6 1",
"  c black",
". c #181818",
"X c #A5A5A5",
"o c #F3F3F3",
"O c gray99",
"+ c gray100",
/* pixels */
"++++++++++++",
"++++++++++++",
"++++++++  ++",
"++++++++  ++",
"+++++++   ++",
"+++++++  +++",
"+++X++  ++++",
"++     .++++",
"++++   +++++",
"++++  o+++++",
"++++++++++++",
"++++++++++++"
};
