/* XPM */
static char *whitesquare[] = {
/* columns rows colors chars-per-pixel */
"50 50 21 1",
"  c #5E5E5E00",
". c #63636300",
"X c #6A6A6A00",
"o c #72727200",
"O c #7B7B7B00",
"+ c #83838300",
"@ c #8B8B8B00",
"# c #92929200",
"$ c #9C9C9C00",
"% c #A3A3A300",
"& c #ABABAB00",
"* c #B3B3B300",
"= c #BBBBBB00",
"- c #C3C3C300",
"; c #CBCBCB00",
": c #D3D3D300",
"> c #DBDBDB00",
", c #E4E4E400",
"< c #ECECEC00",
"1 c #F3F3F300",
"2 c #FDFDFD00",
/* pixels */
"22222222222222222222222222222222222222222222222,>:",
"22222222222222222222222222222222222222222222221,;-",
"22222222222222222222222222222222222222222222221>-&",
"2222222222222222222222222222222222222222222222,-*$",
"12222222222222222222222222222222221<1222222222>-&#",
"122222222222211222222222221222221<,,1222222221>=$@",
",122222222221<1222222222211<111<,,,,2222222221:*$#",
",122222221111122222222222111121<,,122222222221>=$@",
",<222222<1112222222222222222222<<1122222222221:=$#",
",1222221<122222222222222222222211122222222222,;*$#",
",1222221122222222222222222222222122222222222<>-*$@",
",<222222222222222222222222222221222222222221,:-*$#",
",<122122222222222222222222122221222222222221,:-=%#",
",<11212222222222222222221111122222222211,1121,:=%@",
"<1222222222222222222222211222222222221,,,1222,:=$@",
"<2222222222222222222222212222222222211<<222221>=$+",
"<122222222222222222222211122222221112222222221:*#+",
"122222222222222222222221122222222112212222221,;&@O",
"<22222222222222222222211<12222211<1111212221<,;&+O",
"<122222222222222222222211211,<,,,,<1<<<1111121-$+O",
"112222222222222221222221122<,>>,>,111<<<11122<-$+O",
"<12222222222222212222222221,,>,>,<11111111222,-$@+",
"<12222222222222221222222221,,,,<<11111222221<>=%#+",
"112222222222222212222222211,,1222222222222221>;*$#",
"<222222222222221222222111<,<122222222222222222,-&$",
"<12222222222221222211<111<<1222222222222222222<:*$",
"<2222222222222111121<11111222222222222222222221-&$",
",122222222221111<<<,<<112222222222222222222222,-%#",
",12222222222111<,,,,<1122222222221222222222222,=$+",
",12222222222121<1,,,,<222222222211122222222222>*$+",
"12222222222222221<11222222222221,,,2222222222,>*#+",
"1222222222222222111222212222122,>>,1222222211,:*#+",
"1222222222222222112222222222221,::,1222222211,;*#+",
"1122222222222222222222222222221,>>,2222222211,;&#+",
"<122222222221212222222222222222,,,12222222221,:*#+",
"<222222222222122222222222222221,,<22222222221,;*$@",
"122222222222122222222222222222211122222222221,;*$@",
"122222222211222222222222222222221,12222222111,:=$@",
"222222222112222222222222222222221,<2222211111,:=$@",
"22222222112222222222222222222222,,,1222111<<<,>*$+",
"12222222212222222222222222222222,>,122221<,,1,>=#+",
",2222221222222222222122222222221,>,22222211<1,:*#O",
",122221222222222222111222222221,>>,1122222222<;&@o",
",<2222<1222222221<1122222222221,>>,1222222222<;&@O",
">,<11,,,1222221<,,<122222222221,>>,1222222221,-&@O",
":::::;;>,111,,,>>>,,<<11,,,,,,,>:;>>,<,<<,1<,>-%@O",
"---*&%&=:>>:;---=--;::::;;-----=***---;-;;;:--*$@O",
"==&$@@@$&==**&%$%%&***&&%%$$$#$##@##$%%%&&&&&%$#+O",
"-&$@OOO+@#####@@@@@#@++++O+OOooooXoOO++++@@@@@++O+",
"=&#OoXXoooooOOOoooooXXXXX... . .   .XXoXoooO+OOOO+"
};
