/* XPM */
static char *whitesquare[] = {
/* columns rows colors chars-per-pixel */
"48 48 42 1",
"  c #D2AF7E00",
". c #D2B07F00",
"X c #D3B28300",
"o c #D6B58900",
"O c #D7B88C00",
"+ c #D8B78A00",
"@ c #D8B98D00",
"# c #D7B99000",
"$ c #DBBC9300",
"% c #DBBE9800",
"& c #DDC09600",
"* c #DEC19900",
"= c #DEC5A300",
"- c #E1C49D00",
"; c #E2C6A000",
": c #E3C8A400",
"> c #E4CCAB00",
", c #E5CEB000",
"< c #E7D0AF00",
"1 c #E6D0B300",
"2 c #E6D3B900",
"3 c #E8D2B400",
"4 c #EAD5BA00",
"5 c #EAD8BD00",
"6 c #E9D7C000",
"7 c #ECDBC300",
"8 c #EDDEC900",
"9 c #F0DFCB00",
"0 c #EEE0CD00",
"q c #EEE2D100",
"w c #F0E1CD00",
"e c #F1E4D300",
"r c #F3E8D600",
"t c #F3E9DB00",
"y c #F6EDE200",
"u c #F6F0E500",
"i c #F7F1E900",
"p c #F8F0E600",
"a c #F9F3EB00",
"s c #FAF6F100",
"d c #FCF9F500",
"f c #FEFEFE00",
/* pixels */
"ffffffffffffffffffffffffffffffffffffffffffffffff",
"ffffffffffffffffffffffffffffffffffffffffffffffff",
"ffffffffffffffffffffffffffffffffffffffffffffffff",
"ffffffffffffffffffffffffffffffffffffffffffffffff",
"fffffffffffffdffffffffffffffffffffffffffffffffff",
"fffffffffffd940utusfdfffffffffffffffffffffffffff",
"ffffffffffft43wr870eiffdsfffffffffdyyaffffffffff",
"ffffffffffs9>>73:::;3e886yffffdffd8==7ifffffffff",
"ffffffffffu4-;>*++ooo#@@*5issytffi=oO,ifffffffff",
"ffffffffffu>$@$+XX X    XO>44>5yft*XX,ifffffffff",
"fffffffffft;ooooXX XooXXX Xo-:3tfr%oO,tyafffffff",
"ffffffdare,#oXXXXX+$%$+oXXXX$;3ydq=#%6qtadffffff",
"ffffffde>*oXXXXXX@--:--+X XX$;:31>*:30tydfffffff",
"ffffffi3%X XXXX+&-:-:--+XXXo$-@XXo#>358yffffffff",
"fffffd8-+XXXXXo$-:-::-%+XXX+$#oXXXo$-*>tffffffff",
"fffffi>$XXX XX#---:--%-@+XXXoXoXoXoOOX$effffffff",
"ffffde-+ XX X+$;---------@+XoXoXXoooX Oeffffffff",
"ffffd7&XX XXX+$$----:::--@X+XoXooXooXX@0ffffffff",
"ffffa<$XXXXXXXXX@---:----+.Xo.o.XooX  #8sfffffff",
"ffffp>-+XXXooX X@--:-:---@+.XooooXX X #qdfffffff",
"ffffa4:-o#%%OXXX+---------oXXooooXXXX Otffffffff",
"ffffs8>::>%@XXXo&--------$oXXoXXXX.XXXo8ffffffff",
"ffffft74>#XXX XO&-----::@+XXXXXXXXXXX o1yfdfffff",
"fffffdt8%XXXXXXo&-------@oXXX.o+oo$$+.X:tfffffff",
"fffffft>XXXX XXo-:-;---&oXo.o@-@+&$$@XX;tfffffff",
"fffffy1oXXXXX X#--;;;-&++@@+@-----@@o X-0dffffff",
"ffffdq=#XXXXX o*---;--&+$$$$-----@oX X :rfffffff",
"ffffdq6,$XXX Xo$------&$--------%@XXX X>ydffffff",
"fffffsiy4#oooX++@$---------------@o.X.o2sfffffff",
"fffffffs7-+++oXX+---------------%@o.X.o7dfffffff",
"ffffffdy3%$@@+XX@$--------------*$oXXo*wffffffff",
"fffffdt2:&@@$+XX@---:------------#o.o$5yffffffff",
"ffffdr3:-@$$&@XX+$*--*&&-%-----*-&X.X&0dffffffff",
"fffft3:--$$&&$+XXX$$$o+&&----*&&@@XX.*tfffffffff",
"fffd7:;-$@$@@%-$XXXXX.o@$$--%OoXoX.X+5dfffffffff",
"fffd3:;-$&@@@;801*#o..XXoooooX X..o@4dddffffffff",
"fffs4>;-;*#O%6yw7>>3=XXX X X.XX XX@<aaewudffffff",
"ffff0853>=#&2t8>::>372%XX  XX XXXo&wy4:<7affffff",
"ffffsaurr7>7tw>:;;;:7t=OX+%@oooo+&4e4:-:3yffffff",
"fffffffdditaa5:-;:*>8y,$$4t4:**=30ae>-:-3yffffff",
"ffffffffffffa8>--;>7tsq>4ifi088yaffr3:::5iffffff",
"fffffffffffffiww0ruasffasfffaasdffdi8347rdffffff",
"ffffffffffffffddfdfffffffffffffffffdsissdfffffff",
"ffffffffffffffffffffffffffffffffffffffffffffffff",
"ffffffffffffffffffffffffffffffffffffffffffffffff",
"ffffffffffffffffffffffffffffffffffffffffffffffff",
"ffffffffffffffffffffffffffffffffffffffffffffffff",
"ffffffffffffffffffffffffffffffffffffffffffffffff"
};
