/* XPM */
static char *whitesquare[] = {
/* columns rows colors chars-per-pixel */
"50 50 123 2",
"   c #DFDFDF",
".  c #E0DFDF",
"X  c #E0DFE0",
"o  c gray88",
"O  c #E0E1E0",
"+  c #E0E1E1",
"@  c #E1E0E0",
"#  c #E1E1E0",
"$  c #E1E1E1",
"%  c #E2E1E1",
"&  c #E2E2E1",
"*  c #E2E2E2",
"=  c #E2E2E3",
"-  c #E2E3E2",
";  c #E3E3E2",
":  c gray89",
">  c #E3E4E4",
",  c #E4E3E4",
"<  c #E4E4E4",
"1  c #E4E4E5",
"2  c #E4E5E4",
"3  c #E5E4E4",
"4  c #E5E5E4",
"5  c gray90",
"6  c #E5E6E5",
"7  c #E5E6E6",
"8  c #E6E5E5",
"9  c #E6E6E5",
"0  c #E6E6E6",
"q  c #E6E6E7",
"w  c #E6E7E6",
"e  c #E6E7E7",
"r  c #E7E6E7",
"t  c #E7E7E7",
"y  c #E7E7E8",
"u  c #E7E8E7",
"i  c #E7E8E8",
"p  c #E8E8E7",
"a  c gray91",
"s  c #E8E9E9",
"d  c #E9E8E8",
"f  c #E9E8E9",
"g  c #E9E9E9",
"h  c #E9E9EA",
"j  c #E9EAE9",
"k  c #E9EAEA",
"l  c #EAE9EA",
"z  c #EAEAE9",
"x  c #EAEAEA",
"c  c #EAEAEB",
"v  c #EAEBEA",
"b  c #EAEBEB",
"n  c #EBEAEB",
"m  c gray92",
"M  c #EBEBEC",
"N  c #EBECEC",
"B  c #ECEBEB",
"V  c #ECEBEC",
"C  c #ECECEB",
"Z  c #ECECEC",
"A  c #ECECED",
"S  c #ECEDED",
"D  c #EDECED",
"F  c gray93",
"G  c #EDEEED",
"H  c #EEEDED",
"J  c #EEEDEE",
"K  c #EEEEED",
"L  c #EEEEEE",
"P  c #EEEEEF",
"I  c #EEEFEE",
"U  c #EFEEEE",
"Y  c #EFEEEF",
"T  c #EFEFEE",
"R  c #EFEFEF",
"E  c #EFF0EF",
"W  c #EFF0F0",
"Q  c #F0EFEF",
"!  c #F0EFF0",
"~  c #F0F0EF",
"^  c gray94",
"/  c #F0F0F1",
"(  c #F0F1F0",
")  c #F0F1F1",
"_  c #F1F0F0",
"`  c #F1F0F1",
"'  c #F1F1F0",
"]  c #F1F1F1",
"[  c #F1F2F2",
"{  c #F2F1F1",
"}  c #F2F2F1",
"|  c gray95",
" . c #F2F2F3",
".. c #F2F3F2",
"X. c #F2F3F3",
"o. c #F3F3F3",
"O. c #F3F4F3",
"+. c #F3F4F4",
"@. c #F4F3F3",
"#. c #F4F3F4",
"$. c #F4F4F4",
"%. c #F4F4F5",
"&. c #F4F5F5",
"*. c #F5F4F4",
"=. c #F5F4F5",
"-. c #F5F5F4",
";. c gray96",
":. c #F6F5F5",
">. c #F6F5F6",
",. c #F6F6F5",
"<. c #F6F6F6",
"1. c #F6F6F7",
"2. c #F7F6F7",
"3. c #F7F7F6",
"4. c gray97",
"5. c #F7F8F7",
"6. c #F8F7F7",
"7. c #F8F7F8",
"8. c #F8F8F8",
"9. c #F9F9F9",
"0. c gray98",
"q. c #FBFBFB",
"w. c gray99",
/* pixels */
"w.w.q.q.q.q.q.q.q.4.4.q.4.4.q.4.4.4.4.4.o.4.4.o.4.o.4.o.o.o.o.o.o.o.R o.R R R R R R R R U U M U N N ",
"w.q.q.q.q.q.q.q.q.q.q.4.4.q.6.4.4.4.4.4.4.4.o.4.4.o.o.o.o.o.o.o.o.R o.R o.R o.R R R U R M U M M N N ",
"w.q.q.q.q.q.4.q.q.4.q.4.4.4.4.4.4.4.4.4.4.o.4.o.o.4.o.o.o.o.o.o.R o.o.R R R R R R M M R M M M n N j ",
"q.q.q.q.4.q.q.4.4.q.4.4.4.q.4.4.4.4.4.o.4.o.4.o.o.o.o.o.o.o.o.U o.R R o.R R R R R U U N U N U U j C ",
"q.q.4.q.q.q.4.q.q.4.4.q.6.4.4.4.4.o.4.o.4.o.4.o.o.o.o.o.o.o.o.U o.R R R R R R U R N N U N N n n B B ",
"q.q.q.q.q.4.q.4.q.1.4.1.4.4.4.4.4.4.4.o.4.o.o.o.o.o.o.o.R o.o.R o.R R R R R U U N R U N C j j U j j ",
"q.q.4.q.q.4.4.4.q.1.6.4.4.4.4.o.4.o.4.4.o.4.o.o.o.o.R o.o.o.R o.R R R R R M U N C C N N N B j j j j ",
"q.4.q.q.4.q.q.4.6.6.4.4.4.4.4.4.o.4.o.o.o.o.o.o.o.o.o.o.U R o.U R R R R R R U N R N C U j C j n j j ",
"q.q.q.4.q.4.4.4.4.4.4.4.o.4.4.o.4.4.o.4.o.o.o.o.o.R o.R R R R o.R R R R R N N U n U n n B j j j j l ",
"q.4.q.4.4.q.q.4.4.4.4.4.4.4.o.4.o.o.o.o.o.o.o.R o.o.o.R R o.R U R R M R R N U N U U n n j B j l l l ",
"q.q.4.q.4.4.4.4.4.4.4.4.4.o.4.o.4.o.o.o.o.o.o.o.o.o.R o.R o.R R R U U R C C N N j n j j j B j l q l ",
"4.4.q.4.4.4.4.4.4.4.4.4.4.4.o.4.o.o.4.o.o.o.o.o.R R o.R R R R R U U U N R N C U M n B j l l j t l q ",
"4.q.4.4.q.4.4.4.4.4.4.4.o.4.o.o.o.o.o.o.o.o.o.U W o.o.R R R R W M R M R M n U n N j n j l t t l q q ",
"q.4.4.q.4.4.4.4.o.4.4.o.4.o.o.4.4.o.o.o.o.R R o.o.W W R R R W W U U R M M U n n j j n j l j j t t t ",
"4.q.4.4.4.4.4.4.4.4.o.4.o.4.o.o.o.o.o.o.o.o.o.Y U W W U U W U U U M U M U j n n j j j j j j p t t q ",
"4.4.4.4.4.4.4.4.4.o.4.o.o.o.o.o.o.o.R o.o.U o.o.Y W W U W U U M M U N U j N n j n l j j p p t t q q ",
"1.4.4.4.4.4.o.4.4.o.4.o.o.o.o.o.o.o.R o.o.R R R R R R R R R N U U M M N j C n j j l l l t t t 4 4 q ",
"4.4.4.4.o.4.4.4.o.4.o.4.o.o.o.o.o.o.o.R o.R R o.R R R R R N U N M U M N n j j j j j q l t t q q 4 q ",
"q.4.4.4.4.4.4.o.4.o.o.o.o.o.o.o.R o.o.R o.R R R R R R M N U N N n n n n j j n j j t t q t t q q q 4 ",
"4.4.4.4.o.4.4.o.o.o.o.4.o.o.o.R o.o.R o.R R R R R R R U U U C N U n n j j n j j l j t t q q 4 q q * ",
"4.4.4.o.4.o.4.4.o.o.o.o.o.o.o.o.R o.R o.R R R R U U U M N C C U B B j n j l j p t t t t q 4 q ; ; q ",
"4.4.4.4.o.4.o.o.4.o.o.o.o.o.R o.o.R R R R R R U M U M U N N M j B j j j l j j p t t t q q 4 q ; 4 ; ",
"o.4.4.o.4.o.o.o.o.o.o.o.R o.o.R R U R o.R R R U R G U M j U N N B j j l l t p p t t q q 4 4 ; q q * ",
"4.4.4.o.o.4.o.4.o.o.o.o.o.o.R o.R o.R R R R R U R M U j U B C j j j l j j t p p t q q 4 q 4 4 ; * * ",
"4.o.o.4.o.o.4.o.o.o.T o.T Y o.R E R R R R U U U M M C C j U j j j l l j l q p q q q q 4 4 * q * * * ",
"o.4.4.o.o.o.o.o.o.o.o.o.o.o.R R o.R R R M U N N M R C N C j j j l l t t p q q q q 4 4 q 4 q * * ; * ",
"4.4.o.4.o.o.o.o.o.o.o.T U U R o.R R R M R G N U M N N j n j n j j j l j t t q q 4 4 q * 4 * * 4 * * ",
"o.o.o.o.o.o.o.o.o.o.Y o.R o.R R R R U R R M U N R N N N n n j j j p q t t q q q q 4 4 q * * * * * * ",
"o.4.o.o.o.o.o.R o.E o.o.R R R R R R N G U M M U n n n B j j l l q j q t q q q q ; * q * * * * * * * ",
"o.o.o.o.o.o.o.o.E o.T E R R R R R R R C U M M C n n j j n j l l j j q q 4 q ; q ; q 4 * * * * * *   ",
"4.o.o.o.o.o.o.W o.R R o.E R R R U U U N n M U n U j j j j j q l u 9 9 4 q 4 q ; q : * * * *   *     ",
"o.o.o.o.R o.o.R o.E E E R R R R N N U N U M n n j j j l j p t q p 9 q q q 4 ; q : : ; * * * * *     ",
"o.o.o.o.o.o.R R R o.R R R R R U M U M U N N n U j j j l j t j t t q q 4 q ; ; ; * ; * * * *   *     ",
"o.o.o.o.R o.o.U R R R R R R R M U n M M N j n n j j l l j p q q q q 4 4 q * q * , * * *             ",
"o.o.o.R o.R o.R R R R R M U U M M U U n j B j j l l l q j q 9 4 q q q ; * 4 * 4 * * * * *   *       ",
"o.R o.o.R o.R R R R R R R R M R n U j j C j j j l j j q 9 p q q 4 q ; 4 q 4 * * * * *               ",
"o.R R o.U R R R R R U U G M R N U j n U j j t l q p p p q q q 4 4 4 ; , * , * *   * *               ",
"o.o.o.R R R R R R M U N M R N N n n n j j j j j q j q p q q q 4 q ; q ; q * * * * *                 ",
"R o.R o.o.R R R R U U U U C C C n n j j B l j l j t t q 4 q 4 q ; q * ; * * *   *   *               ",
"o.R R R U R R U R M M U N C C N n j j j l l t t q q q q q 4 4 4 , , * ; * * * *                     ",
"o.E R R R R U R R M U N N U j n j j j l l t p l q q 4 q 4 q 4 * , ; ; * * * *   *                   ",
"R R R R R M U R N R C C C j U j j j l l l t t t q q q q 4 q * q * ; * *   *   *                     ",
"R o.R R R R U M R N N C n n j j j l j j t j q t 4 q q 4 * q 4 * , * ; * *                           ",
"R R R R R R R M N N C N U n j j l l j j t t t q q 4 q * 4 * * q * *   * *                           ",
"R R R R U M U R M U n n j j n j l l q p q q 4 q 4 q 4 ; q * * * * * *     *                         ",
"R R U R M U M M M M n n j n l j j j q q 9 q q q 4 4 ; 4 * , * * * * *                               ",
"R M M R U M j U N j n n j l l l j p p p q q 4 4 q ; q * * ; * * *                                   ",
"R R R M U j U U j N j j j j j q p p 9 4 q 4 q q ; q * * * * * * *   *                               ",
"R N C R N C C N n j B j j j t l q q q 4 4 4 q ; q * ; , * * *                                       ",
"U R N N N N C j j j j j l l l q q q q q q 4 ; 4 ; ; ; * * * *   *                                   "
};
