/* XPM */
static char *whitesquare[] = {
/* columns rows colors chars-per-pixel */
"50 50 256 2",
"   c black",
".  c #09090000",
"X  c #1D1E0000",
"o  c #23250000",
"O  c #2E2F0300",
"+  c #393B0000",
"@  c #3F6B0000",
"#  c #49750000",
"$  c #4C780000",
"%  c #44710000",
"&  c #537C0000",
"*  c #7D550000",
"=  c #7D5C0000",
"-  c #64680500",
";  c #5C820000",
":  c #508F0000",
">  c #55A80000",
",  c #6C8A0000",
"<  c #61830000",
"1  c #64900000",
"2  c #728D0000",
"3  c #7A940000",
"4  c #7F9A0000",
"5  c #61AA0100",
"6  c #63B20200",
"7  c #7FA10100",
"8  c #825C0000",
"9  c #84640000",
"0  c #87680000",
"q  c #8A6C0000",
"w  c #8C6F0F00",
"e  c #8D720000",
"r  c #926D0000",
"t  c #91740000",
"y  c #937C0000",
"u  c #98740000",
"i  c #9E7A0200",
"p  c #94750C00",
"a  c #9A781200",
"s  c #977C2B00",
"d  c #A27A0400",
"f  c #A27C0C00",
"g  c #83890A00",
"h  c #849A0000",
"j  c #899E0000",
"k  c #8B910B00",
"l  c #9B840000",
"z  c #97980400",
"x  c #9E822700",
"c  c #88A70000",
"v  c #84B50000",
"b  c #85B80000",
"n  c #8ABB0100",
"m  c #8EB80500",
"M  c #89BA1000",
"N  c #93A40000",
"B  c #9EAB0000",
"V  c #9CA50700",
"C  c #99A01500",
"Z  c #93B40000",
"A  c #9EB00100",
"S  c #9ABA0000",
"D  c #93BC0600",
"F  c #91BE1100",
"G  c #A68E0600",
"H  c #A8841800",
"J  c #A3930000",
"K  c #AB940300",
"L  c #AA9B0000",
"P  c #AE980C00",
"I  c #B1960800",
"U  c #AB8E3000",
"Y  c #AF942300",
"T  c #AC973400",
"R  c #B08D3200",
"E  c #B3923300",
"W  c #A3AD0000",
"Q  c #A7A60700",
"!  c #AEB70000",
"~  c #ADB41400",
"^  c #B1A50000",
"/  c #B3AB0000",
"(  c #BAA70800",
")  c #B6B20000",
"_  c #B3BD0000",
"`  c #BBB30000",
"'  c #BBBB0000",
"]  c #B9994800",
"[  c #BDA04900",
"{  c #BBB04A00",
"}  c #94C01100",
"|  c #98C31000",
" . c #95C70E00",
".. c #96EA1700",
"X. c #9DED2900",
"o. c #95F62800",
"O. c #95F82700",
"+. c #95F82800",
"@. c #9BF62600",
"#. c #9AF22800",
"$. c #9AF82600",
"%. c #98F82800",
"&. c #A9C00100",
"*. c #B3C20000",
"=. c #BDC20000",
"-. c #B5CF0C00",
";. c #B9C11600",
":. c #B6D31400",
">. c #ABED1C00",
",. c #B6E01400",
"<. c #A4F12600",
"1. c #AAF32600",
"2. c #A3F02800",
"3. c #B2ED2600",
"4. c #BBE62500",
"5. c #BBEA2500",
"6. c #B1F22600",
"7. c #B8F12400",
"8. c #AAED2800",
"9. c #C1AF0E00",
"0. c #C2BB0000",
"q. c #C4B61200",
"w. c #C2AE3600",
"e. c #C6B63400",
"r. c #C4A75B00",
"t. c #C9B05000",
"y. c #D0BB5A00",
"u. c #C5B84400",
"i. c #CEB47300",
"p. c #D0B36000",
"a. c #C3A56800",
"s. c #C5C60000",
"d. c #C6C80000",
"f. c #C8C60000",
"g. c #CACB0000",
"h. c #CDC20900",
"j. c #C4C91200",
"k. c #CACB1100",
"l. c #CEC91900",
"z. c #CDD20000",
"x. c #C7D71A00",
"c. c #D0CE0200",
"v. c #D5C90B00",
"b. c #D2CA1400",
"n. c #DACD1D00",
"m. c #D5CA1600",
"M. c #D2D40200",
"N. c #D6DA0200",
"B. c #D9D70000",
"V. c #DADC0300",
"C. c #DADC0900",
"Z. c #D6D80900",
"A. c #DCD81A00",
"S. c #D5D91700",
"D. c #D5CD2A00",
"F. c #DED02400",
"G. c #DBD03700",
"H. c #DEE00300",
"J. c #DDE20900",
"K. c #D7E00F00",
"L. c #DBE41D00",
"P. c #DCE91D00",
"I. c #DEE11600",
"U. c #C5E92500",
"Y. c #D2EA2300",
"T. c #DAE92100",
"R. c #D6E72200",
"E. c #E0DF0100",
"W. c #E1CF3B00",
"Q. c #E0DB2400",
"!. c #E4DA3A00",
"~. c #E1E40400",
"^. c #E0E50A00",
"/. c #E4E80400",
"(. c #E4EA0C00",
"). c #E8ED0D00",
"_. c #E4EB1400",
"`. c #E4ED1C00",
"'. c #E8EE1300",
"]. c #E8ED1D00",
"[. c #EDF60F00",
"{. c #E5F01D00",
"}. c #EAF11300",
"|. c #E8F11C00",
" X c #ECFA1C00",
".X c #F0F71600",
"XX c #E3EE2000",
"oX c #E5ED2800",
"OX c #E5EC3400",
"+X c #E5F02000",
"@X c #E9F22100",
"#X c #EDF92300",
"$X c #E7F12D00",
"%X c #E5F03000",
"&X c #F3FD2200",
"*X c #C8C05B00",
"=X c #D0C24900",
"-X c #D3C85100",
";X c #DDD24800",
":X c #DADB5E00",
">X c #DED25000",
",X c #DACA7000",
"<X c #DDDB6200",
"1X c #DBDD6900",
"2X c #DAD26400",
"3X c #DEE25E00",
"4X c #DEE16700",
"5X c #E0D24600",
"6X c #E4DA5C00",
"7X c #E2D36600",
"8X c #EADE7C00",
"9X c #E7E94400",
"0X c #E8E65B00",
"qX c #E9E85A00",
"wX c #E7E55700",
"eX c #E7E46800",
"rX c #ECE97600",
"tX c #EDF06C00",
"yX c #EDF47300",
"uX c #EEF37A00",
"iX c #F0E97C00",
"pX c #F4FF7500",
"aX c #CAB38900",
"sX c #D3BD8800",
"dX c #CEC08E00",
"fX c #D9C58C00",
"gX c #DBC69300",
"hX c #DAC9A600",
"jX c #DECFB100",
"kX c #ECDD8400",
"lX c #E4D4A600",
"zX c #E6D9BA00",
"xX c #E3E48400",
"cX c #EDE78800",
"vX c #EEE49600",
"bX c #F0E58A00",
"nX c #F1E49900",
"mX c #F4EAAA00",
"MX c #F5ECB300",
"NX c #F6EDBD00",
"BX c #F6F1BD00",
"VX c #E9DDC900",
"CX c #EAE0CA00",
"ZX c #EFE7D900",
"AX c #F7EDC300",
"SX c #F8EFCB00",
"DX c #F1E9D400",
"FX c #F8F2CB00",
"GX c #F7F2C700",
"HX c #F8F5D400",
"JX c #FAF5DA00",
"KX c #F3EDE200",
"LX c #F6F3EA00",
"PX c #F9F5E700",
"IX c #FCFAF300",
"UX c #FEFEFE00",
/* pixels */
"UXUXUXUXUXUXUXUXUXUXUXUXUXSXG.j.j.j.L.$X%X%XuXUXUXUXUXUXUXeXk.j.S.'.%X%XOXcXIXUXUXUXUXUXUXUXUXUXUXUX",
"UXUXUXUXUXUXUXUXUXUXUXUXUXAXl.s.s.z.(.|.`.oXtXIXUXUXUXUXUX6Xf.s.g.(.{.+XT.iXIXUXUXUXUXUXUXUXUXUXUXUX",
"UXUXUXUXUXUXUXUXUXUXUXUXUXAXD.s.s.N.'.XXXXXXuXIXUXUXUXUXUXeXg.s.f.C.{.+XoXcXIXUXUXUXUXUXUXUXUXUXUXUX",
"UXUXUXUXUXUXUXUXUXUXUXUXUXSXD.=.s.C.|.XX`.`.uXUXUXUXUXUXUX7Xf.s.f.Z.{.+XoXcXIXUXUXUXUXUXUXUXUXUXUXUX",
"UXUXUXUXUXUXUXJXnXbXnXMXAXkXl.s.s.C.|.XX`.XXeXHXJXHXHXJXAX5Xg.d.g.^.{.+XoXrXHXHXHXPXUXUXUXUXUXUXUXUX",
"UXUXUXUXUXUXNX>Xb.b.l.D.!.A.s.s.c._.+XXXXXXXOXqXqXqXqXqX!.b.s.s.M.(.+XXX`.OXwX0XqXeXMXIXUXUXUXUXUXUX",
"UXUXUXUXUXPX>X=.s.s.s.d.H.H.C.Z.(.|.`.XXXX+XXX{.{.{.{.{.(.N.g.c.J.'.XXXXXXP.`.`.|.`.9XFXUXUXUXUXUXUX",
"UXUXUXUXUXNXD.s.s.d.s.d.z.'.|.|.`.XXXXXX+X#X@X+XXXXX+X&X X'.(.(.'.XXXXXX+X+XXX].{.{.+XMXUXUXUXUXUXUX",
"UXUXUXUXPXbXl.s.s.d.s.s.g.`.+XXXXX+X+X@XL.:.S.@XXXXX{.;.;.T.@X+XXXXXXXXXXXXXXXT.XXXX+XiXJXIXUXUXUXUX",
"UXUXUXUXvXb.s.s.s.s.s.s.f._.+XXXXX+X+XS.g O - x.@X@X;.O o ~ #X+X].XXXXXXXXXXXXXXXXXXXX{.9XBXUXUXUXUX",
"UXUXUXUX:Xs.s.d.s.d.s.s.g.`.+XXXXXXX#X;.+   o ~ @X#XC X . C &X+XXXXXXXXXXXXXXXXXT.+XT.{.+XuXUXUXUXUX",
"UXUXUXUX:Xf.s.s.s.s.s.s.f._.+XXXT.`.@X].~ - k P.+X+XP.g k S.@X+XXXXXXXXXXX`.XXXXXX{.XX`.{.yXUXUXUXUX",
"UXUXUXUX:Xd.d.s.d.s.s.s.f._.XXXX+XXXXX+X+X`.`.+XXXXX+X`.+X+XT.+XXXXXXXXXXXXXXXXXXXXXXXXXXXyXUXUXUXUX",
"UXUXUXUX:Xs.s.d.f.s.f.s.g.`.@X].+X`.XXXX+X+X+X+XXXXXXX+X+X+XXXXXXXXXXXXX+XXXXXXXXXXXXXXXT.yXUXUXUXUX",
"UXUXUXUX:Xs.d.f.f.f.d.f.g.'.@XoXXXXXXXXXXXXXXXXXT.+XXXXXXXXXXX`.XXXXXXXX`.XXXXXXXXXXT.{.XXyXUXUXUXUX",
"UXUXUXUX:Xd.s.s.f.d._ S S >.6.3.4.T.`.XXXXXXXXXX+X{.XXXXXXXXXXXXXXXXR.Y.U.T.XX`.XXXXXXXX`.yXUXUXUXUX",
"UXUXUXUX:Xd.d.d.*.S m v n ..$.@.#.1.U.XXXXXXXX@X@X@XXXXXXXXXXXXXU.1.1.<.<.1.6.5.`.{.+XXX`.yXUXUXUXUX",
"UXUXUXUX:Xs.s.*.n v v v n ..$.$.@.+.#.U.XX+XP.:.} :.XXXXXX`.R.4.#.+.#.%.$.+.o.#.3.T.`.XX`.yXUXUXUXUX",
"UXUXUXUX:Xf.=.S v v b v n ..$.$.@.$.+.2.Y.+XL.M > M R.@XXXXXU.#.%.@.@.@.%.@.@.%.o.4.XXXXXXuXUXUXUXUX",
"UXUXUXUX0Xf.*.m b b b b n ..$.$.$.$.O.X.U.+XL.F 6 F T.XXXXXX3.o.@.@.@.@.$.@.@.@.%.3.T.XXXXpXUXUXUXUX",
"ZXDXIXUX1Xz.d.&.v b n v b ..$.$.@.@.+.8.R.@XR.} 6 F R.@XXX].U.<.o.%.%.%.$.$.O.O.#.U.XXXX@XuXIXIXZXVX",
"] E i.jX{ ' 0._ Z n b b b ..$.$.+.#.<.Y.XX@XI.M 5 F P.@XXXXXXXU.1.#.#.+.+.#.@.<.5.+X@X].XX-XzXaX] R ",
"a q 9 = 9 q y l J N c c n ..#.X.<.1.Y.XX|.}.N.c ; Z _.|.XXXX+XXXT.4.6.1.1.1.5.Y.T.A.l.9.I d r u d H ",
"dX[ U s w q 0 9 9 = 0 J *.:.4.U.T.+X`.@X'.E.s.h & h M.).`.@XXXXXXXXXXXXXXXXX+X@X( r r 0 0 w s R r.hX",
"IXIXLXLX*X` L J l e e L f.'.`.XXXXXX`.).B.g.=.h & h f.c.^.].+XXX+XXXXXXXXXXX+X+X( q e l L y.LXLXIXUX",
"UXUXUXUX4Xg.f.s.s.s.' s.f.'.@XXXXX|.(.M.f.g.! ; $ , W f.c.~.`.XX+XT.`.XXXXXXXXXXI.z.s.s.d.7XUXUXUXUX",
"UXUXIXIX2Xz.g.g.z.g.z.f.g._.{.XXXX'.B.g.s.V < $ & & ; N s.g.~.}.+X`.XXXXXXXXXXXX@X}./.N.Z.eXUXUXUXUX",
"zXfXgXgXw./ ^ ^ ^ ^ ^ ` f._.+X+X}.B.g.' h & $ , W 2 $ & N s.g.H.'.XXXX`.XXXX`.XX+X X|.|. XeXUXUXIXUX",
"U a w p e e q e q q e L g._.|.|.^.g.W , $ $ j z./.' h $ & h ' g.H.'.+XXXXX+X+X+Xq.I P P P Y ] [ ] r.",
"R i d i e e e e e q t L g.'.@X.Xg.j ; % ; W C. X.XE.' j & $ 3 _ N.(.+XXX`.T.+X+XK 8 * 8 * = e u d d ",
"VXlXlXlXe.) ) ) ) ) ` ' f.`.@X:.4 $ # 3 _ (. XoX`.'.E.0.N & # 2 ! J.+XXXXXXX+X{.v.^ J L Q T aXdXfXgX",
"UXUXUXUX1Xz.g.z.z.M.z.f.f.`.#X| : 1 A g.'.|.XXXXXX{.).E.f.W & % h (.+XXXXXXXXX{..X/.c.g.z.1XUXUXUXUX",
"UXUXUXUXeXg.s.0.` ^ ^ s.g.`.{.x.F -.)..XXXXXXXXXXXXX`.(.V.M.W 4 *.'.+XXXXXXXXX+XS.0.0.g.M.<XUXUXUXUX",
"UXIXDXzXu./ J l t = 0 ` z.`.+X+XXX+X@XXXXXXXXXXXXXXXXX`.'.^.C.(.'.{.XXXXXXXX+X+X( r l ` N.,XUXUXUXUX",
"zXsX] H q = = 9 q q l ` g.`.+X`.XX+XXXXXXXXXXXXXXXXXXXXXXX+X+X@XXXXXXXXXXX`.{.|.( e = = G t.VXIXUXUX",
"H q 0 q q e y z ^ ` s.s.g.`.+XXXXXXXXXXXXXXXXXXXXXXXXXXXXXXXXXXXXX`.XXXXXXXX+X'.c.` J y 9 0 H aXVXIX",
"R x E p.e.s.s.s.d.d.f.s.g._.+XXXXXXXXXXXXXXXXXXXXXXXXXXXXXXXXXXXXXXXXXXXXXXX+X`.M.d.d.0.J p i d f a.",
"KXJXLXIX2Xz.z.d.d.d.d.s.z.`.+X+X+X+XXXXXXX+XXX`.+XXX+XXXXXXXXX+X+XT.XXXXXXXXXX{.C.f.d.d.f.=XgXE d f ",
"UXUXUXUX<Xs.s.s.s.d.d.s.g._.|.`.|.@X{.{.`.{.|.|.{.{.|.|.|.@X].|.{.+X`.{.XXXXXX+X}.Z.f.d.d.2XUXKXhXr.",
"UXUXUXUX:Xs.s.s.s.s.s.s.d.g.M.g.g.M.M.Z.M.M.Z.M.M.Z.N.V.~.V.C.V.~./.(.`.{.XXXXXX{.).N.f.s.<XUXUXIXLX",
"UXUXUXUXkX0.s.d.d.s.f.s.s.s.s.s.s.s.f.s.s.s.s.s.s.s.f.f.g.f.f.f.g.g.g.C.'.+X`.XX+X{.'.J.F.mXIXUXUXUX",
"UXUXUXUXJXMX8X7X5Xg.s.s.s.f.s.s.s.s.s.s.s.s.s.s.s.d.d.s.s.s.s.s.s.s.s.f.N._.+X+X{.9XcXmXGXIXUXUXUXUX",
"UXUXUXUXUXUXIXJXmXv.f.s.s.s.s.s.s.s.s.s.f.s.s.d.d.s.s.s.d.d.s.s.s.s.s.s.g.).{.T.{.qXHXUXUXUXUXUXUXUX",
"UXUXUXUXUXUXUXUXNXv.f.s.f.d.s.d.b.<XxXxXxXxXxXxXxXxXxXxXxXxXxXxXxX:Xb.s.g./.`.+XP.qXHXUXUXUXUXUXUXUX",
"UXUXUXUXUXUXUXUXMXv.d.s.f.f.s.d.W.HXUXUXUXUXUXUXUXUXUXUXUXUXUXUXUXFXF.s.g./.|.{.XX0XHXUXUXUXUXUXUXUX",
"UXUXUXUXUXUXUXUXMXv.s.s.f.f.s.s.5XFXUXUXUXUXUXUXUXUXUXUXUXUXUXUXUXAXn.s.g./.|.{.{.qXHXUXUXUXUXUXUXUX",
"UXUXUXUXUXUXUXUXMXm.d.d.f.s.d.s.5XFXUXUXUXUXUXUXUXUXUXUXUXUXUXUXUXBXF.=.g./.|.T.XX0XHXUXUXUXUXUXUXUX",
"UXUXUXUXUXUXUXUXBXm.s.d.d.s.s.s.G.GXUXUXUXUXUXUXUXUXUXUXUXUXUXUXUXBXn.s.g./.`.+XXX0XHXUXUXUXUXUXUXUX",
"UXUXUXUXUXUXUXUXFXG.f.d.f.s.s.s.6XJXUXUXUXUXUXUXUXUXUXUXUXUXUXUXUXBXn.s.g.).`.`.{.wXHXUXUXUXUXUXUXUX",
"UXUXUXUXUXUXUXUXIXnXm.k.k.k.k.S.mXUXUXUXUXUXUXUXUXUXUXUXUXUXUXUXUXFXG.j.b.`.$X%XoXrXPXUXUXUXUXUXUXUX"
};
