/* XPM */
static char *classicsquare_blacksquare[] = {
/* columns rows colors chars-per-pixel */
"50 50 44 1",
"  c #020202",
". c #070708",
"X c #070807",
"o c #070808",
"O c #080807",
"+ c #0B0B0B",
"@ c #0F0F10",
"# c #0F1010",
"$ c #100F0F",
"% c #100F10",
"& c #10100F",
"* c #131313",
"= c #171718",
"- c #171817",
"; c #181717",
": c #181718",
"> c #181817",
", c #1B1B1B",
"< c #1F1F20",
"1 c #1F2020",
"2 c #201F1F",
"3 c #201F20",
"4 c #20201F",
"5 c #232323",
"6 c #272827",
"7 c #282728",
"8 c #2B2B2B",
"9 c #2F2F30",
"0 c #2F3030",
"q c #302F2F",
"w c #30302F",
"e c #333333",
"r c #373738",
"t c #383738",
"y c #383837",
"u c #3B3B3B",
"i c #3F3F40",
"p c #403F3F",
"a c #403F40",
"s c #434343",
"d c #474847",
"f c #4B4B4B",
"g c #525252",
"h c #5A5A5A",
/* pixels */
"hhhggggfffddsssuuuuyteewww8886655455<,,,,,===****+",
"hhggggfffddssssputyyreew9888766555,,,,,,>>=****+*&",
"hgggggffddssssuuttyeeww988876655555,,,,>>>*****#++",
"hgggffffdsssuuuutyyeew8888865553,5,,,,,,>*****+#+&",
"hgfgffddsssiiuuttyeewq88877655533,,,,,>>=***#&#&*+",
"gfgfffddssauuuttyewww8868755555,2,,,=>>****#*++&++",
"gffffsssiaauutteeww088886555553,,,,,==*=**&&+#++++",
"gffdddssaauuureee000888875555,5,,,>>>*****&&#+&+++",
"fffdssssaauttreeww8887756552,4,,,>>=*****%$%%+++++",
"gdddssauutuyeewew888866653522,,,,>>=>*****+@+++++.",
"ffdssssuatyyeewww88876655525,,,,=*==****+$@++++OOO",
"ddsaasuuuteeeeww8887755533,,,,:,==****&&*+@++++++.",
"dsasiuuuyyee0088887665555,,,,,,==****%**+++++O....",
"dsaaauttyeee00888866555,42,,,,==*=****+++++++O+O..",
"saaiuuttee0080887655555,,,,,>==*****++@+++++OOOOXX",
"saaiutreeee08886665555,5,,,>>==***+*+*++++++OO.. X",
"ssuuyteee998888765554,,5,,>>==**#*++*+++++O+O. O. ",
"uuuttteew9q88765555354,,,,>==**&***+%+++++O.X.O   ",
"uuuteeew9888865655334,,,>===*****@%$++++O+...X.OX ",
"uuteeee998876666555,,,>,===****&+*+%+++++O...O    ",
"uteeee9888886655,3,,,,>:===***&&%+++++.O..X O O   ",
"tyyeww988876555,5,5,,,===****&&&%+++O++O..X. .    ",
"reew9q888765655<<,,,,>,=****$*&+%++++OOO. X X .   ",
"eeew8888766555,5,,,,,>=*****+*+$+++.+...XX X      ",
"eew98888665533<,,,,,===****+*+%++++.+O. .         ",
"ew99886665553<,,,,>>==***&*++++++OO.OO.. X..      ",
"w08888665555<5,,,>>>****&*+*%+++O+OOO...X         ",
"w98867655524,,,,,>>*=***&#+++++++OO.O.. X         ",
"988866555,54,,,,==*****+#&++++++OOO.X. X          ",
"8887655554,,,,,>==****+*+&++++++O... .            ",
"887665535,,,,,>>*=***&***+++++.OO...X             ",
"8656553<2,,,,=>=****@*++++++O.+OO XO  X           ",
"665555,5,,,,=>=****&+*++++++O+O...                ",
"665555,,,,,,=*=***+*#+@+++++OOO..  .              ",
"65534,,,,,,>>*****+*+++++++.OOOO .                ",
"555345,,,,===****+*+&++++O+.O . . .               ",
"55<<,,,>,>==****%+%*+++...O.X  .                  ",
"53<<,,,,==*****+*++++++++.X. XO X                 ",
"53<<,,,==*****&$%@++++.+.XX.OO                    ",
"3<,,,,,=*=*****+++++++OO..X    .                  ",
"4,,,,>===**&%*+++++++...XX...                     ",
",,,,==*=*****+*++++.+O.. .                        ",
",,::>=****&&*#+++++OO.O.. X                       ",
",,,>=****&&$++++++O+OO.. X .                      ",
",====***&*+*++++OOO.... X X                       ",
",,>****&+&$++++++OOOXO X                          ",
">*=****#*+++++++OOOO  X                           ",
">=****+@*+++++O+O.OO O .                          ",
"=****&$++*++++....X X  O                          ",
"=***+*&&+++++...XXX                               "
};
