/* XPM */
static char *classicsquare_icon[] = {
/* columns rows colors chars-per-pixel */
"12 12 43 1",
"  c #EC9E24",
". c #EC9E25",
"X c #ECA029",
"o c #ECA12A",
"O c #EDA431",
"+ c #EDA737",
"@ c #EDA738",
"# c #EEA93E",
"$ c #EEAA3E",
"% c #EEAA3F",
"& c #EEAD45",
"* c #EFAD46",
"= c #EFAF4B",
"- c #EFAF4C",
"; c #EFB04C",
": c #EFB04D",
"> c #F0B04C",
", c #F0B04D",
"< c #F0B352",
"1 c #F0B353",
"2 c #F0B354",
"3 c #F0B659",
"4 c #F0B65A",
"5 c #F0B65B",
"6 c #F1B960",
"7 c #F1B961",
"8 c #F1BB67",
"9 c #F2BC67",
"0 c #F2BC68",
"q c #F2BC69",
"w c #F2BE6E",
"e c #F2BF6E",
"r c #F2BF6F",
"t c #F2C275",
"y c #F3C47C",
"u c #F3C57C",
"i c #F4C783",
"p c #F4C883",
"a c #F4CB8A",
"s c #F5CD90",
"d c #F5CE90",
"f c #F6D197",
"g c #F6D39D",
/* pixels */
"     XO@$*:1",
"    XO+&*>15",
"   XO+#&>155",
"  XO+#*>3550",
" XO+#&><55wr",
"XO+#&:1450tt",
"O@&*-<47qrtu",
"@#&=247qwtup",
"#*:145qwtypa",
"*:137qttypaa",
":1379etupadf",
"137qetupadfg"
};
